  0
SECTION
  2
HEADER
  9
$ACADVER
  1
AC1015
  9
$ACADMAINTVER
 70
     6
  9
$DWGCODEPAGE
  3
ANSI_1252
  9
$INSBASE
 10
0.0
 20
0.0
 30
0.0
  9
$EXTMIN
 10
0.0
 20
0.0
 30
0.0
  9
$EXTMAX
 10
60.0
 20
60.0
 30
0.0
  9
$LIMMIN
 10
0.0
 20
0.0
  9
$LIMMAX
 10
420.0
 20
297.0
  9
$ORTHOMODE
 70
     0
  9
$REGENMODE
 70
     1
  9
$FILLMODE
 70
     1
  9
$QTEXTMODE
 70
     0
  9
$MIRRTEXT
 70
     1
  9
$LTSCALE
 40
1.0
  9
$ATTMODE
 70
     1
  9
$TEXTSIZE
 40
3.5
  9
$TRACEWID
 40
1.0
  9
$TEXTSTYLE
  7
Standard
  9
$CLAYER
  8
0
  9
$CELTYPE
  6
ByLayer
  9
$CECOLOR
 62
   256
  9
$CELTSCALE
 40
1.0
  9
$DISPSILH
 70
     0
  9
$DIMSCALE
 40
1.0
  9
$DIMASZ
 40
3.302
  9
$DIMEXO
 40
1.0
  9
$DIMDLI
 40
3.75
  9
$DIMRND
 40
0.0
  9
$DIMDLE
 40
0.0
  9
$DIMEXE
 40
1.0
  9
$DIMTP
 40
0.0
  9
$DIMTM
 40
0.0
  9
$DIMTXT
 40
3.5
  9
$DIMCEN
 40
2.5
  9
$DIMTSZ
 40
0.0
  9
$DIMTOL
 70
     0
  9
$DIMLIM
 70
     0
  9
$DIMTIH
 70
     1
  9
$DIMTOH
 70
     1
  9
$DIMSE1
 70
     0
  9
$DIMSE2
 70
     0
  9
$DIMTAD
 70
     1
  9
$DIMZIN
 70
     0
  9
$DIMBLK
  1

  9
$DIMASO
 70
     1
  9
$DIMSHO
 70
     1
  9
$DIMPOST
  1

  9
$DIMAPOST
  1

  9
$DIMALT
 70
     0
  9
$DIMALTD
 70
     3
  9
$DIMALTF
 40
0.0393700787
  9
$DIMLFAC
 40
1.0
  9
$DIMTOFL
 70
     1
  9
$DIMTVP
 40
0.0
  9
$DIMTIX
 70
     0
  9
$DIMSOXD
 70
     0
  9
$DIMSAH
 70
     0
  9
$DIMBLK1
  1

  9
$DIMBLK2
  1

  9
$DIMSTYLE
  2
ISO-25
  9
$DIMCLRD
 70
     0
  9
$DIMCLRE
 70
     0
  9
$DIMCLRT
 70
     0
  9
$DIMTFAC
 40
1.0
  9
$DIMGAP
 40
1.524
  9
$DIMJUST
 70
     0
  9
$DIMSD1
 70
     0
  9
$DIMSD2
 70
     0
  9
$DIMTOLJ
 70
     0
  9
$DIMTZIN
 70
     0
  9
$DIMALTZ
 70
     0
  9
$DIMALTTZ
 70
     0
  9
$DIMUPT
 70
     0
  9
$DIMDEC
 70
     2
  9
$DIMTDEC
 70
     2
  9
$DIMALTU
 70
     2
  9
$DIMALTTD
 70
     3
  9
$DIMTXSTY
  7
Standard
  9
$DIMAUNIT
 70
     0
  9
$DIMADEC
 70
     2
  9
$DIMALTRND
 40
0.0
  9
$DIMAZIN
 70
     0
  9
$DIMDSEP
 70
    44
  9
$DIMATFIT
 70
     3
  9
$DIMFRAC
 70
     0
  9
$DIMLDRBLK
  1

  9
$DIMLUNIT
 70
     2
  9
$DIMLWD
 70
    -2
  9
$DIMLWE
 70
    -2
  9
$DIMTMOVE
 70
     0
  9
$LUNITS
 70
     2
  9
$LUPREC
 70
     2
  9
$SKETCHINC
 40
1.0
  9
$FILLETRAD
 40
10.0
  9
$AUNITS
 70
     0
  9
$AUPREC
 70
     2
  9
$MENU
  1
.
  9
$ELEVATION
 40
0.0
  9
$PELEVATION
 40
0.0
  9
$THICKNESS
 40
0.0
  9
$LIMCHECK
 70
     0
  9
$CHAMFERA
 40
10.0
  9
$CHAMFERB
 40
10.0
  9
$CHAMFERC
 40
20.0
  9
$CHAMFERD
 40
0.0
  9
$SKPOLY
 70
     0
  9
$TDCREATE
 40
2457030.752211898
  9
$TDUCREATE
 40
2457030.314711898
  9
$TDUPDATE
 40
2457030.752237546
  9
$TDUUPDATE
 40
2457030.314737546
  9
$TDINDWG
 40
0.0000000116
  9
$TDUSRTIMER
 40
0.0000000116
  9
$USRTIMER
 70
     1
  9
$ANGBASE
 50
0.0
  9
$ANGDIR
 70
     0
  9
$PDMODE
 70
     0
  9
$PDSIZE
 40
-1.0
  9
$PLINEWID
 40
0.0
  9
$SPLFRAME
 70
     0
  9
$SPLINETYPE
 70
     6
  9
$SPLINESEGS
 70
     8
  9
$HANDSEED
  5
178
  9
$SURFTAB1
 70
     6
  9
$SURFTAB2
 70
     6
  9
$SURFTYPE
 70
     6
  9
$SURFU
 70
     6
  9
$SURFV
 70
     6
  9
$UCSBASE
  2

  9
$UCSNAME
  2

  9
$UCSORG
 10
0.0
 20
0.0
 30
0.0
  9
$UCSXDIR
 10
1.0
 20
0.0
 30
0.0
  9
$UCSYDIR
 10
0.0
 20
1.0
 30
0.0
  9
$UCSORTHOREF
  2

  9
$UCSORTHOVIEW
 70
     0
  9
$UCSORGTOP
 10
0.0
 20
0.0
 30
0.0
  9
$UCSORGBOTTOM
 10
0.0
 20
0.0
 30
0.0
  9
$UCSORGLEFT
 10
0.0
 20
0.0
 30
0.0
  9
$UCSORGRIGHT
 10
0.0
 20
0.0
 30
0.0
  9
$UCSORGFRONT
 10
0.0
 20
0.0
 30
0.0
  9
$UCSORGBACK
 10
0.0
 20
0.0
 30
0.0
  9
$PUCSBASE
  2

  9
$PUCSNAME
  2

  9
$PUCSORG
 10
0.0
 20
0.0
 30
0.0
  9
$PUCSXDIR
 10
1.0
 20
0.0
 30
0.0
  9
$PUCSYDIR
 10
0.0
 20
1.0
 30
0.0
  9
$PUCSORTHOREF
  2

  9
$PUCSORTHOVIEW
 70
     0
  9
$PUCSORGTOP
 10
0.0
 20
0.0
 30
0.0
  9
$PUCSORGBOTTOM
 10
0.0
 20
0.0
 30
0.0
  9
$PUCSORGLEFT
 10
0.0
 20
0.0
 30
0.0
  9
$PUCSORGRIGHT
 10
0.0
 20
0.0
 30
0.0
  9
$PUCSORGFRONT
 10
0.0
 20
0.0
 30
0.0
  9
$PUCSORGBACK
 10
0.0
 20
0.0
 30
0.0
  9
$USERI1
 70
     0
  9
$USERI2
 70
     0
  9
$USERI3
 70
     0
  9
$USERI4
 70
     0
  9
$USERI5
 70
     0
  9
$USERR1
 40
0.0
  9
$USERR2
 40
0.0
  9
$USERR3
 40
0.0
  9
$USERR4
 40
0.0
  9
$USERR5
 40
0.0
  9
$WORLDVIEW
 70
     1
  9
$SHADEDGE
 70
     3
  9
$SHADEDIF
 70
    70
  9
$TILEMODE
 70
     1
  9
$MAXACTVP
 70
    64
  9
$PINSBASE
 10
0.0
 20
0.0
 30
0.0
  9
$PLIMCHECK
 70
     0
  9
$PEXTMIN
 10
1.0000000000E+20
 20
1.0000000000E+20
 30
1.0000000000E+20
  9
$PEXTMAX
 10
-1.0000000000E+20
 20
-1.0000000000E+20
 30
-1.0000000000E+20
  9
$PLIMMIN
 10
0.0
 20
0.0
  9
$PLIMMAX
 10
420.0
 20
297.0
  9
$UNITMODE
 70
     0
  9
$VISRETAIN
 70
     1
  9
$PLINEGEN
 70
     0
  9
$PSLTSCALE
 70
     1
  9
$TREEDEPTH
 70
  3020
  9
$CMLSTYLE
  2
Standard
  9
$CMLJUST
 70
     0
  9
$CMLSCALE
 40
20.0
  9
$PROXYGRAPHICS
 70
     1
  9
$MEASUREMENT
 70
     1
  9
$CELWEIGHT
370
    -1
  9
$ENDCAPS
280
     0
  9
$JOINSTYLE
280
     0
  9
$LWDISPLAY
290
     1
  9
$INSUNITS
 70
     4
  9
$HYPERLINKBASE
  1

  9
$STYLESHEET
  1

  9
$XEDIT
290
     1
  9
$CEPSNTYPE
380
     0
  9
$PSTYLEMODE
290
     1
  9
$FINGERPRINTGUID
  2
{BEF47E05-56BD-4CF1-8D01-F20FE15BEC09}
  9
$VERSIONGUID
  2
{FAEB1C32-E019-11D5-929B-00C0DF256EC4}
  9
$EXTNAMES
290
     1
  9
$PSVPSCALE
 40
0.0
  9
$OLESTARTUP
290
     0
  0
ENDSEC
  0
SECTION
  2
CLASSES
  0
CLASS
  1
ACDBDICTIONARYWDFLT
  2
AcDbDictionaryWithDefault
  3
ObjectDBX Classes
 90
        0
280
     0
281
     0
  0
CLASS
  1
VISUALSTYLE
  2
AcDbVisualStyle
  3
ObjectDBX Classes
 90
     4095
280
     0
281
     0
  0
CLASS
  1
MATERIAL
  2
AcDbMaterial
  3
ObjectDBX Classes
 90
     1153
280
     0
281
     0
  0
CLASS
  1
ACDBPLACEHOLDER
  2
AcDbPlaceHolder
  3
ObjectDBX Classes
 90
        0
280
     0
281
     0
  0
CLASS
  1
LAYOUT
  2
AcDbLayout
  3
ObjectDBX Classes
 90
        0
280
     0
281
     0
  0
ENDSEC
  0
SECTION
  2
TABLES
  0
TABLE
  2
VPORT
  5
8
330
0
100
AcDbSymbolTable
 70
     1
  0
VPORT
  5
29
330
8
100
AcDbSymbolTableRecord
100
AcDbViewportTableRecord
  2
*Active
 70
     0
 10
0.0
 20
0.0
 11
1.0
 21
1.0
 12
30.0
 22
30.0
 13
0.0
 23
0.0
 14
10.0
 24
10.0
 15
10.0
 25
10.0
 16
0.0
 26
0.0
 36
1.0
 17
0.0
 27
0.0
 37
0.0
 40
61.2
 41
1.0
 42
50.0
 43
0.0
 44
0.0
 50
0.0
 51
0.0
 71
     0
 72
   100
 73
     1
 74
     3
 75
     0
 76
     0
 77
     0
 78
     0
281
     0
 65
     1
110
0.0
120
0.0
130
0.0
111
1.0
121
0.0
131
0.0
112
0.0
122
1.0
132
0.0
 79
     0
146
0.0
  0
ENDTAB
  0
TABLE
  2
LTYPE
  5
5
330
0
100
AcDbSymbolTable
 70
     6
  0
LTYPE
  5
14
330
5
100
AcDbSymbolTableRecord
100
AcDbLinetypeTableRecord
  2
ByBlock
 70
     0
  3

 72
    65
 73
     0
 40
0.0
  0
LTYPE
  5
15
330
5
100
AcDbSymbolTableRecord
100
AcDbLinetypeTableRecord
  2
ByLayer
 70
     0
  3

 72
    65
 73
     0
 40
0.0
  0
LTYPE
  5
16
330
5
100
AcDbSymbolTableRecord
100
AcDbLinetypeTableRecord
  2
Continuous
 70
     0
  3
Solid line
 72
    65
 73
     0
 40
0.0
  0
LTYPE
  5
3F
330
5
100
AcDbSymbolTableRecord
100
AcDbLinetypeTableRecord
  2
HIDDEN
 70
     0
  3
Hidden __ __ __ __ __ __ __ __ __ __ __ __ __ __
 72
    65
 73
     2
 40
1.905
 49
1.27
 74
     0
 49
-0.635
 74
     0
  0
LTYPE
  5
40
330
5
100
AcDbSymbolTableRecord
100
AcDbLinetypeTableRecord
  2
PHANTOM
 70
     0
  3
Phantom ______  __  __  ______  __  __  ______
 72
    65
 73
     6
 40
12.7
 49
6.35
 74
     0
 49
-1.27
 74
     0
 49
1.27
 74
     0
 49
-1.27
 74
     0
 49
1.27
 74
     0
 49
-1.27
 74
     0
  0
LTYPE
  5
41
330
5
100
AcDbSymbolTableRecord
100
AcDbLinetypeTableRecord
  2
CENTER
 70
     0
  3
Center ____ _ ____ _ ____ _ ____ _ ____ _ ____
 72
    65
 73
     4
 40
10.16
 49
6.35
 74
     0
 49
-1.27
 74
     0
 49
1.27
 74
     0
 49
-1.27
 74
     0
  0
LTYPE
  5
42
330
5
100
AcDbSymbolTableRecord
100
AcDbLinetypeTableRecord
  2
CENTERX2
 70
     0
  3
Center (2x) ________  __  ________  __  _____
 72
    65
 73
     4
 40
20.32
 49
12.7
 74
     0
 49
-2.54
 74
     0
 49
2.54
 74
     0
 49
-2.54
 74
     0
  0
LTYPE
  5
43
330
5
100
AcDbSymbolTableRecord
100
AcDbLinetypeTableRecord
  2
DOT2
 70
     0
  3
Dot (.5x) ........................................
 72
    65
 73
     2
 40
0.635
 49
0.0
 74
     0
 49
-0.635
 74
     0
  0
ENDTAB
  0
TABLE
  2
LAYER
  5
2
330
0
100
AcDbSymbolTable
 70
     1
  0
LAYER
  5
10
330
2
100
AcDbSymbolTableRecord
100
AcDbLayerTableRecord
  2
0
 70
     0
 62
     7
  6
Continuous
370
    -3
390
F
  0
ENDTAB
  0
TABLE
  2
STYLE
  5
3
330
0
100
AcDbSymbolTable
 70
     2
  0
STYLE
  5
11
330
3
100
AcDbSymbolTableRecord
100
AcDbTextStyleTableRecord
  2
Standard
 70
     0
 40
0.0
 41
1.0
 50
0.0
 71
     0
 42
3.5
  3
txt
  4

  0
STYLE
  5
175
330
3
100
AcDbSymbolTableRecord
100
AcDbTextStyleTableRecord
  2
SLDTEXTSTYLE0
 70
     0
 40
0.0
 41
0.7
 50
0.0
 71
     0
 42
0.2
  3
TXT
  4

  0
ENDTAB
  0
TABLE
  2
VIEW
  5
6
330
0
100
AcDbSymbolTable
 70
     0
  0
ENDTAB
  0
TABLE
  2
UCS
  5
7
330
0
100
AcDbSymbolTable
 70
     0
  0
ENDTAB
  0
TABLE
  2
APPID
  5
9
330
0
100
AcDbSymbolTable
 70
     1
  0
APPID
  5
12
330
9
100
AcDbSymbolTableRecord
100
AcDbRegAppTableRecord
  2
ACAD
 70
     0
  0
ENDTAB
  0
TABLE
  2
DIMSTYLE
  5
A
330
0
100
AcDbSymbolTable
 70
     1
100
AcDbDimStyleTable
  0
DIMSTYLE
105
27
330
A
100
AcDbSymbolTableRecord
100
AcDbDimStyleTableRecord
  2
ISO-25
 70
     0
 41
2.5
 42
0.625
 43
3.75
 44
1.25
 73
     0
 74
     0
 77
     1
 78
     8
140
2.5
141
2.5
143
0.0393700787
147
0.625
171
     3
172
     1
178
     0
271
     2
272
     2
274
     3
278
    44
283
     0
284
     8
340
11
  0
ENDTAB
  0
TABLE
  2
BLOCK_RECORD
  5
1
330
0
100
AcDbSymbolTable
 70
     1
  0
BLOCK_RECORD
  5
1F
330
1
100
AcDbSymbolTableRecord
100
AcDbBlockTableRecord
  2
*Model_Space
340
22
  0
BLOCK_RECORD
  5
1B
330
1
100
AcDbSymbolTableRecord
100
AcDbBlockTableRecord
  2
*Paper_Space
340
1E
  0
BLOCK_RECORD
  5
23
330
1
100
AcDbSymbolTableRecord
100
AcDbBlockTableRecord
  2
*Paper_Space0
340
26
  0
ENDTAB
  0
ENDSEC
  0
SECTION
  2
BLOCKS
  0
BLOCK
  5
20
330
1F
100
AcDbEntity
  8
0
100
AcDbBlockBegin
  2
*Model_Space
 70
     0
 10
0.0
 20
0.0
 30
0.0
  3
*Model_Space
  1

  0
ENDBLK
  5
21
330
1F
100
AcDbEntity
  8
0
100
AcDbBlockEnd
  0
BLOCK
  5
1C
330
1B
100
AcDbEntity
 67
     1
  8
0
100
AcDbBlockBegin
  2
*Paper_Space
 70
     0
 10
0.0
 20
0.0
 30
0.0
  3
*Paper_Space
  1

  0
ENDBLK
  5
1D
330
1B
100
AcDbEntity
 67
     1
  8
0
100
AcDbBlockEnd
  0
BLOCK
  5
24
330
23
100
AcDbEntity
  8
0
100
AcDbBlockBegin
  2
*Paper_Space0
 70
     0
 10
0.0
 20
0.0
 30
0.0
  3
*Paper_Space0
  1

  0
ENDBLK
  5
25
330
23
100
AcDbEntity
  8
0
100
AcDbBlockEnd
  0
ENDSEC
  0
SECTION
  2
ENTITIES
  0
SPLINE
  5
45
330
1F
100
AcDbEntity
  8
0
  6
Continuous
 62
     7
370
    15
100
AcDbSpline
210
0.0
220
0.0
230
1.0
 70
     8
 71
     3
 72
    15
 73
    11
 74
     0
 42
0.00000001
 43
0.00000001
 12
1.0
 22
0.0
 32
0.0
 13
1.0
 23
0.0
 33
0.0
 40
0.0
 40
0.0
 40
0.0
 40
0.0
 40
0.1048455053649531
 40
0.2203239058467017
 40
0.3505608370393011
 40
0.4995975317459226
 40
0.6490005938972333
 40
0.7793230053486326
 40
0.8937445342951412
 40
0.9999999999999999
 40
0.9999999999999999
 40
0.9999999999999999
 40
0.9999999999999999
 10
51.16191025904605
 20
38.88425740131579
 30
0.0
 10
51.1580191670427
 20
38.83698352066129
 30
0.0
 10
51.14984236837877
 20
38.73764148407062
 30
0.0
 10
51.0840105444659
 20
38.59171384433092
 30
0.0
 10
50.98402301641513
 20
38.44465351159086
 30
0.0
 10
50.85122086304247
 20
38.3041669947402
 30
0.0
 10
50.70550334400988
 20
38.17702564054409
 30
0.0
 10
50.55451123763988
 20
38.08357148927421
 30
0.0
 10
50.40719838081485
 20
38.02154898401154
 30
0.0
 10
50.30779566847249
 20
38.0131784292122
 30
0.0
 10
50.25993349095394
 20
38.00914802631579
 30
0.0
  0
SPLINE
  5
47
330
1F
100
AcDbEntity
  8
0
  6
Continuous
 62
     7
370
    15
100
AcDbSpline
210
0.0
220
0.0
230
1.0
 70
     8
 71
     3
 72
    11
 73
     7
 74
     0
 42
0.00000001
 43
0.00000001
 12
1.0
 22
0.0
 32
0.0
 13
1.0
 23
0.0
 33
0.0
 40
0.0
 40
0.0
 40
0.0
 40
0.0
 40
0.3027636988480771
 40
0.5541480256765604
 40
0.7792198213373264
 40
0.9999999999999999
 40
0.9999999999999999
 40
0.9999999999999999
 40
0.9999999999999999
 10
50.25993349095394
 20
39.2028279194079
 30
0.0
 10
50.34568928516327
 20
39.2016619151319
 30
0.0
 10
50.50264800984601
 20
39.19952777893944
 30
0.0
 10
50.72284783969685
 20
39.1858842067683
 30
0.0
 10
50.91898295142393
 20
39.15419592070806
 30
0.0
 10
51.03653266565806
 20
39.10714350346772
 30
0.0
 10
51.09474177631578
 20
39.08384375
 30
0.0
  0
SPLINE
  5
49
330
1F
100
AcDbEntity
  8
0
  6
Continuous
 62
     7
370
    15
100
AcDbSpline
210
0.0
220
0.0
230
1.0
 70
     8
 71
     3
 72
    13
 73
     9
 74
     0
 42
0.00000001
 43
0.00000001
 12
1.0
 22
0.0
 32
0.0
 13
1.0
 23
0.0
 33
0.0
 40
0.0
 40
0.0
 40
0.0
 40
0.0
 40
0.0774918272624863
 40
0.1717211397395666
 40
0.2921124987799489
 40
0.4340272271184527
 40
0.7269163002988013
 40
1.0
 40
1.0
 40
1.0
 40
1.0
 10
51.18877765213816
 20
41.02213425164474
 30
0.0
 10
51.18744170772886
 20
41.00666810641121
 30
0.0
 10
51.18448126783863
 20
40.97239527815687
 30
0.0
 10
51.16483136005995
 20
40.91693478088
 30
0.0
 10
51.13358484479841
 20
40.8530276650837
 30
0.0
 10
51.08062480940914
 20
40.75558240502746
 30
0.0
 10
51.00875200434614
 20
40.63387572163361
 30
0.0
 10
50.95025015357861
 20
40.53719328012141
 30
0.0
 10
50.92202282072368
 20
40.49054368832237
 30
0.0
  0
SPLINE
  5
4A
330
1F
100
AcDbEntity
  8
0
  6
Continuous
 62
     7
370
    15
100
AcDbSpline
210
0.0
220
0.0
230
1.0
 70
     8
 71
     3
 72
    13
 73
     9
 74
     0
 42
0.00000001
 43
0.00000001
 12
1.0
 22
0.0
 32
0.0
 13
1.0
 23
0.0
 33
0.0
 40
0.0
 40
0.0
 40
0.0
 40
0.0
 40
0.1165667725962091
 40
0.2212328352279287
 40
0.3256093646282776
 40
0.4400803839134096
 40
0.6990426458331565
 40
0.9999999999999999
 40
0.9999999999999999
 40
0.9999999999999999
 40
0.9999999999999999
 10
50.8567734375
 20
41.63240789473684
 30
0.0
 10
50.88711920511371
 20
41.63028749063401
 30
0.0
 10
50.94471263467194
 20
41.62626316190766
 30
0.0
 10
51.02502709357156
 20
41.59301962179492
 30
0.0
 10
51.08456075444163
 20
41.5308432117889
 30
0.0
 10
51.14067822159193
 20
41.418974611124
 30
0.0
 10
51.17954365652687
 20
41.24586904252399
 30
0.0
 10
51.18554950342052
 20
41.10035057409819
 30
0.0
 10
51.18877765213816
 20
41.02213425164474
 30
0.0
  0
SPLINE
  5
4B
330
1F
100
AcDbEntity
  8
0
  6
Continuous
 62
     7
370
    15
100
AcDbSpline
210
0.0
220
0.0
230
1.0
 70
     8
 71
     3
 72
    11
 73
     7
 74
     0
 42
0.00000001
 43
0.00000001
 12
1.0
 22
0.0
 32
0.0
 13
1.0
 23
0.0
 33
0.0
 40
0.0
 40
0.0
 40
0.0
 40
0.0
 40
0.2992503047692843
 40
0.5568776640081401
 40
0.7913146726778013
 40
1.0
 40
1.0
 40
1.0
 40
1.0
 10
50.60345230263157
 20
41.50958552631579
 30
0.0
 10
50.62539262847739
 20
41.52809724287628
 30
0.0
 10
50.66622158407033
 20
41.56254586769202
 30
0.0
 10
50.73086977382
 20
41.60263752614283
 30
0.0
 10
50.79428422776698
 20
41.62717810835583
 30
0.0
 10
50.8367666442062
 20
41.63073350558162
 30
0.0
 10
50.8567734375
 20
41.63240789473684
 30
0.0
  0
SPLINE
  5
4C
330
1F
100
AcDbEntity
  8
0
  6
Continuous
 62
     7
370
    15
100
AcDbSpline
210
0.0
220
0.0
230
1.0
 70
     8
 71
     3
 72
    11
 73
     7
 74
     0
 42
0.00000001
 43
0.00000001
 12
1.0
 22
0.0
 32
0.0
 13
1.0
 23
0.0
 33
0.0
 40
0.0
 40
0.0
 40
0.0
 40
0.0
 40
0.393204537896609
 40
0.6914725655637534
 40
0.8983242824349674
 40
1.0
 40
1.0
 40
1.0
 40
1.0
 10
50.37891766036184
 20
41.39252045641448
 30
0.0
 10
50.40826808432753
 20
41.40801820063357
 30
0.0
 10
50.45988247583101
 20
41.43527186615063
 30
0.0
 10
50.52785037214319
 20
41.46893132623063
 30
0.0
 10
50.57237501663435
 20
41.49430657941663
 30
0.0
 10
50.5957492770982
 20
41.50579838357438
 30
0.0
 10
50.60345230263158
 20
41.5095855263158
 30
0.0
  0
SPLINE
  5
4D
330
1F
100
AcDbEntity
  8
0
  6
Continuous
 62
     7
370
    15
100
AcDbSpline
210
0.0
220
0.0
230
1.0
 70
     8
 71
     3
 72
    13
 73
     9
 74
     0
 42
0.00000001
 43
0.00000001
 12
1.0
 22
0.0
 32
0.0
 13
1.0
 23
0.0
 33
0.0
 40
0.0
 40
0.0
 40
0.0
 40
0.0
 40
0.066032274537674
 40
0.1602363834493751
 40
0.2900285161102304
 40
0.4493131385131749
 40
0.7656524519880987
 40
0.9999999999999999
 40
0.9999999999999999
 40
0.9999999999999999
 40
0.9999999999999999
 10
49.80894510690789
 20
41.21020600328948
 30
0.0
 10
49.82101753504497
 20
41.21554081130496
 30
0.0
 10
49.85031294002208
 20
41.22848645567029
 30
0.0
 10
49.90595549710176
 20
41.24497285673885
 30
0.0
 10
49.97963305451572
 20
41.26560698829185
 30
0.0
 10
50.09625976873239
 20
41.29738482789958
 30
0.0
 10
50.23435250726497
 20
41.33129593770256
 30
0.0
 10
50.33576224099895
 20
41.3742437851441
 30
0.0
 10
50.37891766036184
 20
41.39252045641448
 30
0.0
  0
SPLINE
  5
4E
330
1F
100
AcDbEntity
  8
0
  6
Continuous
 62
     7
370
    15
100
AcDbSpline
210
0.0
220
0.0
230
1.0
 70
     8
 71
     3
 72
    15
 73
    11
 74
     0
 42
0.00000001
 43
0.00000001
 12
1.0
 22
0.0
 32
0.0
 13
1.0
 23
0.0
 33
0.0
 40
0.0
 40
0.0
 40
0.0
 40
0.0
 40
0.1984149542870259
 40
0.3742073640634591
 40
0.5306238702461166
 40
0.6654185469358804
 40
0.7787732589976101
 40
0.8723920891277359
 40
0.9465355390701669
 40
1.0
 40
1.0
 40
1.0
 40
1.0
 10
49.22553885690789
 20
40.287119140625
 30
0.0
 10
49.25872408964694
 20
40.35176811366664
 30
0.0
 10
49.32131089674388
 20
40.4736950212339
 30
0.0
 10
49.4112563872016
 20
40.64599217133789
 30
0.0
 10
49.49538242509492
 20
40.79494245003338
 30
0.0
 10
49.57159658178549
 20
40.92204780023154
 30
0.0
 10
49.64110810051918
 20
41.02622447741052
 30
0.0
 10
49.70145138920945
 20
41.10960176209436
 30
0.0
 10
49.75571817640432
 20
41.17044374157591
 30
0.0
 10
49.79322901992012
 20
41.19846557118098
 30
0.0
 10
49.8089451069079
 20
41.21020600328949
 30
0.0
  0
SPLINE
  5
4F
330
1F
100
AcDbEntity
  8
0
  6
Continuous
 62
     7
370
    15
100
AcDbSpline
210
0.0
220
0.0
230
1.0
 70
     8
 71
     3
 72
     9
 73
     5
 74
     0
 42
0.00000001
 43
0.00000001
 12
1.0
 22
0.0
 32
0.0
 13
1.0
 23
0.0
 33
0.0
 40
0.0
 40
0.0
 40
0.0
 40
0.0
 40
0.5114162026602237
 40
0.9999999999999999
 40
0.9999999999999999
 40
0.9999999999999999
 40
0.9999999999999999
 10
48.81293246299342
 20
39.44079625822368
 30
0.0
 10
48.8823401867497
 20
39.58552425390418
 30
0.0
 10
49.01805689536247
 20
39.86851879910562
 30
0.0
 10
49.15743901272544
 20
40.14972590499207
 30
0.0
 10
49.22553885690789
 20
40.287119140625
 30
0.0
  0
SPLINE
  5
50
330
1F
100
AcDbEntity
  8
0
  6
Continuous
 62
     7
370
    15
100
AcDbSpline
210
0.0
220
0.0
230
1.0
 70
     8
 71
     3
 72
    19
 73
    15
 74
     0
 42
0.00000001
 43
0.00000001
 12
1.0
 22
0.0
 32
0.0
 13
1.0
 23
0.0
 33
0.0
 40
0.0
 40
0.0
 40
0.0
 40
0.0
 40
0.1312753049504604
 40
0.2486066540643726
 40
0.3500801605929507
 40
0.4386370882435645
 40
0.5114232769468307
 40
0.5688085673709679
 40
0.6133312406927078
 40
0.6412146795541648
 40
0.7337283179845256
 40
0.8364448210088955
 40
0.931864636881618
 40
1.0
 40
1.0
 40
1.0
 40
1.0
 10
48.07024095394737
 20
38.70002384868421
 30
0.0
 10
48.10849696201991
 20
38.72707183319707
 30
0.0
 10
48.18094545618538
 20
38.77829478736552
 30
0.0
 10
48.28487390149644
 20
38.84768925515247
 30
0.0
 10
48.37336857614677
 20
38.91252422343379
 30
0.0
 10
48.45005358385701
 20
38.96657632972656
 30
0.0
 10
48.51119996385012
 20
39.01514782103825
 30
0.0
 10
48.55989343642663
 20
39.05405500521513
 30
0.0
 10
48.59595372069376
 20
39.08318912933193
 30
0.0
 10
48.63777251058114
 20
39.1247736467
 30
0.0
 10
48.6818513315111
 20
39.19191165427178
 30
0.0
 10
48.73105085855403
 20
39.28303699596962
 30
0.0
 10
48.77634521615482
 20
39.36664183539814
 30
0.0
 10
48.80217291568454
 20
39.41898898685193
 30
0.0
 10
48.81293246299342
 20
39.44079625822368
 30
0.0
  0
SPLINE
  5
51
330
1F
100
AcDbEntity
  8
0
  6
Continuous
 62
     7
370
    15
100
AcDbSpline
210
0.0
220
0.0
230
1.0
 70
     8
 71
     3
 72
    11
 73
     7
 74
     0
 42
0.00000001
 43
0.00000001
 12
1.0
 22
0.0
 32
0.0
 13
1.0
 23
0.0
 33
0.0
 40
0.0
 40
0.0
 40
0.0
 40
0.0
 40
0.2034100822144955
 40
0.4311872548123199
 40
0.6948096097236195
 40
1.0
 40
1.0
 40
1.0
 40
1.0
 10
47.64611996299342
 20
38.20489617598685
 30
0.0
 10
47.66138934729029
 20
38.24753337041201
 30
0.0
 10
47.69375728021653
 20
38.33791539384434
 30
0.0
 10
47.78941392561368
 20
38.46060164336228
 30
0.0
 10
47.91217493052576
 20
38.58758663700963
 30
0.0
 10
48.01504637921411
 20
38.66076225439447
 30
0.0
 10
48.07024095394737
 20
38.70002384868422
 30
0.0
  0
SPLINE
  5
52
330
1F
100
AcDbEntity
  8
0
  6
Continuous
 62
     7
370
    15
100
AcDbSpline
210
0.0
220
0.0
230
1.0
 70
     8
 71
     3
 72
    11
 73
     7
 74
     0
 42
0.00000001
 43
0.00000001
 12
1.0
 22
0.0
 32
0.0
 13
1.0
 23
0.0
 33
0.0
 40
0.0
 40
0.0
 40
0.0
 40
0.0
 40
0.2647498407092385
 40
0.5148630727066533
 40
0.7532674493329027
 40
1.0
 40
1.0
 40
1.0
 40
1.0
 10
47.87257370476973
 20
38.04944911595395
 30
0.0
 10
47.84794046059247
 20
38.05478800388136
 30
0.0
 10
47.80003581311895
 20
38.06517062105601
 30
0.0
 10
47.73533817727665
 20
38.09792478254167
 30
0.0
 10
47.68358608509676
 20
38.14614966011749
 30
0.0
 10
47.65875078330843
 20
38.18509117230827
 30
0.0
 10
47.64611996299342
 20
38.20489617598685
 30
0.0
  0
SPLINE
  5
54
330
1F
100
AcDbEntity
  8
0
  6
Continuous
 62
     7
370
    15
100
AcDbSpline
210
0.0
220
0.0
230
1.0
 70
     8
 71
     3
 72
     9
 73
     5
 74
     0
 42
0.00000001
 43
0.00000001
 12
1.0
 22
0.0
 32
0.0
 13
1.0
 23
0.0
 33
0.0
 40
0.0
 40
0.0
 40
0.0
 40
0.0
 40
0.4997448405237864
 40
1.0
 40
1.0
 40
1.0
 40
1.0
 10
47.77853782894736
 20
37.19928803453948
 30
0.0
 10
47.83692617437911
 20
37.34149727740392
 30
0.0
 10
47.95376248902828
 20
37.62606098138409
 30
0.0
 10
48.07617296466594
 20
37.90827173193247
 30
0.0
 10
48.13740943667762
 20
38.04944911595395
 30
0.0
  0
SPLINE
  5
55
330
1F
100
AcDbEntity
  8
0
  6
Continuous
 62
     7
370
    15
100
AcDbSpline
210
0.0
220
0.0
230
1.0
 70
     8
 71
     3
 72
    11
 73
     7
 74
     0
 42
0.00000001
 43
0.00000001
 12
1.0
 22
0.0
 32
0.0
 13
1.0
 23
0.0
 33
0.0
 40
0.0
 40
0.0
 40
0.0
 40
0.0
 40
0.1617947835384704
 40
0.3809342162042887
 40
0.6602086944611486
 40
1.0
 40
1.0
 40
1.0
 40
1.0
 10
47.54056949013157
 20
36.38942804276316
 30
0.0
 10
47.54454649704784
 20
36.43503282032513
 30
0.0
 10
47.55391007465741
 20
36.54240599896414
 30
0.0
 10
47.60301246171222
 20
36.72313426993279
 30
0.0
 10
47.67859047958818
 20
36.94742751882118
 30
0.0
 10
47.7431193701367
 20
37.11003592971435
 30
0.0
 10
47.77853782894736
 20
37.19928803453948
 30
0.0
  0
SPLINE
  5
56
330
1F
100
AcDbEntity
  8
0
  6
Continuous
 62
     7
370
    15
100
AcDbSpline
210
0.0
220
0.0
230
1.0
 70
     8
 71
     3
 72
    19
 73
    15
 74
     0
 42
0.00000001
 43
0.00000001
 12
1.0
 22
0.0
 32
0.0
 13
1.0
 23
0.0
 33
0.0
 40
0.0
 40
0.0
 40
0.0
 40
0.0
 40
0.0639748249845989
 40
0.1259978354700637
 40
0.1858874851917927
 40
0.2447226130181454
 40
0.3030808202967158
 40
0.3624894710413193
 40
0.4235802977560264
 40
0.4871695527554683
 40
0.6143070383727425
 40
0.7395637013908246
 40
0.8666542857852116
 40
1.0
 40
1.0
 40
1.0
 40
1.0
 10
48.83979985608553
 20
34.87717763157896
 30
0.0
 10
48.79237874355713
 20
34.87873795641416
 30
0.0
 10
48.69898329408778
 20
34.88181100197407
 30
0.0
 10
48.56262536094474
 20
34.90348641138811
 30
0.0
 10
48.43272987224079
 20
34.93733033029616
 30
0.0
 10
48.31120500234782
 20
34.98795631881123
 30
0.0
 10
48.197004285371
 20
35.05226716189262
 30
0.0
 10
48.08837741496178
 20
35.12884227509318
 30
0.0
 10
47.98884198632247
 20
35.22259473254005
 30
0.0
 10
47.8641693450657
 20
35.36171928750971
 30
0.0
 10
47.73590497087792
 20
35.55948448386191
 30
0.0
 10
47.62294824529303
 20
35.81805041179103
 30
0.0
 10
47.553262082943
 20
36.09731450526166
 30
0.0
 10
47.54486756063394
 20
36.29051014651238
 30
0.0
 10
47.54056949013157
 20
36.38942804276316
 30
0.0
  0
SPLINE
  5
57
330
1F
100
AcDbEntity
  8
0
  6
Continuous
 62
     7
370
    15
100
AcDbSpline
210
0.0
220
0.0
230
1.0
 70
     8
 71
     3
 72
    11
 73
     7
 74
     0
 42
0.00000001
 43
0.00000001
 12
1.0
 22
0.0
 32
0.0
 13
1.0
 23
0.0
 33
0.0
 40
0.0
 40
0.0
 40
0.0
 40
0.0
 40
0.27481837256707
 40
0.5310703723952275
 40
0.7716166493366098
 40
1.0
 40
1.0
 40
1.0
 40
1.0
 10
50.15246391858552
 20
35.20918184621711
 30
0.0
 10
50.03826695766892
 20
35.15810747463294
 30
0.0
 10
49.81758803437175
 20
35.05940924975194
 30
0.0
 10
49.4815060955049
 20
34.95600246131001
 30
0.0
 10
49.15707556750382
 20
34.89064676265863
 30
0.0
 10
48.94371372592025
 20
34.88158902987838
 30
0.0
 10
48.83979985608552
 20
34.87717763157895
 30
0.0
  0
SPLINE
  5
58
330
1F
100
AcDbEntity
  8
0
  6
Continuous
 62
     7
370
    15
100
AcDbSpline
210
0.0
220
0.0
230
1.0
 70
     8
 71
     3
 72
    15
 73
    11
 74
     0
 42
0.00000001
 43
0.00000001
 12
1.0
 22
0.0
 32
0.0
 13
1.0
 23
0.0
 33
0.0
 40
0.0
 40
0.0
 40
0.0
 40
0.0
 40
0.1018678460694716
 40
0.2069068626423831
 40
0.3183164314305607
 40
0.4358717519950316
 40
0.5610377667068173
 40
0.697811188370463
 40
0.8430464748935981
 40
1.0
 40
1.0
 40
1.0
 40
1.0
 10
51.12160916940789
 20
36.09772491776316
 30
0.0
 10
51.10473555926818
 20
36.05502759256276
 30
0.0
 10
51.07046305945428
 20
35.96830376417816
 30
0.0
 10
50.99797256080949
 20
35.84396821578645
 30
0.0
 10
50.90516384399018
 20
35.72520389750311
 30
0.0
 10
50.79290927074879
 20
35.61148988311645
 30
0.0
 10
50.66009299568533
 20
35.50361018294895
 30
0.0
 10
50.50934501792231
 20
35.39910516156604
 30
0.0
 10
50.3392691986997
 20
35.29791561640068
 30
0.0
 10
50.21632156114327
 20
35.23951465787918
 30
0.0
 10
50.15246391858552
 20
35.20918184621711
 30
0.0
  0
SPLINE
  5
5B
330
1F
100
AcDbEntity
  8
0
  6
Continuous
 62
     7
370
    15
100
AcDbSpline
210
0.0
220
0.0
230
1.0
 70
     8
 71
     3
 72
    15
 73
    11
 74
     0
 42
0.00000001
 43
0.00000001
 12
1.0
 22
0.0
 32
0.0
 13
1.0
 23
0.0
 33
0.0
 40
0.0
 40
0.0
 40
0.0
 40
0.0
 40
0.2284717985570956
 40
0.4299233846740147
 40
0.6001859184107836
 40
0.7381432542794814
 40
0.849106861634043
 40
0.9288536412653009
 40
0.9784546838772532
 40
1.0
 40
1.0
 40
1.0
 40
1.0
 10
50.32518287417763
 20
36.18984169407895
 30
0.0
 10
50.36537559858996
 20
36.20486251488545
 30
0.0
 10
50.44100765570929
 20
36.23312771944242
 30
0.0
 10
50.54819929799012
 20
36.26802332215444
 30
0.0
 10
50.63822690368319
 20
36.3004907805548
 30
0.0
 10
50.71146927086809
 20
36.32951081857999
 30
0.0
 10
50.77101704878204
 20
36.34605882594909
 30
0.0
 10
50.81268937303953
 20
36.36372794676109
 30
0.0
 10
50.84031199756809
 20
36.37032731243037
 30
0.0
 10
50.85294712917495
 20
36.3746770970186
 30
0.0
 10
50.8567734375
 20
36.37599434621711
 30
0.0
  0
SPLINE
  5
5C
330
1F
100
AcDbEntity
  8
0
  6
Continuous
 62
     7
370
    15
100
AcDbSpline
210
0.0
220
0.0
230
1.0
 70
     8
 71
     3
 72
    11
 73
     7
 74
     0
 42
0.00000001
 43
0.00000001
 12
1.0
 22
0.0
 32
0.0
 13
1.0
 23
0.0
 33
0.0
 40
0.0
 40
0.0
 40
0.0
 40
0.0
 40
0.2212764964562803
 40
0.4625877597861852
 40
0.7214505173294526
 40
1.0
 40
1.0
 40
1.0
 40
1.0
 10
49.78207771381579
 20
36.08429122121711
 30
0.0
 10
49.82311380001015
 20
36.08518954246037
 30
0.0
 10
49.90890145250398
 20
36.08706752054726
 30
0.0
 10
50.04074699471924
 20
36.11086930914994
 30
0.0
 10
50.18157764059514
 20
36.14236890091242
 30
0.0
 10
50.27615954085044
 20
36.1736356373405
 30
0.0
 10
50.32518287417764
 20
36.18984169407896
 30
0.0
  0
SPLINE
  5
5D
330
1F
100
AcDbEntity
  8
0
  6
Continuous
 62
     7
370
    15
100
AcDbSpline
210
0.0
220
0.0
230
1.0
 70
     8
 71
     3
 72
    15
 73
    11
 74
     0
 42
0.00000001
 43
0.00000001
 12
1.0
 22
0.0
 32
0.0
 13
1.0
 23
0.0
 33
0.0
 40
0.0
 40
0.0
 40
0.0
 40
0.0
 40
0.1302617728301336
 40
0.2542446272633326
 40
0.3722652403982847
 40
0.4929498965648192
 40
0.6136345527313584
 40
0.7353865150998187
 40
0.8613869096151127
 40
1.0
 40
1.0
 40
1.0
 40
1.0
 10
49.19867146381578
 20
36.65426377467106
 30
0.0
 10
49.20026580582645
 20
36.61439813617781
 30
0.0
 10
49.20337763887945
 20
36.53658847506912
 30
0.0
 10
49.23477744666614
 20
36.42607732356282
 30
0.0
 10
49.28645171329769
 20
36.32745133205539
 30
0.0
 10
49.35488279921547
 20
36.24056328846959
 30
0.0
 10
49.44252227967671
 20
36.17090558045582
 30
0.0
 10
49.54402621018141
 20
36.12094821258654
 30
0.0
 10
49.65856453451185
 20
36.0883717478181
 30
0.0
 10
49.73961884692569
 20
36.08569394226089
 30
0.0
 10
49.78207771381579
 20
36.08429122121711
 30
0.0
  0
SPLINE
  5
5E
330
1F
100
AcDbEntity
  8
0
  6
Continuous
 62
     7
370
    15
100
AcDbSpline
210
0.0
220
0.0
230
1.0
 70
     8
 71
     3
 72
    15
 73
    11
 74
     0
 42
0.00000001
 43
0.00000001
 12
1.0
 22
0.0
 32
0.0
 13
1.0
 23
0.0
 33
0.0
 40
0.0
 40
0.0
 40
0.0
 40
0.0
 40
0.1807199349425127
 40
0.3430435970819068
 40
0.4866399843799602
 40
0.6127221935735145
 40
0.7237211399155065
 40
0.825007628754703
 40
0.9169579752041401
 40
1.0
 40
1.0
 40
1.0
 40
1.0
 10
49.63622615131578
 20
38.00914802631579
 30
0.0
 10
49.59874299140895
 20
37.93128889257132
 30
0.0
 10
49.52759224642596
 20
37.78349624692941
 30
0.0
 10
49.43249394114073
 20
37.57101301484666
 30
0.0
 10
49.35834603423216
 20
37.37818217960452
 30
0.0
 10
49.29648095125326
 20
37.20688397255775
 30
0.0
 10
49.25418748922306
 20
37.05054331001194
 30
0.0
 10
49.2232465655227
 20
36.9084232510336
 30
0.0
 10
49.20203206760537
 20
36.77772224996772
 30
0.0
 10
49.19975299150165
 20
36.69399584886014
 30
0.0
 10
49.19867146381578
 20
36.65426377467106
 30
0.0
  0
SPLINE
  5
5F
330
1F
100
AcDbEntity
  8
0
  6
Continuous
 62
     7
370
    15
100
AcDbSpline
210
0.0
220
0.0
230
1.0
 70
     8
 71
     3
 72
    13
 73
     9
 74
     0
 42
0.00000001
 43
0.00000001
 12
1.0
 22
0.0
 32
0.0
 13
1.0
 23
0.0
 33
0.0
 40
0.0
 40
0.0
 40
0.0
 40
0.0
 40
0.2607721152035875
 40
0.5201109822375282
 40
0.646514183168048
 40
0.7683584005702094
 40
0.8858955255396174
 40
1.0
 40
1.0
 40
1.0
 40
1.0
 10
36.25242619243421
 20
34.817685546875
 30
0.0
 10
36.17857567120724
 20
34.62651833904961
 30
0.0
 10
36.03128052385558
 20
34.24523461108641
 30
0.0
 10
35.85241648791282
 20
33.7697584458961
 30
0.0
 10
35.72651551378869
 20
33.39084512002292
 30
0.0
 10
35.66446670164382
 20
33.1098046402704
 30
0.0
 10
35.62368230562792
 20
32.8345280192006
 30
0.0
 10
35.61805641640041
 20
32.65243897713763
 30
0.0
 10
35.61528515625
 20
32.56274362664474
 30
0.0
  0
SPLINE
  5
60
330
1F
100
AcDbEntity
  8
0
  6
Continuous
 62
     7
370
    15
100
AcDbSpline
210
0.0
220
0.0
230
1.0
 70
     8
 71
     3
 72
     9
 73
     5
 74
     0
 42
0.00000001
 43
0.00000001
 12
1.0
 22
0.0
 32
0.0
 13
1.0
 23
0.0
 33
0.0
 40
0.0
 40
0.0
 40
0.0
 40
0.0
 40
0.5012773529917841
 40
1.0
 40
1.0
 40
1.0
 40
1.0
 10
38.81250493421052
 20
35.88470487253289
 30
0.0
 10
38.38445058012087
 20
35.70709664193826
 30
0.0
 10
37.53052340480587
 20
35.35278534194713
 30
0.0
 10
36.67773238645233
 20
34.99574810350925
 30
0.0
 10
36.25242619243421
 20
34.817685546875
 30
0.0
  0
SPLINE
  5
61
330
1F
100
AcDbEntity
  8
0
  6
Continuous
 62
     7
370
    15
100
AcDbSpline
210
0.0
220
0.0
230
1.0
 70
     8
 71
     3
 72
    15
 73
    11
 74
     0
 42
0.00000001
 43
0.00000001
 12
1.0
 22
0.0
 32
0.0
 13
1.0
 23
0.0
 33
0.0
 40
0.0
 40
0.0
 40
0.0
 40
0.0
 40
0.1030480762947021
 40
0.2113821263674532
 40
0.3261202039148025
 40
0.4462455809780292
 40
0.5736901526256988
 40
0.7084173470620296
 40
0.850430276410805
 40
1.0
 40
1.0
 40
1.0
 40
1.0
 10
40.91008069490132
 20
37.28564751233553
 30
0.0
 10
40.85233229568308
 20
37.21997317977085
 30
0.0
 10
40.7338732243448
 20
37.08525567155088
 30
0.0
 10
40.52961403337162
 20
36.89814810860846
 30
0.0
 10
40.30417616319853
 20
36.71379564961131
 30
0.0
 10
40.05228435902436
 20
36.53742891614304
 30
0.0
 10
39.77802411588512
 20
36.36421469438281
 30
0.0
 10
39.47763296107546
 20
36.19884665677092
 30
0.0
 10
39.15574764090017
 20
36.03383679158608
 30
0.0
 10
38.9288790477713
 20
35.93526703902671
 30
0.0
 10
38.81250493421052
 20
35.88470487253289
 30
0.0
  0
SPLINE
  5
62
330
1F
100
AcDbEntity
  8
0
  6
Continuous
 62
     7
370
    15
100
AcDbSpline
210
0.0
220
0.0
230
1.0
 70
     8
 71
     3
 72
    15
 73
    11
 74
     0
 42
0.00000001
 43
0.00000001
 12
1.0
 22
0.0
 32
0.0
 13
1.0
 23
0.0
 33
0.0
 40
0.0
 40
0.0
 40
0.0
 40
0.0
 40
0.1447260181641229
 40
0.2818783248877953
 40
0.4121135117299711
 40
0.5374443483565394
 40
0.6575281352289919
 40
0.7736589312786366
 40
0.8873028322073504
 40
1.0
 40
1.0
 40
1.0
 40
1.0
 10
41.79094736842105
 20
40.12783388157895
 30
0.0
 10
41.78869230877274
 20
39.98123075361214
 30
0.0
 10
41.78430019984685
 20
39.69569644085482
 30
0.0
 10
41.74089475912163
 20
39.28009902257266
 30
0.0
 10
41.67233083368226
 20
38.88803076121208
 30
0.0
 10
41.57692516423456
 20
38.51935841522116
 30
0.0
 10
41.45492852726779
 20
38.17346170609051
 30
0.0
 10
41.30153745865635
 20
37.85359896235967
 30
0.0
 10
41.12438452708248
 20
37.55435135602456
 30
0.0
 10
40.98131583103891
 20
37.37496534996384
 30
0.0
 10
40.91008069490132
 20
37.28564751233553
 30
0.0
  0
SPLINE
  5
63
330
1F
100
AcDbEntity
  8
0
  6
Continuous
 62
     7
370
    15
100
AcDbSpline
210
0.0
220
0.0
230
1.0
 70
     8
 71
     3
 72
    15
 73
    11
 74
     0
 42
0.00000001
 43
0.00000001
 12
1.0
 22
0.0
 32
0.0
 13
1.0
 23
0.0
 33
0.0
 40
0.0
 40
0.0
 40
0.0
 40
0.0
 40
0.1293131157472031
 40
0.2539260582115588
 40
0.3751437607409126
 40
0.4955733635009298
 40
0.615882107518273
 40
0.7391255246544476
 40
0.8670217931683648
 40
1.0
 40
1.0
 40
1.0
 40
1.0
 10
40.29213065378289
 20
43.18495939555921
 30
0.0
 10
40.4115378054632
 20
43.08973099258486
 30
0.0
 10
40.64601198987405
 20
42.90273547509743
 30
0.0
 10
40.95239196865219
 20
42.58125872415054
 30
0.0
 10
41.21265565499871
 20
42.23502545463598
 30
0.0
 10
41.42465888368871
 20
41.86290400658888
 30
0.0
 10
41.58947456285448
 20
41.46502790636676
 30
0.0
 10
41.70579880877609
 20
41.04155405640004
 30
0.0
 10
41.77890028315174
 20
40.5928701261757
 30
0.0
 10
41.78687985823475
 20
40.28484610649601
 30
0.0
 10
41.79094736842105
 20
40.12783388157895
 30
0.0
  0
SPLINE
  5
64
330
1F
100
AcDbEntity
  8
0
  6
Continuous
 62
     7
370
    15
100
AcDbSpline
210
0.0
220
0.0
230
1.0
 70
     8
 71
     3
 72
    15
 73
    11
 74
     0
 42
0.00000001
 43
0.00000001
 12
1.0
 22
0.0
 32
0.0
 13
1.0
 23
0.0
 33
0.0
 40
0.0
 40
0.0
 40
0.0
 40
0.0
 40
0.1376392007065635
 40
0.2699470764054276
 40
0.3981779356145206
 40
0.5225910302587027
 40
0.6438771968336813
 40
0.7631119205147749
 40
0.8817510002151878
 40
1.0
 40
1.0
 40
1.0
 40
1.0
 10
36.96825030838816
 20
44.21167763157894
 30
0.0
 10
37.13085979147652
 20
44.20900713859483
 30
0.0
 10
37.4497802322388
 20
44.20376959166106
 30
0.0
 10
37.91805496745938
 20
44.15439116721041
 30
0.0
 10
38.3661518746256
 20
44.07492235548231
 30
0.0
 10
38.79335884066109
 20
43.96102168475569
 30
0.0
 10
39.20045036147162
 20
43.81770614227454
 30
0.0
 10
39.58597489727013
 20
43.63957564907177
 30
0.0
 10
39.9525604006313
 20
43.43165983094001
 30
0.0
 10
40.17906489654237
 20
43.26710254938089
 30
0.0
 10
40.29213065378289
 20
43.18495939555921
 30
0.0
  0
SPLINE
  5
65
330
1F
100
AcDbEntity
  8
0
  6
Continuous
 62
     7
370
    15
100
AcDbSpline
210
0.0
220
0.0
230
1.0
 70
     8
 71
     3
 72
    23
 73
    19
 74
     0
 42
0.00000001
 43
0.00000001
 12
1.0
 22
0.0
 32
0.0
 13
1.0
 23
0.0
 33
0.0
 40
0.0
 40
0.0
 40
0.0
 40
0.0
 40
0.0565080854014253
 40
0.1143086675430673
 40
0.1735113450478529
 40
0.2343522773783876
 40
0.2969978656614516
 40
0.3612871672779326
 40
0.4276657688296974
 40
0.4960680796295372
 40
0.5648925836921639
 40
0.631695073193812
 40
0.6965839667245913
 40
0.760020230710775
 40
0.8221390766036656
 40
0.8823872906097765
 40
0.9416389825733713
 40
0.9999999999999999
 40
0.9999999999999999
 40
0.9999999999999999
 40
0.9999999999999999
 10
31.98051069078947
 20
42.27722532894737
 30
0.0
 10
32.05640047043253
 20
42.34669693246254
 30
0.0
 10
32.20991583959623
 20
42.48722914787003
 30
0.0
 10
32.45922969047432
 20
42.68146966129547
 30
0.0
 10
32.72194068907685
 20
42.87070159142947
 30
0.0
 10
33.00283636614654
 20
43.04901092437694
 30
0.0
 10
33.30038578137285
 20
43.21734849411524
 30
0.0
 10
33.61390630848244
 20
43.37733835455403
 30
0.0
 10
33.94448822327674
 20
43.525867335139
 30
0.0
 10
34.28697856733094
 20
43.66758760689822
 30
0.0
 10
34.63616540496413
 20
43.79428714177442
 30
0.0
 10
34.98368313586759
 20
43.90600845367132
 30
0.0
 10
35.32612348238532
 20
44.00060294863188
 30
0.0
 10
35.66421297967776
 20
44.07754839106681
 30
0.0
 10
35.99724716562474
 20
44.13720369645527
 30
0.0
 10
36.32522330036415
 20
44.17886705711665
 30
0.0
 10
36.64786670663666
 20
44.20818105284749
 30
0.0
 10
36.86199630500226
 20
44.21051800453706
 30
0.0
 10
36.96825030838816
 20
44.21167763157894
 30
0.0
  0
SPLINE
  5
66
330
1F
100
AcDbEntity
  8
0
  6
Continuous
 62
     7
370
    15
100
AcDbSpline
210
0.0
220
0.0
230
1.0
 70
     8
 71
     3
 72
    11
 73
     7
 74
     0
 42
0.00000001
 43
0.00000001
 12
1.0
 22
0.0
 32
0.0
 13
1.0
 23
0.0
 33
0.0
 40
0.0
 40
0.0
 40
0.0
 40
0.0
 40
0.2804455904361111
 40
0.5233335601210356
 40
0.7547740093865628
 40
0.9999999999999999
 40
0.9999999999999999
 40
0.9999999999999999
 40
0.9999999999999999
 10
31.90182761101974
 20
41.5729158100329
 30
0.0
 10
31.90297980634458
 20
41.63944261415979
 30
0.0
 10
31.9051298935696
 20
41.76358687042379
 30
0.0
 10
31.91014739710798
 20
41.94266283199077
 30
0.0
 10
31.93297365584963
 20
42.11247014422992
 30
0.0
 10
31.96436241718034
 20
42.22125819080537
 30
0.0
 10
31.98051069078947
 20
42.27722532894737
 30
0.0
  0
SPLINE
  5
67
330
1F
100
AcDbEntity
  8
0
  6
Continuous
 62
     7
370
    15
100
AcDbSpline
210
0.0
220
0.0
230
1.0
 70
     8
 71
     3
 72
    11
 73
     7
 74
     0
 42
0.00000001
 43
0.00000001
 12
1.0
 22
0.0
 32
0.0
 13
1.0
 23
0.0
 33
0.0
 40
0.0
 40
0.0
 40
0.0
 40
0.0
 40
0.2694050569953684
 40
0.5906109511678193
 40
0.8705465543702451
 40
1.0
 40
1.0
 40
1.0
 40
1.0
 10
32.00737808388158
 20
41.34838116776316
 30
0.0
 10
31.99713834805107
 20
41.36821580376349
 30
0.0
 10
31.97468999394067
 20
41.41169885254096
 30
0.0
 10
31.94169810379834
 20
41.4757080797113
 30
0.0
 10
31.91433171084283
 20
41.53001166214564
 30
0.0
 10
31.90483164062623
 20
41.56260836428967
 30
0.0
 10
31.90182761101974
 20
41.5729158100329
 30
0.0
  0
SPLINE
  5
69
330
1F
100
AcDbEntity
  8
0
  6
Continuous
 62
     7
370
    15
100
AcDbSpline
210
0.0
220
0.0
230
1.0
 70
     8
 71
     3
 72
     9
 73
     5
 74
     0
 42
0.00000001
 43
0.00000001
 12
1.0
 22
0.0
 32
0.0
 13
1.0
 23
0.0
 33
0.0
 40
0.0
 40
0.0
 40
0.0
 40
0.0
 40
0.5004011115117637
 40
0.9999999999999999
 40
0.9999999999999999
 40
0.9999999999999999
 40
0.9999999999999999
 10
33.61174527138158
 20
42.40964319490132
 30
0.0
 10
33.39928994072051
 20
42.21077647398096
 30
0.0
 10
32.97471987927675
 20
41.81336184730365
 30
0.0
 10
32.55104819904665
 20
41.41498962251714
 30
0.0
 10
32.33938229851974
 20
41.21596330180921
 30
0.0
  0
SPLINE
  5
6A
330
1F
100
AcDbEntity
  8
0
  6
Continuous
 62
     7
370
    15
100
AcDbSpline
210
0.0
220
0.0
230
1.0
 70
     8
 71
     3
 72
    15
 73
    11
 74
     0
 42
0.00000001
 43
0.00000001
 12
1.0
 22
0.0
 32
0.0
 13
1.0
 23
0.0
 33
0.0
 40
0.0
 40
0.0
 40
0.0
 40
0.0
 40
0.1503639683670006
 40
0.293391243103773
 40
0.4276898133900732
 40
0.5545940487463035
 40
0.6752463612289021
 40
0.7893077012670613
 40
0.8968914436284556
 40
1.0
 40
1.0
 40
1.0
 40
1.0
 10
35.81487150493421
 20
42.86063157894737
 30
0.0
 10
35.70096906836777
 20
42.85909844748849
 30
0.0
 10
35.47872182509727
 20
42.85610699049616
 30
0.0
 10
35.15533902931374
 20
42.83466901322412
 30
0.0
 10
34.85081709468363
 20
42.80132946350924
 30
0.0
 10
34.56580327887107
 20
42.75093170999742
 30
0.0
 10
34.29902190262523
 20
42.68818607762105
 30
0.0
 10
34.05082795736099
 20
42.61241187140863
 30
0.0
 10
33.82226885259807
 20
42.52023031561213
 30
0.0
 10
33.68091902342305
 20
42.44597986570479
 30
0.0
 10
33.61174527138159
 20
42.40964319490133
 30
0.0
  0
SPLINE
  5
6B
330
1F
100
AcDbEntity
  8
0
  6
Continuous
 62
     7
370
    15
100
AcDbSpline
210
0.0
220
0.0
230
1.0
 70
     8
 71
     3
 72
    15
 73
    11
 74
     0
 42
0.00000001
 43
0.00000001
 12
1.0
 22
0.0
 32
0.0
 13
1.0
 23
0.0
 33
0.0
 40
0.0
 40
0.0
 40
0.0
 40
0.0
 40
0.109353029183391
 40
0.2227574647816966
 40
0.3391542468598226
 40
0.4606025334484024
 40
0.5868803497211302
 40
0.7186821039008097
 40
0.8562442493540531
 40
1.0
 40
1.0
 40
1.0
 40
1.0
 10
38.66665337171053
 20
42.23500513980264
 30
0.0
 10
38.57141480121317
 20
42.28510861268256
 30
0.0
 10
38.37740917858109
 20
42.3871718356114
 30
0.0
 10
38.06845201630605
 20
42.51439555255056
 30
0.0
 10
37.73991235841376
 20
42.62207597737893
 30
0.0
 10
37.39248702815298
 20
42.7105535085765
 30
0.0
 10
37.02471811867412
 20
42.77603106265813
 30
0.0
 10
36.63871301232734
 20
42.8268394132557
 30
0.0
 10
36.23302542009794
 20
42.85522950458289
 30
0.0
 10
35.95628707002556
 20
42.85880465022277
 30
0.0
 10
35.81487150493422
 20
42.86063157894738
 30
0.0
  0
SPLINE
  5
6C
330
1F
100
AcDbEntity
  8
0
  6
Continuous
 62
     7
370
    15
100
AcDbSpline
210
0.0
220
0.0
230
1.0
 70
     8
 71
     3
 72
    15
 73
    11
 74
     0
 42
0.00000001
 43
0.00000001
 12
1.0
 22
0.0
 32
0.0
 13
1.0
 23
0.0
 33
0.0
 40
0.0
 40
0.0
 40
0.0
 40
0.0
 40
0.1331684682969625
 40
0.259720350874464
 40
0.3815263383307062
 40
0.5004646006365564
 40
0.6191157138075652
 40
0.7405583269089427
 40
0.8666142187759096
 40
1.0
 40
1.0
 40
1.0
 40
1.0
 10
40.07143421052631
 20
39.83613075657895
 30
0.0
 10
40.067994027735
 20
39.96632366537897
 30
0.0
 10
40.06128459048564
 20
40.2202407403993
 30
0.0
 10
39.99114050118686
 20
40.58764596974221
 30
0.0
 10
39.88310203040982
 20
40.93064324473607
 30
0.0
 10
39.72786787824607
 20
41.2469959762639
 30
0.0
 10
39.52753647567871
 20
41.5363880894513
 30
0.0
 10
39.28250518407015
 20
41.79803737151629
 30
0.0
 10
38.99675860946996
 20
42.0384699298172
 30
0.0
 10
38.77874162964929
 20
42.16827099931937
 30
0.0
 10
38.66665337171052
 20
42.23500513980263
 30
0.0
  0
SPLINE
  5
6D
330
1F
100
AcDbEntity
  8
0
  6
Continuous
 62
     7
370
    15
100
AcDbSpline
210
0.0
220
0.0
230
1.0
 70
     8
 71
     3
 72
    15
 73
    11
 74
     0
 42
0.00000001
 43
0.00000001
 12
1.0
 22
0.0
 32
0.0
 13
1.0
 23
0.0
 33
0.0
 40
0.0
 40
0.0
 40
0.0
 40
0.0
 40
0.1432670268036314
 40
0.2792562015694453
 40
0.4092845250988895
 40
0.5335955523377844
 40
0.6535424870822832
 40
0.7707196224619748
 40
0.8859532299502659
 40
0.9999999999999999
 40
0.9999999999999999
 40
0.9999999999999999
 40
0.9999999999999999
 10
39.02360587993421
 20
37.39695528371711
 30
0.0
 10
39.10693100465608
 20
37.49624712856968
 30
0.0
 10
39.26934840344125
 20
37.68978687081866
 30
0.0
 10
39.48327619142538
 20
37.99250466884094
 30
0.0
 10
39.66415639411301
 20
38.29601978179949
 30
0.0
 10
39.81429367561108
 20
38.60003743454104
 30
0.0
 10
39.9272402816093
 20
38.90736056203409
 30
0.0
 10
40.0115521770199
 20
39.21514854904632
 30
0.0
 10
40.06024903245621
 20
39.52560852208666
 30
0.0
 10
40.06771870640645
 20
39.73298115678384
 30
0.0
 10
40.07143421052631
 20
39.83613075657895
 30
0.0
  0
SPLINE
  5
6E
330
1F
100
AcDbEntity
  8
0
  6
Continuous
 62
     7
370
    15
100
AcDbSpline
210
0.0
220
0.0
230
1.0
 70
     8
 71
     3
 72
    15
 73
    11
 74
     0
 42
0.00000001
 43
0.00000001
 12
1.0
 22
0.0
 32
0.0
 13
1.0
 23
0.0
 33
0.0
 40
0.0
 40
0.0
 40
0.0
 40
0.0
 40
0.1189932957724662
 40
0.2377741089823767
 40
0.3583044825989793
 40
0.4803566761148526
 40
0.604843661180689
 40
0.7328042257301138
 40
0.8643577426857341
 40
0.9999999999999999
 40
0.9999999999999999
 40
0.9999999999999999
 40
0.9999999999999999
 10
36.80896504934211
 20
35.89238127055922
 30
0.0
 10
36.91131574247881
 20
35.9258651918889
 30
0.0
 10
37.11583436435849
 20
35.99277324336956
 30
0.0
 10
37.41250188978191
 20
36.12427609212202
 30
0.0
 10
37.70305910535787
 20
36.27453839201851
 30
0.0
 10
37.9834433718184
 20
36.45300673511145
 30
0.0
 10
38.25730675322225
 20
36.6527794758251
 30
0.0
 10
38.52161195107152
 20
36.87849640103353
 30
0.0
 10
38.77997125697138
 20
37.12588891326289
 30
0.0
 10
38.94157005504292
 20
37.30568273374013
 30
0.0
 10
39.02360587993421
 20
37.39695528371711
 30
0.0
  0
SPLINE
  5
70
330
1F
100
AcDbEntity
  8
0
  6
Continuous
 62
     7
370
    15
100
AcDbSpline
210
0.0
220
0.0
230
1.0
 70
     8
 71
     3
 72
    15
 73
    11
 74
     0
 42
0.00000001
 43
0.00000001
 12
1.0
 22
0.0
 32
0.0
 13
1.0
 23
0.0
 33
0.0
 40
0.0
 40
0.0
 40
0.0
 40
0.0
 40
0.1487808407774343
 40
0.2909957108331955
 40
0.426664630159728
 40
0.5549170265773863
 40
0.6760521942410785
 40
0.7906985343609614
 40
0.8988904632862311
 40
1.0
 40
1.0
 40
1.0
 40
1.0
 10
37.32712191611842
 20
37.93046494654605
 30
0.0
 10
37.29234955139823
 20
37.83523166578183
 30
0.0
 10
37.22433939003452
 20
37.64896792317791
 30
0.0
 10
37.12846747396929
 20
37.37448401751755
 30
0.0
 10
37.04021586804534
 20
37.11217449370383
 30
0.0
 10
36.96014851422629
 20
36.86230274153034
 30
0.0
 10
36.8843765201534
 20
36.62609569238968
 30
0.0
 10
36.8171134000124
 20
36.40154393797439
 30
0.0
 10
36.75810610750946
 20
36.18882431831013
 30
0.0
 10
36.721229136282
 20
36.05105282259708
 30
0.0
 10
36.70341457648026
 20
35.984498046875
 30
0.0
  0
SPLINE
  5
71
330
1F
100
AcDbEntity
  8
0
  6
Continuous
 62
     7
370
    15
100
AcDbSpline
210
0.0
220
0.0
230
1.0
 70
     8
 71
     3
 72
    15
 73
    11
 74
     0
 42
0.00000001
 43
0.00000001
 12
1.0
 22
0.0
 32
0.0
 13
1.0
 23
0.0
 33
0.0
 40
0.0
 40
0.0
 40
0.0
 40
0.0
 40
0.0584974173736007
 40
0.135307168107154
 40
0.2313996447513188
 40
0.3467821630792485
 40
0.4814588953384152
 40
0.6354324453284986
 40
0.8083668995384772
 40
1.0
 40
1.0
 40
1.0
 40
1.0
 10
37.96234385279606
 20
39.74209488075659
 30
0.0
 10
37.95164048367567
 20
39.7062177739084
 30
0.0
 10
37.92688310753999
 20
39.62323240557149
 30
0.0
 10
37.87983520538546
 20
39.48279242709533
 30
0.0
 10
37.8204190907294
 20
39.30812909358175
 30
0.0
 10
37.74728383905173
 20
39.09901326958917
 30
0.0
 10
37.66102824770895
 20
38.85524875136559
 30
0.0
 10
37.56054363854999
 20
38.57745519688282
 30
0.0
 10
37.45065531304292
 20
38.26430931637346
 30
0.0
 10
37.36968405200358
 20
38.04548752171068
 30
0.0
 10
37.32712191611842
 20
37.93046494654605
 30
0.0
  0
SPLINE
  5
72
330
1F
100
AcDbEntity
  8
0
  6
Continuous
 62
     7
370
    15
100
AcDbSpline
210
0.0
220
0.0
230
1.0
 70
     8
 71
     3
 72
    11
 73
     7
 74
     0
 42
0.00000001
 43
0.00000001
 12
1.0
 22
0.0
 32
0.0
 13
1.0
 23
0.0
 33
0.0
 40
0.0
 40
0.0
 40
0.0
 40
0.0
 40
0.236076691458088
 40
0.4816840862717722
 40
0.7355319666351509
 40
1.0
 40
1.0
 40
1.0
 40
1.0
 10
38.36151655016448
 20
41.71492917351974
 30
0.0
 10
38.34334377084604
 20
41.55732676610734
 30
0.0
 10
38.30626455499057
 20
41.23575935028241
 30
0.0
 10
38.21802606152151
 20
40.7492312007847
 30
0.0
 10
38.10519491603328
 20
40.24833448110172
 30
0.0
 10
38.01060690149388
 20
39.91313082498088
 30
0.0
 10
37.96234385279605
 20
39.74209488075658
 30
0.0
  0
SPLINE
  5
74
330
1F
100
AcDbEntity
  8
0
  6
Continuous
 62
     7
370
    15
100
AcDbSpline
210
0.0
220
0.0
230
1.0
 70
     8
 71
     3
 72
    15
 73
    11
 74
     0
 42
0.00000001
 43
0.00000001
 12
1.0
 22
0.0
 32
0.0
 13
1.0
 23
0.0
 33
0.0
 40
0.0
 40
0.0
 40
0.0
 40
0.0
 40
0.192428242431715
 40
0.36517900944112
 40
0.5180025954408877
 40
0.6511988080862494
 40
0.7648738327931784
 40
0.8599067544163325
 40
0.9381165724307589
 40
1.0
 40
1.0
 40
1.0
 40
1.0
 10
37.04693338815789
 20
40.40802240953948
 30
0.0
 10
37.10142478473415
 20
40.52150775950012
 30
0.0
 10
37.20483535468643
 20
40.73687358709903
 30
0.0
 10
37.35953429477923
 20
41.03840637281133
 30
0.0
 10
37.50624138383404
 20
41.30043238571473
 30
0.0
 10
37.64715472791558
 20
41.52067336465851
 30
0.0
 10
37.77364546552332
 20
41.70557652994108
 30
0.0
 10
37.89520329645591
 20
41.84847086543479
 30
0.0
 10
38.00582462183407
 20
41.95733600469101
 30
0.0
 10
38.08614789186885
 20
42.00217732564224
 30
0.0
 10
38.12162911184211
 20
42.02198509457237
 30
0.0
  0
SPLINE
  5
75
330
1F
100
AcDbEntity
  8
0
  6
Continuous
 62
     7
370
    15
100
AcDbSpline
210
0.0
220
0.0
230
1.0
 70
     8
 71
     3
 72
    15
 73
    11
 74
     0
 42
0.00000001
 43
0.00000001
 12
1.0
 22
0.0
 32
0.0
 13
1.0
 23
0.0
 33
0.0
 40
0.0
 40
0.0
 40
0.0
 40
0.0
 40
0.1635178380072635
 40
0.3156619705206966
 40
0.4568008497933525
 40
0.587411992327548
 40
0.7066697806120797
 40
0.8151792206606711
 40
0.9129510546422362
 40
1.0
 40
1.0
 40
1.0
 40
1.0
 10
35.92042197779605
 20
37.65027641858553
 30
0.0
 10
35.97836638497726
 20
37.80198939862738
 30
0.0
 10
36.09022479733383
 20
38.09486275615948
 30
0.0
 10
36.25643773027391
 20
38.51700124422655
 30
0.0
 10
36.40885353007677
 20
38.90944691506613
 30
0.0
 10
36.55473429044167
 20
39.26935289400035
 30
0.0
 10
36.69112900823703
 20
39.59811585990073
 30
0.0
 10
36.81772845829318
 20
39.89561633587515
 30
0.0
 10
36.93434351816473
 20
40.16259892117358
 30
0.0
 10
37.01088366084165
 20
40.32944118519728
 30
0.0
 10
37.04693338815789
 20
40.40802240953948
 30
0.0
  0
SPLINE
  5
76
330
1F
100
AcDbEntity
  8
0
  6
Continuous
 62
     7
370
    15
100
AcDbSpline
210
0.0
220
0.0
230
1.0
 70
     8
 71
     3
 72
     9
 73
     5
 74
     0
 42
0.00000001
 43
0.00000001
 12
1.0
 22
0.0
 32
0.0
 13
1.0
 23
0.0
 33
0.0
 40
0.0
 40
0.0
 40
0.0
 40
0.0
 40
0.4993382548743147
 40
1.0
 40
1.0
 40
1.0
 40
1.0
 10
35.21803155838816
 20
35.75804430509869
 30
0.0
 10
35.33325648227397
 20
36.07362446822564
 30
0.0
 10
35.56401173236954
 20
36.70562123604063
 30
0.0
 10
35.80151378543658
 20
37.3351136487134
 30
0.0
 10
35.92042197779605
 20
37.65027641858553
 30
0.0
  0
SPLINE
  5
77
330
1F
100
AcDbEntity
  8
0
  6
Continuous
 62
     7
370
    15
100
AcDbSpline
210
0.0
220
0.0
230
1.0
 70
     8
 71
     3
 72
    11
 73
     7
 74
     0
 42
0.00000001
 43
0.00000001
 12
1.0
 22
0.0
 32
0.0
 13
1.0
 23
0.0
 33
0.0
 40
0.0
 40
0.0
 40
0.0
 40
0.0
 40
0.1939354175510388
 40
0.427106667801047
 40
0.6946598973844935
 40
1.0
 40
1.0
 40
1.0
 40
1.0
 10
34.75360947779605
 20
35.51815686677632
 30
0.0
 10
34.78296191906872
 20
35.53492195889925
 30
0.0
 10
34.84760520878908
 20
35.57184395449149
 30
0.0
 10
34.95448847319363
 20
35.62875000596969
 30
0.0
 10
35.07969558216574
 20
35.69250304187824
 30
0.0
 10
35.16993555167658
 20
35.73525722452994
 30
0.0
 10
35.21803155838816
 20
35.75804430509869
 30
0.0
  0
SPLINE
  5
78
330
1F
100
AcDbEntity
  8
0
  6
Continuous
 62
     7
370
    15
100
AcDbSpline
210
0.0
220
0.0
230
1.0
 70
     8
 71
     3
 72
    11
 73
     7
 74
     0
 42
0.00000001
 43
0.00000001
 12
1.0
 22
0.0
 32
0.0
 13
1.0
 23
0.0
 33
0.0
 40
0.0
 40
0.0
 40
0.0
 40
0.0
 40
0.1623427644179629
 40
0.3784073990125597
 40
0.6578844141889628
 40
1.0
 40
1.0
 40
1.0
 40
1.0
 10
34.36787047697369
 20
35.18615265213816
 30
0.0
 10
34.3815617016859
 20
35.21059092882938
 30
0.0
 10
34.4134748008081
 20
35.26755450680115
 30
0.0
 10
34.49791516420966
 20
35.34478663384056
 30
0.0
 10
34.61358094658255
 20
35.42978625155149
 30
0.0
 10
34.70389946843573
 20
35.48678537361036
 30
0.0
 10
34.75360947779605
 20
35.51815686677632
 30
0.0
  0
SPLINE
  5
79
330
1F
100
AcDbEntity
  8
0
  6
Continuous
 62
     7
370
    15
100
AcDbSpline
210
0.0
220
0.0
230
1.0
 70
     8
 71
     3
 72
    11
 73
     7
 74
     0
 42
0.00000001
 43
0.00000001
 12
1.0
 22
0.0
 32
0.0
 13
1.0
 23
0.0
 33
0.0
 40
0.0
 40
0.0
 40
0.0
 40
0.0
 40
0.2609409031246291
 40
0.5305549648475953
 40
0.7852227991738984
 40
1.0
 40
1.0
 40
1.0
 40
1.0
 10
34.75360947779605
 20
34.55860711348684
 30
0.0
 10
34.71296233253207
 20
34.60891237053313
 30
0.0
 10
34.63031701143269
 20
34.71119493169638
 30
0.0
 10
34.51435364639391
 20
34.86681401380875
 30
0.0
 10
34.41360684192751
 20
35.02204842317281
 30
0.0
 10
34.38222711130128
 20
35.13464037281199
 30
0.0
 10
34.36787047697369
 20
35.18615265213817
 30
0.0
  0
SPLINE
  5
7A
330
1F
100
AcDbEntity
  8
0
  6
Continuous
 62
     7
370
    15
100
AcDbSpline
210
0.0
220
0.0
230
1.0
 70
     8
 71
     3
 72
     9
 73
     5
 74
     0
 42
0.00000001
 43
0.00000001
 12
1.0
 22
0.0
 32
0.0
 13
1.0
 23
0.0
 33
0.0
 40
0.0
 40
0.0
 40
0.0
 40
0.0
 40
0.4997430771432028
 40
1.0
 40
1.0
 40
1.0
 40
1.0
 10
34.19515152138158
 20
33.22675205592107
 30
0.0
 10
34.2877721257157
 20
33.44878487093658
 30
0.0
 10
34.47310856872075
 20
33.89307879949836
 30
0.0
 10
34.66007715043619
 20
34.33668835986699
 30
0.0
 10
34.75360947779605
 20
34.55860711348684
 30
0.0
  0
SPLINE
  5
7B
330
1F
100
AcDbEntity
  8
0
  6
Continuous
 62
     7
370
    15
100
AcDbSpline
210
0.0
220
0.0
230
1.0
 70
     8
 71
     3
 72
    11
 73
     7
 74
     0
 42
0.00000001
 43
0.00000001
 12
1.0
 22
0.0
 32
0.0
 13
1.0
 23
0.0
 33
0.0
 40
0.0
 40
0.0
 40
0.0
 40
0.0
 40
0.1980112302337185
 40
0.4303395623580253
 40
0.6976832156797457
 40
1.0
 40
1.0
 40
1.0
 40
1.0
 10
33.79789792351974
 20
31.85459590871711
 30
0.0
 10
33.81072574745328
 20
31.94836310473449
 30
0.0
 10
33.83860457094751
 20
32.1521481832375
 30
0.0
 10
33.92711250927589
 20
32.47400915428723
 30
0.0
 10
34.04286962382162
 20
32.83907111502272
 30
0.0
 10
34.14235498906287
 20
33.09234205937219
 30
0.0
 10
34.19515152138158
 20
33.22675205592106
 30
0.0
  0
SPLINE
  5
7E
330
1F
100
AcDbEntity
  8
0
  6
Continuous
 62
     7
370
    15
100
AcDbSpline
210
0.0
220
0.0
230
1.0
 70
     8
 71
     3
 72
    11
 73
     7
 74
     0
 42
0.00000001
 43
0.00000001
 12
1.0
 22
0.0
 32
0.0
 13
1.0
 23
0.0
 33
0.0
 40
0.0
 40
0.0
 40
0.0
 40
0.0
 40
0.3015536850218539
 40
0.5680554898855464
 40
0.8024406969336532
 40
1.0
 40
1.0
 40
1.0
 40
1.0
 10
34.91289473684211
 20
31.84116221217106
 30
0.0
 10
34.831163477244
 20
31.81004302029142
 30
0.0
 10
34.67720120446789
 20
31.75142185707547
 30
0.0
 10
34.45745207249387
 20
31.67483282674501
 30
0.0
 10
34.26527429944251
 20
31.61070138973431
 30
0.0
 10
34.14473317686117
 20
31.57657989761331
 30
0.0
 10
34.08960104851973
 20
31.56097368421053
 30
0.0
  0
SPLINE
  5
7F
330
1F
100
AcDbEntity
  8
0
  6
Continuous
 62
     7
370
    15
100
AcDbSpline
210
0.0
220
0.0
230
1.0
 70
     8
 71
     3
 72
    15
 73
    11
 74
     0
 42
0.00000001
 43
0.00000001
 12
1.0
 22
0.0
 32
0.0
 13
1.0
 23
0.0
 33
0.0
 40
0.0
 40
0.0
 40
0.0
 40
0.0
 40
0.0650434029683434
 40
0.1454481351054134
 40
0.240991153591585
 40
0.356460859434071
 40
0.4898842694040411
 40
0.6404108615586538
 40
0.810367523107279
 40
1.0
 40
1.0
 40
1.0
 40
1.0
 10
35.62871885279606
 20
32.26912140213816
 30
0.0
 10
35.61826922500314
 20
32.2540562873188
 30
0.0
 10
35.59490207621229
 20
32.22036812286822
 30
0.0
 10
35.54561502610597
 20
32.17330026290414
 30
0.0
 10
35.48130056305695
 20
32.12231388109504
 30
0.0
 10
35.39802462891358
 20
32.07246387654902
 30
0.0
 10
35.30070745393265
 20
32.01637137794862
 30
0.0
 10
35.18661380437423
 20
31.95889116026019
 30
0.0
 10
35.05598473464266
 20
31.89944317388937
 30
0.0
 10
34.96230013157514
 20
31.86128516949423
 30
0.0
 10
34.91289473684211
 20
31.84116221217106
 30
0.0
  0
SPLINE
  5
80
330
1F
100
AcDbEntity
  8
0
  6
Continuous
 62
     7
370
    15
100
AcDbSpline
210
0.0
220
0.0
230
1.0
 70
     8
 71
     3
 72
     9
 73
     5
 74
     0
 42
0.00000001
 43
0.00000001
 12
1.0
 22
0.0
 32
0.0
 13
1.0
 23
0.0
 33
0.0
 40
0.0
 40
0.0
 40
0.0
 40
0.0
 40
0.5679902610427058
 40
1.0
 40
1.0
 40
1.0
 40
1.0
 10
35.61528515625
 20
32.56274362664474
 30
0.0
 10
35.61573362379191
 20
32.50704874377865
 30
0.0
 10
35.61652319286141
 20
32.40899269126139
 30
0.0
 10
35.62503965724211
 20
32.31131787431142
 30
0.0
 10
35.62871885279606
 20
32.26912140213816
 30
0.0
  0
SPLINE
  5
81
330
1F
100
AcDbEntity
  8
0
  6
Continuous
 62
     7
370
    15
100
AcDbSpline
210
0.0
220
0.0
230
1.0
 70
     8
 71
     3
 72
    15
 73
    11
 74
     0
 42
0.00000001
 43
0.00000001
 12
1.0
 22
0.0
 32
0.0
 13
1.0
 23
0.0
 33
0.0
 40
0.0
 40
0.0
 40
0.0
 40
0.0
 40
0.1672647865060207
 40
0.3213834006410562
 40
0.462499776942282
 40
0.5928457624229163
 40
0.7100982341581371
 40
0.8165376797587293
 40
0.9128591173783712
 40
1.0
 40
1.0
 40
1.0
 40
1.0
 10
21.02820980674342
 20
38.8746619037829
 30
0.0
 10
21.08841907641147
 20
38.93474711492576
 30
0.0
 10
21.20410546946668
 20
39.05019514130775
 30
0.0
 10
21.37954950451824
 20
39.2068817514883
 30
0.0
 10
21.54458883922995
 20
39.34692240996569
 30
0.0
 10
21.70295827895401
 20
39.46536280781281
 30
0.0
 10
21.85337720283404
 20
39.56452440987365
 30
0.0
 10
21.99563319288952
 20
39.64366292915555
 30
0.0
 10
22.13001518160356
 20
39.70526729842921
 30
0.0
 10
22.21962699492508
 20
39.73153659633736
 30
0.0
 10
22.26219078947369
 20
39.74401398026315
 30
0.0
  0
SPLINE
  5
82
330
1F
100
AcDbEntity
  8
0
  6
Continuous
 62
     7
370
    15
100
AcDbSpline
210
0.0
220
0.0
230
1.0
 70
     8
 71
     3
 72
    11
 73
     7
 74
     0
 42
0.00000001
 43
0.00000001
 12
1.0
 22
0.0
 32
0.0
 13
1.0
 23
0.0
 33
0.0
 40
0.0
 40
0.0
 40
0.0
 40
0.0
 40
0.2364760682512374
 40
0.4801480438469272
 40
0.7350714178146431
 40
1.0
 40
1.0
 40
1.0
 40
1.0
 10
20.04754995888158
 20
37.68673930921053
 30
0.0
 10
20.11690167351044
 20
37.78663788732872
 30
0.0
 10
20.25771545802035
 20
37.98947493219863
 30
0.0
 10
20.49251450543867
 20
38.28589547168581
 30
0.0
 10
20.74884924044905
 20
38.58342064960374
 30
0.0
 10
20.93390242381117
 20
38.77634380238486
 30
0.0
 10
21.02820980674342
 20
38.8746619037829
 30
0.0
  0
SPLINE
  5
83
330
1F
100
AcDbEntity
  8
0
  6
Continuous
 62
     7
370
    15
100
AcDbSpline
210
0.0
220
0.0
230
1.0
 70
     8
 71
     3
 72
    15
 73
    11
 74
     0
 42
0.00000001
 43
0.00000001
 12
1.0
 22
0.0
 32
0.0
 13
1.0
 23
0.0
 33
0.0
 40
0.0
 40
0.0
 40
0.0
 40
0.0
 40
0.1112483455728527
 40
0.2343647917285175
 40
0.3689017171405362
 40
0.51485846512766
 40
0.6594146261869623
 40
0.788320546692152
 40
0.9009179801119442
 40
1.0
 40
1.0
 40
1.0
 40
1.0
 10
19.60999527138158
 20
35.89238127055921
 30
0.0
 10
19.61168116552333
 20
35.96151509232532
 30
0.0
 10
19.61523280691964
 20
36.10715801093394
 30
0.0
 10
19.63911707927349
 20
36.3354380732633
 30
0.0
 10
19.68118716551981
 20
36.58276662596823
 30
0.0
 10
19.73211266091192
 20
36.84199510625928
 30
0.0
 10
19.79641238080712
 20
37.09485082469088
 30
0.0
 10
19.87122706412019
 20
37.32278118729886
 30
0.0
 10
19.94892415136373
 20
37.52037946444104
 30
0.0
 10
20.01610447717028
 20
37.63369776169015
 30
0.0
 10
20.04754995888158
 20
37.68673930921053
 30
0.0
  0
SPLINE
  5
84
330
1F
100
AcDbEntity
  8
0
  6
Continuous
 62
     7
370
    15
100
AcDbSpline
210
0.0
220
0.0
230
1.0
 70
     8
 71
     3
 72
    15
 73
    11
 74
     0
 42
0.00000001
 43
0.00000001
 12
1.0
 22
0.0
 32
0.0
 13
1.0
 23
0.0
 33
0.0
 40
0.0
 40
0.0
 40
0.0
 40
0.0
 40
0.1413116714609738
 40
0.2741345972946732
 40
0.4014609308529755
 40
0.5233977403132515
 40
0.6417526831624244
 40
0.7584999152659805
 40
0.8781939739476502
 40
1.0
 40
1.0
 40
1.0
 40
1.0
 10
20.03411626233553
 20
35.14009426398027
 30
0.0
 10
20.00033617287098
 20
35.16569125301234
 30
0.0
 10
19.93480520061511
 20
35.21534759213647
 30
0.0
 10
19.84736372874237
 20
35.29849556566148
 30
0.0
 10
19.77426751894865
 20
35.38700976779435
 30
0.0
 10
19.7141208809315
 20
35.47962697409552
 30
0.0
 10
19.66730823552128
 20
35.57629872796382
 30
0.0
 10
19.6350209583472
 20
35.67781134846605
 30
0.0
 10
19.6121985322701
 20
35.78325653351752
 30
0.0
 10
19.61073396100231
 20
35.85579490394323
 30
0.0
 10
19.60999527138158
 20
35.89238127055921
 30
0.0
  0
SPLINE
  5
85
330
1F
100
AcDbEntity
  8
0
  6
Continuous
 62
     7
370
    15
100
AcDbSpline
210
0.0
220
0.0
230
1.0
 70
     8
 71
     3
 72
    11
 73
     7
 74
     0
 42
0.00000001
 43
0.00000001
 12
1.0
 22
0.0
 32
0.0
 13
1.0
 23
0.0
 33
0.0
 40
0.0
 40
0.0
 40
0.0
 40
0.0
 40
0.2555270182962802
 40
0.5012032103797592
 40
0.7481947823442189
 40
1.0
 40
1.0
 40
1.0
 40
1.0
 10
20.86892454769737
 20
34.87717763157895
 30
0.0
 10
20.79316969453757
 20
34.88063793568663
 30
0.0
 10
20.64458041478667
 20
34.88742514566241
 30
0.0
 10
20.42742344230994
 20
34.93713345333121
 30
0.0
 10
20.22134635888014
 20
35.01929361441533
 30
0.0
 10
20.09692653296513
 20
35.09956914739146
 30
0.0
 10
20.03411626233553
 20
35.14009426398027
 30
0.0
  0
SPLINE
  5
86
330
1F
100
AcDbEntity
  8
0
  6
Continuous
 62
     7
370
    15
100
AcDbSpline
210
0.0
220
0.0
230
1.0
 70
     8
 71
     3
 72
    27
 73
    23
 74
     0
 42
0.00000001
 43
0.00000001
 12
1.0
 22
0.0
 32
0.0
 13
1.0
 23
0.0
 33
0.0
 40
0.0
 40
0.0
 40
0.0
 40
0.0
 40
0.0731073875751224
 40
0.1455051885063409
 40
0.2174387831269718
 40
0.2892243041229823
 40
0.3256587200183048
 40
0.3632431676414945
 40
0.4032577515961265
 40
0.4449533889921125
 40
0.4898135059259628
 40
0.5372056159273327
 40
0.5880343026007171
 40
0.6420079674034692
 40
0.6961314036562494
 40
0.7469390517577087
 40
0.7949491300406757
 40
0.8402137158788651
 40
0.882827230990113
 40
0.9234642298461737
 40
0.9625988690550787
 40
1.0
 40
1.0
 40
1.0
 40
1.0
 10
24.29259806743421
 20
39.07232915296053
 30
0.0
 10
24.28988822925911
 20
38.92575897688495
 30
0.0
 10
24.28449485483323
 20
38.63404124757379
 30
0.0
 10
24.24503647161524
 20
38.19950804957359
 30
0.0
 10
24.18100267080373
 20
37.77094022435074
 30
0.0
 10
24.11007796757826
 20
37.41635660058707
 30
0.0
 10
24.02540559739482
 20
37.13611733455421
 30
0.0
 10
23.93331463962231
 20
36.9262781697529
 30
0.0
 10
23.81423610860546
 20
36.71844346019983
 30
0.0
 10
23.66793050668389
 20
36.51071676856893
 30
0.0
 10
23.49510668247492
 20
36.30486941819152
 30
0.0
 10
23.29605769964457
 20
36.09800265223748
 30
0.0
 10
23.06879588466642
 20
35.89413305921934
 30
0.0
 10
22.82219085489434
 20
35.6922823835341
 30
0.0
 10
22.56515525014327
 20
35.50367470778077
 30
0.0
 10
22.30648205108173
 20
35.33893651609677
 30
0.0
 10
22.05629656017332
 20
35.19388000604421
 30
0.0
 10
21.80736998529439
 20
35.08254531129354
 30
0.0
 10
21.56695185314656
 20
34.98909157617767
 30
0.0
 10
21.32938965078619
 20
34.92629375850093
 30
0.0
 10
21.09739903104273
 20
34.88581392067127
 30
0.0
 10
20.94392399025521
 20
34.88001259528347
 30
0.0
 10
20.86892454769737
 20
34.87717763157895
 30
0.0
  0
SPLINE
  5
87
330
1F
100
AcDbEntity
  8
0
  6
Continuous
 62
     7
370
    15
100
AcDbSpline
210
0.0
220
0.0
230
1.0
 70
     8
 71
     3
 72
    23
 73
    19
 74
     0
 42
0.00000001
 43
0.00000001
 12
1.0
 22
0.0
 32
0.0
 13
1.0
 23
0.0
 33
0.0
 40
0.0
 40
0.0
 40
0.0
 40
0.0
 40
0.0397464976901943
 40
0.0836518364024047
 40
0.1328497481809502
 40
0.1891307629687157
 40
0.2512222884361088
 40
0.3214594634289646
 40
0.3993361221163465
 40
0.4859039786693977
 40
0.5728399869417472
 40
0.6528193575355026
 40
0.7266355432496883
 40
0.7920983432431778
 40
0.8528246448039567
 40
0.9068619847574473
 40
0.9560946612877911
 40
0.9999999999999999
 40
0.9999999999999999
 40
0.9999999999999999
 40
0.9999999999999999
 10
23.21790234375
 20
40.40418421052632
 30
0.0
 10
23.24177159850141
 20
40.40270324375414
 30
0.0
 10
23.29200764719874
 20
40.39958635050964
 30
0.0
 10
23.36756051140578
 20
40.37189001336281
 30
0.0
 10
23.44676874556092
 20
40.33040114759063
 30
0.0
 10
23.53141309249286
 20
40.27575618321021
 30
0.0
 10
23.61540266831717
 20
40.19982602673269
 30
0.0
 10
23.70570744533356
 20
40.11212457838954
 30
0.0
 10
23.80011489769058
 20
40.00778719257809
 30
0.0
 10
23.89396497894549
 20
39.89001105392839
 30
0.0
 10
23.98623988934032
 20
39.76938351783012
 30
0.0
 10
24.06690256355982
 20
39.64977926141702
 30
0.0
 10
24.13560325077381
 20
39.53780058636116
 30
0.0
 10
24.19280298134626
 20
39.43247818784251
 30
0.0
 10
24.2371674060186
 20
39.33384418982838
 30
0.0
 10
24.26799387299765
 20
39.24054561642524
 30
0.0
 10
24.28916663207886
 20
39.15452378398963
 30
0.0
 10
24.29149871947462
 20
39.09866230237287
 30
0.0
 10
24.29259806743421
 20
39.07232915296053
 30
0.0
  0
SPLINE
  5
88
330
1F
100
AcDbEntity
  8
0
  6
Continuous
 62
     7
370
    15
100
AcDbSpline
210
0.0
220
0.0
230
1.0
 70
     8
 71
     3
 72
    15
 73
    11
 74
     0
 42
0.00000001
 43
0.00000001
 12
1.0
 22
0.0
 32
0.0
 13
1.0
 23
0.0
 33
0.0
 40
0.0
 40
0.0
 40
0.0
 40
0.0
 40
0.1082798554966789
 40
0.2279203151483463
 40
0.3566062921710743
 40
0.5022009513271672
 40
0.6471319129354609
 40
0.7766712803177617
 40
0.8933982808347104
 40
0.9999999999999999
 40
0.9999999999999999
 40
0.9999999999999999
 40
0.9999999999999999
 10
22.26219078947369
 20
39.74401398026315
 30
0.0
 10
22.28054096186591
 20
39.78391485803954
 30
0.0
 10
22.31916658669223
 20
39.86790297010133
 30
0.0
 10
22.41039083937249
 20
39.98102721501728
 30
0.0
 10
22.52403983218471
 20
40.09278028580964
 30
0.0
 10
22.65961945583276
 20
40.19525457522296
 30
0.0
 10
22.8042800044083
 20
40.28450280815644
 30
0.0
 10
22.94652747012052
 20
40.35446568140565
 30
0.0
 10
23.08457498130701
 20
40.39484696843725
 30
0.0
 10
23.17482379028932
 20
40.4011673138058
 30
0.0
 10
23.21790234375
 20
40.40418421052632
 30
0.0
  0
SPLINE
  5
C5
330
1F
100
AcDbEntity
  8
0
  6
Continuous
 62
     7
370
    15
100
AcDbSpline
210
0.0
220
0.0
230
1.0
 70
     8
 71
     3
 72
    13
 73
     9
 74
     0
 42
0.00000001
 43
0.00000001
 12
1.0
 22
0.0
 32
0.0
 13
1.0
 23
0.0
 33
0.0
 40
0.0
 40
0.0
 40
0.0
 40
0.0
 40
0.2607721152035877
 40
0.5201109822375282
 40
0.6465141831680478
 40
0.7683584005702091
 40
0.8858955255396171
 40
1.0
 40
1.0
 40
1.0
 40
1.0
 10
13.40746566611842
 20
34.817685546875
 30
0.0
 10
13.33361514489145
 20
34.62651833904961
 30
0.0
 10
13.18631999753978
 20
34.24523461108641
 30
0.0
 10
13.00745596159703
 20
33.7697584458961
 30
0.0
 10
12.8815549874729
 20
33.39084512002291
 30
0.0
 10
12.81950617532805
 20
33.10980464027041
 30
0.0
 10
12.77872177931214
 20
32.8345280192006
 30
0.0
 10
12.77309589008463
 20
32.65243897713764
 30
0.0
 10
12.77032462993422
 20
32.56274362664475
 30
0.0
  0
SPLINE
  5
C6
330
1F
100
AcDbEntity
  8
0
  6
Continuous
 62
     7
370
    15
100
AcDbSpline
210
0.0
220
0.0
230
1.0
 70
     8
 71
     3
 72
     9
 73
     5
 74
     0
 42
0.00000001
 43
0.00000001
 12
1.0
 22
0.0
 32
0.0
 13
1.0
 23
0.0
 33
0.0
 40
0.0
 40
0.0
 40
0.0
 40
0.0
 40
0.5012773529917841
 40
1.0
 40
1.0
 40
1.0
 40
1.0
 10
15.96754440789474
 20
35.88470487253289
 30
0.0
 10
15.53949005380508
 20
35.70709664193826
 30
0.0
 10
14.68556287849008
 20
35.35278534194713
 30
0.0
 10
13.83277186013654
 20
34.99574810350925
 30
0.0
 10
13.40746566611842
 20
34.817685546875
 30
0.0
  0
SPLINE
  5
C7
330
1F
100
AcDbEntity
  8
0
  6
Continuous
 62
     7
370
    15
100
AcDbSpline
210
0.0
220
0.0
230
1.0
 70
     8
 71
     3
 72
    15
 73
    11
 74
     0
 42
0.00000001
 43
0.00000001
 12
1.0
 22
0.0
 32
0.0
 13
1.0
 23
0.0
 33
0.0
 40
0.0
 40
0.0
 40
0.0
 40
0.0
 40
0.1030480762947004
 40
0.2113821263674527
 40
0.3261202039148022
 40
0.4462455809780292
 40
0.5736901526256979
 40
0.7084173470620291
 40
0.8504302764108047
 40
1.0
 40
1.0
 40
1.0
 40
1.0
 10
18.06512016858552
 20
37.28564751233553
 30
0.0
 10
18.00737176936729
 20
37.21997317977085
 30
0.0
 10
17.88891269802901
 20
37.08525567155086
 30
0.0
 10
17.68465350705583
 20
36.89814810860847
 30
0.0
 10
17.45921563688271
 20
36.71379564961128
 30
0.0
 10
17.20732383270858
 20
36.53742891614306
 30
0.0
 10
16.93306358956934
 20
36.3642146943828
 30
0.0
 10
16.63267243475968
 20
36.19884665677093
 30
0.0
 10
16.31078711458438
 20
36.03383679158607
 30
0.0
 10
16.08391852145551
 20
35.93526703902671
 30
0.0
 10
15.96754440789474
 20
35.88470487253289
 30
0.0
  0
SPLINE
  5
C8
330
1F
100
AcDbEntity
  8
0
  6
Continuous
 62
     7
370
    15
100
AcDbSpline
210
0.0
220
0.0
230
1.0
 70
     8
 71
     3
 72
    15
 73
    11
 74
     0
 42
0.00000001
 43
0.00000001
 12
1.0
 22
0.0
 32
0.0
 13
1.0
 23
0.0
 33
0.0
 40
0.0
 40
0.0
 40
0.0
 40
0.0
 40
0.1447260181641229
 40
0.2818783248877952
 40
0.4121135117299705
 40
0.5374443483565393
 40
0.6575281352289918
 40
0.773658931278636
 40
0.8873028322073504
 40
1.0
 40
1.0
 40
1.0
 40
1.0
 10
18.94598684210526
 20
40.12783388157895
 30
0.0
 10
18.94373178245696
 20
39.98123075361215
 30
0.0
 10
18.93933967353107
 20
39.69569644085485
 30
0.0
 10
18.89593423280581
 20
39.28009902257264
 30
0.0
 10
18.82737030736649
 20
38.88803076121209
 30
0.0
 10
18.73196463791876
 20
38.51935841522115
 30
0.0
 10
18.60996800095199
 20
38.17346170609051
 30
0.0
 10
18.45657693234057
 20
37.85359896235968
 30
0.0
 10
18.27942400076669
 20
37.55435135602455
 30
0.0
 10
18.13635530472313
 20
37.37496534996385
 30
0.0
 10
18.06512016858552
 20
37.28564751233553
 30
0.0
  0
SPLINE
  5
C9
330
1F
100
AcDbEntity
  8
0
  6
Continuous
 62
     7
370
    15
100
AcDbSpline
210
0.0
220
0.0
230
1.0
 70
     8
 71
     3
 72
    15
 73
    11
 74
     0
 42
0.00000001
 43
0.00000001
 12
1.0
 22
0.0
 32
0.0
 13
1.0
 23
0.0
 33
0.0
 40
0.0
 40
0.0
 40
0.0
 40
0.0
 40
0.1293131157472017
 40
0.2539260582115574
 40
0.3751437607409125
 40
0.4955733635009297
 40
0.615882107518273
 40
0.7391255246544471
 40
0.8670217931683648
 40
1.0
 40
1.0
 40
1.0
 40
1.0
 10
17.4471701274671
 20
43.18495939555921
 30
0.0
 10
17.56657727914742
 20
43.08973099258486
 30
0.0
 10
17.80105146355826
 20
42.90273547509743
 30
0.0
 10
18.10743144233641
 20
42.58125872415056
 30
0.0
 10
18.3676951286829
 20
42.23502545463597
 30
0.0
 10
18.57969835737291
 20
41.86290400658887
 30
0.0
 10
18.74451403653871
 20
41.46502790636676
 30
0.0
 10
18.86083828246027
 20
41.04155405640002
 30
0.0
 10
18.93393975683596
 20
40.59287012617569
 30
0.0
 10
18.94191933191896
 20
40.28484610649601
 30
0.0
 10
18.94598684210526
 20
40.12783388157895
 30
0.0
  0
SPLINE
  5
CA
330
1F
100
AcDbEntity
  8
0
  6
Continuous
 62
     7
370
    15
100
AcDbSpline
210
0.0
220
0.0
230
1.0
 70
     8
 71
     3
 72
    15
 73
    11
 74
     0
 42
0.00000001
 43
0.00000001
 12
1.0
 22
0.0
 32
0.0
 13
1.0
 23
0.0
 33
0.0
 40
0.0
 40
0.0
 40
0.0
 40
0.0
 40
0.1376392007065626
 40
0.2699470764054271
 40
0.3981779356145206
 40
0.5225910302587018
 40
0.6438771968336813
 40
0.7631119205147749
 40
0.8817510002151878
 40
1.0
 40
1.0
 40
1.0
 40
1.0
 10
14.12328978207237
 20
44.21167763157894
 30
0.0
 10
14.28589926516074
 20
44.20900713859482
 30
0.0
 10
14.60481970592302
 20
44.20376959166105
 30
0.0
 10
15.0730944411436
 20
44.15439116721046
 30
0.0
 10
15.52119134830981
 20
44.07492235548228
 30
0.0
 10
15.94839831434528
 20
43.9610216847557
 30
0.0
 10
16.35548983515583
 20
43.81770614227453
 30
0.0
 10
16.74101437095434
 20
43.63957564907177
 30
0.0
 10
17.10759987431551
 20
43.43165983094001
 30
0.0
 10
17.33410437022659
 20
43.26710254938089
 30
0.0
 10
17.4471701274671
 20
43.18495939555921
 30
0.0
  0
SPLINE
  5
CB
330
1F
100
AcDbEntity
  8
0
  6
Continuous
 62
     7
370
    15
100
AcDbSpline
210
0.0
220
0.0
230
1.0
 70
     8
 71
     3
 72
    23
 73
    19
 74
     0
 42
0.00000001
 43
0.00000001
 12
1.0
 22
0.0
 32
0.0
 13
1.0
 23
0.0
 33
0.0
 40
0.0
 40
0.0
 40
0.0
 40
0.0
 40
0.0565080854014251
 40
0.1143086675430671
 40
0.173511345047852
 40
0.2343522773783872
 40
0.2969978656614509
 40
0.3612871672779316
 40
0.4276657688296964
 40
0.4960680796295366
 40
0.5648925836921633
 40
0.6316950731938117
 40
0.6965839667245916
 40
0.760020230710775
 40
0.8221390766036653
 40
0.8823872906097764
 40
0.9416389825733706
 40
0.9999999999999999
 40
0.9999999999999999
 40
0.9999999999999999
 40
0.9999999999999999
 10
9.135550164473685
 20
42.27722532894737
 30
0.0
 10
9.211439944116737
 20
42.34669693246254
 30
0.0
 10
9.364955313280445
 20
42.48722914787004
 30
0.0
 10
9.614269164158529
 20
42.68146966129546
 30
0.0
 10
9.876980162761061
 20
42.87070159142947
 30
0.0
 10
10.15787583983074
 20
43.04901092437694
 30
0.0
 10
10.45542525505706
 20
43.21734849411524
 30
0.0
 10
10.76894578216665
 20
43.37733835455403
 30
0.0
 10
11.09952769696095
 20
43.525867335139
 30
0.0
 10
11.44201804101515
 20
43.66758760689821
 30
0.0
 10
11.79120487864833
 20
43.7942871417744
 30
0.0
 10
12.13872260955182
 20
43.90600845367133
 30
0.0
 10
12.48116295606953
 20
44.00060294863189
 30
0.0
 10
12.81925245336197
 20
44.0775483910668
 30
0.0
 10
13.15228663930896
 20
44.13720369645529
 30
0.0
 10
13.48026277404836
 20
44.17886705711662
 30
0.0
 10
13.80290618032088
 20
44.20818105284753
 30
0.0
 10
14.01703577868648
 20
44.21051800453706
 30
0.0
 10
14.12328978207237
 20
44.21167763157894
 30
0.0
  0
SPLINE
  5
CC
330
1F
100
AcDbEntity
  8
0
  6
Continuous
 62
     7
370
    15
100
AcDbSpline
210
0.0
220
0.0
230
1.0
 70
     8
 71
     3
 72
    11
 73
     7
 74
     0
 42
0.00000001
 43
0.00000001
 12
1.0
 22
0.0
 32
0.0
 13
1.0
 23
0.0
 33
0.0
 40
0.0
 40
0.0
 40
0.0
 40
0.0
 40
0.2804455904361106
 40
0.5233335601210345
 40
0.7547740093865609
 40
1.0
 40
1.0
 40
1.0
 40
1.0
 10
9.05686708470395
 20
41.5729158100329
 30
0.0
 10
9.058019280028796
 20
41.6394426141598
 30
0.0
 10
9.06016936725381
 20
41.76358687042379
 30
0.0
 10
9.065186870792187
 20
41.94266283199078
 30
0.0
 10
9.088013129533824
 20
42.1124701442299
 30
0.0
 10
9.119401890864555
 20
42.22125819080536
 30
0.0
 10
9.135550164473685
 20
42.27722532894737
 30
0.0
  0
SPLINE
  5
CD
330
1F
100
AcDbEntity
  8
0
  6
Continuous
 62
     7
370
    15
100
AcDbSpline
210
0.0
220
0.0
230
1.0
 70
     8
 71
     3
 72
    11
 73
     7
 74
     0
 42
0.00000001
 43
0.00000001
 12
1.0
 22
0.0
 32
0.0
 13
1.0
 23
0.0
 33
0.0
 40
0.0
 40
0.0
 40
0.0
 40
0.0
 40
0.2694050569953778
 40
0.5906109511678154
 40
0.8705465543702493
 40
1.0
 40
1.0
 40
1.0
 40
1.0
 10
9.16241755756579
 20
41.34838116776316
 30
0.0
 10
9.15217782173528
 20
41.3682158037635
 30
0.0
 10
9.129729467624879
 20
41.41169885254097
 30
0.0
 10
9.096737577482555
 20
41.47570807971129
 30
0.0
 10
9.069371184527053
 20
41.53001166214565
 30
0.0
 10
9.05987111431044
 20
41.56260836428967
 30
0.0
 10
9.05686708470395
 20
41.5729158100329
 30
0.0
  0
SPLINE
  5
CF
330
1F
100
AcDbEntity
  8
0
  6
Continuous
 62
     7
370
    15
100
AcDbSpline
210
0.0
220
0.0
230
1.0
 70
     8
 71
     3
 72
     9
 73
     5
 74
     0
 42
0.00000001
 43
0.00000001
 12
1.0
 22
0.0
 32
0.0
 13
1.0
 23
0.0
 33
0.0
 40
0.0
 40
0.0
 40
0.0
 40
0.0
 40
0.5004011115117623
 40
1.0
 40
1.0
 40
1.0
 40
1.0
 10
10.76678474506579
 20
42.40964319490132
 30
0.0
 10
10.55432941440472
 20
42.21077647398096
 30
0.0
 10
10.12975935296097
 20
41.81336184730367
 30
0.0
 10
9.70608767273086
 20
41.41498962251714
 30
0.0
 10
9.49442177220395
 20
41.21596330180921
 30
0.0
  0
SPLINE
  5
D0
330
1F
100
AcDbEntity
  8
0
  6
Continuous
 62
     7
370
    15
100
AcDbSpline
210
0.0
220
0.0
230
1.0
 70
     8
 71
     3
 72
    15
 73
    11
 74
     0
 42
0.00000001
 43
0.00000001
 12
1.0
 22
0.0
 32
0.0
 13
1.0
 23
0.0
 33
0.0
 40
0.0
 40
0.0
 40
0.0
 40
0.0
 40
0.1503639683670019
 40
0.2933912431037718
 40
0.4276898133900733
 40
0.5545940487463041
 40
0.6752463612288996
 40
0.7893077012670586
 40
0.8968914436284536
 40
1.0
 40
1.0
 40
1.0
 40
1.0
 10
12.96991097861842
 20
42.86063157894738
 30
0.0
 10
12.85600854205198
 20
42.85909844748849
 30
0.0
 10
12.63376129878149
 20
42.85610699049617
 30
0.0
 10
12.31037850299797
 20
42.83466901322413
 30
0.0
 10
12.00585656836785
 20
42.80132946350924
 30
0.0
 10
11.72084275255528
 20
42.75093170999742
 30
0.0
 10
11.45406137630944
 20
42.68818607762105
 30
0.0
 10
11.20586743104522
 20
42.61241187140863
 30
0.0
 10
10.97730832628228
 20
42.52023031561213
 30
0.0
 10
10.83595849710727
 20
42.44597986570479
 30
0.0
 10
10.76678474506579
 20
42.40964319490132
 30
0.0
  0
SPLINE
  5
D1
330
1F
100
AcDbEntity
  8
0
  6
Continuous
 62
     7
370
    15
100
AcDbSpline
210
0.0
220
0.0
230
1.0
 70
     8
 71
     3
 72
    15
 73
    11
 74
     0
 42
0.00000001
 43
0.00000001
 12
1.0
 22
0.0
 32
0.0
 13
1.0
 23
0.0
 33
0.0
 40
0.0
 40
0.0
 40
0.0
 40
0.0
 40
0.109353029183392
 40
0.2227574647816975
 40
0.3391542468598235
 40
0.4606025334484016
 40
0.5868803497211299
 40
0.7186821039008103
 40
0.8562442493540525
 40
0.9999999999999999
 40
0.9999999999999999
 40
0.9999999999999999
 40
0.9999999999999999
 10
15.82169284539474
 20
42.23500513980263
 30
0.0
 10
15.72645427489737
 20
42.28510861268256
 30
0.0
 10
15.5324486522653
 20
42.3871718356114
 30
0.0
 10
15.22349148999028
 20
42.51439555255056
 30
0.0
 10
14.89495183209797
 20
42.62207597737895
 30
0.0
 10
14.5475265018372
 20
42.7105535085765
 30
0.0
 10
14.17975759235833
 20
42.77603106265813
 30
0.0
 10
13.79375248601156
 20
42.8268394132557
 30
0.0
 10
13.38806489378216
 20
42.85522950458291
 30
0.0
 10
13.11132654370977
 20
42.85880465022277
 30
0.0
 10
12.96991097861842
 20
42.86063157894737
 30
0.0
  0
SPLINE
  5
D2
330
1F
100
AcDbEntity
  8
0
  6
Continuous
 62
     7
370
    15
100
AcDbSpline
210
0.0
220
0.0
230
1.0
 70
     8
 71
     3
 72
    15
 73
    11
 74
     0
 42
0.00000001
 43
0.00000001
 12
1.0
 22
0.0
 32
0.0
 13
1.0
 23
0.0
 33
0.0
 40
0.0
 40
0.0
 40
0.0
 40
0.0
 40
0.1331684682969626
 40
0.2597203508744642
 40
0.3815263383307071
 40
0.5004646006365564
 40
0.6191157138075666
 40
0.7405583269089425
 40
0.8666142187759095
 40
0.9999999999999999
 40
0.9999999999999999
 40
0.9999999999999999
 40
0.9999999999999999
 10
17.22647368421053
 20
39.83613075657895
 30
0.0
 10
17.22303350141921
 20
39.96632366537894
 30
0.0
 10
17.21632406416985
 20
40.2202407403993
 30
0.0
 10
17.14617997487107
 20
40.58764596974222
 30
0.0
 10
17.03814150409401
 20
40.93064324473604
 30
0.0
 10
16.88290735193028
 20
41.24699597626391
 30
0.0
 10
16.68257594936292
 20
41.53638808945131
 30
0.0
 10
16.43754465775433
 20
41.79803737151629
 30
0.0
 10
16.15179808315419
 20
42.03846992981721
 30
0.0
 10
15.93378110333351
 20
42.16827099931937
 30
0.0
 10
15.82169284539474
 20
42.23500513980263
 30
0.0
  0
SPLINE
  5
D3
330
1F
100
AcDbEntity
  8
0
  6
Continuous
 62
     7
370
    15
100
AcDbSpline
210
0.0
220
0.0
230
1.0
 70
     8
 71
     3
 72
    15
 73
    11
 74
     0
 42
0.00000001
 43
0.00000001
 12
1.0
 22
0.0
 32
0.0
 13
1.0
 23
0.0
 33
0.0
 40
0.0
 40
0.0
 40
0.0
 40
0.0
 40
0.1432670268036314
 40
0.2792562015694459
 40
0.4092845250988893
 40
0.5335955523377842
 40
0.6535424870822834
 40
0.7707196224619749
 40
0.8859532299502659
 40
1.0
 40
1.0
 40
1.0
 40
1.0
 10
16.17864535361842
 20
37.39695528371711
 30
0.0
 10
16.26197047834029
 20
37.49624712856968
 30
0.0
 10
16.42438787712546
 20
37.68978687081865
 30
0.0
 10
16.6383156651096
 20
37.99250466884094
 30
0.0
 10
16.81919586779722
 20
38.29601978179947
 30
0.0
 10
16.96933314929527
 20
38.60003743454102
 30
0.0
 10
17.0822797552935
 20
38.90736056203411
 30
0.0
 10
17.16659165070411
 20
39.21514854904632
 30
0.0
 10
17.21528850614042
 20
39.52560852208667
 30
0.0
 10
17.22275818009065
 20
39.73298115678385
 30
0.0
 10
17.22647368421053
 20
39.83613075657895
 30
0.0
  0
SPLINE
  5
D4
330
1F
100
AcDbEntity
  8
0
  6
Continuous
 62
     7
370
    15
100
AcDbSpline
210
0.0
220
0.0
230
1.0
 70
     8
 71
     3
 72
    15
 73
    11
 74
     0
 42
0.00000001
 43
0.00000001
 12
1.0
 22
0.0
 32
0.0
 13
1.0
 23
0.0
 33
0.0
 40
0.0
 40
0.0
 40
0.0
 40
0.0
 40
0.1189932957724674
 40
0.2377741089823766
 40
0.3583044825989792
 40
0.4803566761148536
 40
0.6048436611806894
 40
0.7328042257301147
 40
0.8643577426857342
 40
0.9999999999999999
 40
0.9999999999999999
 40
0.9999999999999999
 40
0.9999999999999999
 10
13.96400452302632
 20
35.89238127055922
 30
0.0
 10
14.06635521616301
 20
35.92586519188889
 30
0.0
 10
14.27087383804269
 20
35.99277324336956
 30
0.0
 10
14.56754136346612
 20
36.12427609212202
 30
0.0
 10
14.85809857904209
 20
36.27453839201853
 30
0.0
 10
15.1384828455026
 20
36.45300673511143
 30
0.0
 10
15.41234622690647
 20
36.65277947582513
 30
0.0
 10
15.67665142475573
 20
36.87849640103351
 30
0.0
 10
15.93501073065559
 20
37.12588891326288
 30
0.0
 10
16.09660952872713
 20
37.30568273374013
 30
0.0
 10
16.17864535361842
 20
37.39695528371711
 30
0.0
  0
SPLINE
  5
D6
330
1F
100
AcDbEntity
  8
0
  6
Continuous
 62
     7
370
    15
100
AcDbSpline
210
0.0
220
0.0
230
1.0
 70
     8
 71
     3
 72
    15
 73
    11
 74
     0
 42
0.00000001
 43
0.00000001
 12
1.0
 22
0.0
 32
0.0
 13
1.0
 23
0.0
 33
0.0
 40
0.0
 40
0.0
 40
0.0
 40
0.0
 40
0.1487808407774343
 40
0.2909957108331959
 40
0.4266646301597282
 40
0.5549170265773865
 40
0.6760521942410782
 40
0.7906985343609608
 40
0.8988904632862308
 40
1.0
 40
1.0
 40
1.0
 40
1.0
 10
14.48216138980263
 20
37.93046494654605
 30
0.0
 10
14.44738902508244
 20
37.83523166578183
 30
0.0
 10
14.37937886371873
 20
37.6489679231779
 30
0.0
 10
14.28350694765349
 20
37.37448401751755
 30
0.0
 10
14.19525534172955
 20
37.11217449370384
 30
0.0
 10
14.11518798791051
 20
36.86230274153035
 30
0.0
 10
14.03941599383761
 20
36.62609569238968
 30
0.0
 10
13.97215287369661
 20
36.40154393797437
 30
0.0
 10
13.91314558119368
 20
36.18882431831013
 30
0.0
 10
13.87626860996621
 20
36.05105282259709
 30
0.0
 10
13.85845405016448
 20
35.984498046875
 30
0.0
  0
SPLINE
  5
D7
330
1F
100
AcDbEntity
  8
0
  6
Continuous
 62
     7
370
    15
100
AcDbSpline
210
0.0
220
0.0
230
1.0
 70
     8
 71
     3
 72
    15
 73
    11
 74
     0
 42
0.00000001
 43
0.00000001
 12
1.0
 22
0.0
 32
0.0
 13
1.0
 23
0.0
 33
0.0
 40
0.0
 40
0.0
 40
0.0
 40
0.0
 40
0.0584974173736012
 40
0.1353071681071544
 40
0.2313996447513192
 40
0.3467821630792482
 40
0.4814588953384157
 40
0.6354324453284982
 40
0.8083668995384773
 40
1.0
 40
1.0
 40
1.0
 40
1.0
 10
15.11738332648027
 20
39.74209488075659
 30
0.0
 10
15.10667995735989
 20
39.70621777390841
 30
0.0
 10
15.0819225812242
 20
39.62323240557151
 30
0.0
 10
15.03487467906968
 20
39.48279242709534
 30
0.0
 10
14.9754585644136
 20
39.30812909358175
 30
0.0
 10
14.90232331273595
 20
39.09901326958919
 30
0.0
 10
14.81606772139315
 20
38.85524875136558
 30
0.0
 10
14.7155831122342
 20
38.57745519688282
 30
0.0
 10
14.60569478672713
 20
38.26430931637345
 30
0.0
 10
14.52472352568779
 20
38.04548752171068
 30
0.0
 10
14.48216138980263
 20
37.93046494654606
 30
0.0
  0
SPLINE
  5
D8
330
1F
100
AcDbEntity
  8
0
  6
Continuous
 62
     7
370
    15
100
AcDbSpline
210
0.0
220
0.0
230
1.0
 70
     8
 71
     3
 72
    11
 73
     7
 74
     0
 42
0.00000001
 43
0.00000001
 12
1.0
 22
0.0
 32
0.0
 13
1.0
 23
0.0
 33
0.0
 40
0.0
 40
0.0
 40
0.0
 40
0.0
 40
0.2360766914580881
 40
0.4816840862717724
 40
0.7355319666351507
 40
1.0
 40
1.0
 40
1.0
 40
1.0
 10
15.51655602384869
 20
41.71492917351974
 30
0.0
 10
15.49838324453025
 20
41.55732676610733
 30
0.0
 10
15.46130402867478
 20
41.23575935028241
 30
0.0
 10
15.37306553520573
 20
40.74923120078472
 30
0.0
 10
15.26023438971748
 20
40.24833448110171
 30
0.0
 10
15.16564637517808
 20
39.91313082498088
 30
0.0
 10
15.11738332648027
 20
39.74209488075658
 30
0.0
  0
SPLINE
  5
DA
330
1F
100
AcDbEntity
  8
0
  6
Continuous
 62
     7
370
    15
100
AcDbSpline
210
0.0
220
0.0
230
1.0
 70
     8
 71
     3
 72
    15
 73
    11
 74
     0
 42
0.00000001
 43
0.00000001
 12
1.0
 22
0.0
 32
0.0
 13
1.0
 23
0.0
 33
0.0
 40
0.0
 40
0.0
 40
0.0
 40
0.0
 40
0.1924282424317149
 40
0.365179009441119
 40
0.5180025954408866
 40
0.6511988080862482
 40
0.7648738327931772
 40
0.8599067544163312
 40
0.9381165724307589
 40
1.0
 40
1.0
 40
1.0
 40
1.0
 10
14.2019728618421
 20
40.40802240953948
 30
0.0
 10
14.25646425841836
 20
40.52150775950012
 30
0.0
 10
14.35987482837065
 20
40.73687358709903
 30
0.0
 10
14.51457376846342
 20
41.03840637281131
 30
0.0
 10
14.66128085751827
 20
41.30043238571476
 30
0.0
 10
14.80219420159978
 20
41.5206733646585
 30
0.0
 10
14.92868493920754
 20
41.70557652994108
 30
0.0
 10
15.05024277014014
 20
41.84847086543482
 30
0.0
 10
15.16086409551828
 20
41.95733600469099
 30
0.0
 10
15.24118736555306
 20
42.00217732564224
 30
0.0
 10
15.27666858552632
 20
42.02198509457237
 30
0.0
  0
SPLINE
  5
DB
330
1F
100
AcDbEntity
  8
0
  6
Continuous
 62
     7
370
    15
100
AcDbSpline
210
0.0
220
0.0
230
1.0
 70
     8
 71
     3
 72
    15
 73
    11
 74
     0
 42
0.00000001
 43
0.00000001
 12
1.0
 22
0.0
 32
0.0
 13
1.0
 23
0.0
 33
0.0
 40
0.0
 40
0.0
 40
0.0
 40
0.0
 40
0.1635178380072639
 40
0.3156619705206968
 40
0.4568008497933526
 40
0.5874119923275479
 40
0.70666978061208
 40
0.8151792206606712
 40
0.9129510546422367
 40
1.0
 40
1.0
 40
1.0
 40
1.0
 10
13.07546145148026
 20
37.65027641858553
 30
0.0
 10
13.13340585866147
 20
37.80198939862738
 30
0.0
 10
13.24526427101805
 20
38.09486275615949
 30
0.0
 10
13.41147720395813
 20
38.51700124422657
 30
0.0
 10
13.56389300376098
 20
38.90944691506611
 30
0.0
 10
13.70977376412588
 20
39.26935289400036
 30
0.0
 10
13.84616848192122
 20
39.59811585990071
 30
0.0
 10
13.9727679319774
 20
39.89561633587515
 30
0.0
 10
14.08938299184894
 20
40.16259892117357
 30
0.0
 10
14.16592313452586
 20
40.32944118519728
 30
0.0
 10
14.2019728618421
 20
40.40802240953948
 30
0.0
  0
SPLINE
  5
DC
330
1F
100
AcDbEntity
  8
0
  6
Continuous
 62
     7
370
    15
100
AcDbSpline
210
0.0
220
0.0
230
1.0
 70
     8
 71
     3
 72
     9
 73
     5
 74
     0
 42
0.00000001
 43
0.00000001
 12
1.0
 22
0.0
 32
0.0
 13
1.0
 23
0.0
 33
0.0
 40
0.0
 40
0.0
 40
0.0
 40
0.0
 40
0.499338254874315
 40
1.0
 40
1.0
 40
1.0
 40
1.0
 10
12.37307103207237
 20
35.75804430509869
 30
0.0
 10
12.48829595595818
 20
36.07362446822563
 30
0.0
 10
12.71905120605376
 20
36.70562123604063
 30
0.0
 10
12.95655325912079
 20
37.3351136487134
 30
0.0
 10
13.07546145148026
 20
37.65027641858553
 30
0.0
  0
SPLINE
  5
DD
330
1F
100
AcDbEntity
  8
0
  6
Continuous
 62
     7
370
    15
100
AcDbSpline
210
0.0
220
0.0
230
1.0
 70
     8
 71
     3
 72
    11
 73
     7
 74
     0
 42
0.00000001
 43
0.00000001
 12
1.0
 22
0.0
 32
0.0
 13
1.0
 23
0.0
 33
0.0
 40
0.0
 40
0.0
 40
0.0
 40
0.0
 40
0.193935417551037
 40
0.4271066678010437
 40
0.6946598973844917
 40
1.0
 40
1.0
 40
1.0
 40
1.0
 10
11.90864895148026
 20
35.51815686677632
 30
0.0
 10
11.93800139275292
 20
35.53492195889925
 30
0.0
 10
12.0026446824733
 20
35.57184395449149
 30
0.0
 10
12.10952794687786
 20
35.62875000596972
 30
0.0
 10
12.23473505584994
 20
35.69250304187823
 30
0.0
 10
12.32497502536079
 20
35.73525722452995
 30
0.0
 10
12.37307103207237
 20
35.75804430509869
 30
0.0
  0
SPLINE
  5
DE
330
1F
100
AcDbEntity
  8
0
  6
Continuous
 62
     7
370
    15
100
AcDbSpline
210
0.0
220
0.0
230
1.0
 70
     8
 71
     3
 72
    11
 73
     7
 74
     0
 42
0.00000001
 43
0.00000001
 12
1.0
 22
0.0
 32
0.0
 13
1.0
 23
0.0
 33
0.0
 40
0.0
 40
0.0
 40
0.0
 40
0.0
 40
0.1623427644179606
 40
0.378407399012559
 40
0.6578844141889668
 40
1.0
 40
1.0
 40
1.0
 40
1.0
 10
11.5229099506579
 20
35.18615265213817
 30
0.0
 10
11.5366011753701
 20
35.21059092882939
 30
0.0
 10
11.5685142744923
 20
35.26755450680115
 30
0.0
 10
11.65295463789388
 20
35.34478663384056
 30
0.0
 10
11.76862042026675
 20
35.42978625155147
 30
0.0
 10
11.85893894211995
 20
35.48678537361037
 30
0.0
 10
11.90864895148026
 20
35.51815686677632
 30
0.0
  0
SPLINE
  5
DF
330
1F
100
AcDbEntity
  8
0
  6
Continuous
 62
     7
370
    15
100
AcDbSpline
210
0.0
220
0.0
230
1.0
 70
     8
 71
     3
 72
    11
 73
     7
 74
     0
 42
0.00000001
 43
0.00000001
 12
1.0
 22
0.0
 32
0.0
 13
1.0
 23
0.0
 33
0.0
 40
0.0
 40
0.0
 40
0.0
 40
0.0
 40
0.2609409031246284
 40
0.5305549648475968
 40
0.7852227991739005
 40
1.0
 40
1.0
 40
1.0
 40
1.0
 10
11.90864895148026
 20
34.55860711348684
 30
0.0
 10
11.86800180621627
 20
34.60891237053313
 30
0.0
 10
11.78535648511691
 20
34.71119493169639
 30
0.0
 10
11.66939312007812
 20
34.86681401380877
 30
0.0
 10
11.56864631561174
 20
35.02204842317283
 30
0.0
 10
11.53726658498548
 20
35.13464037281199
 30
0.0
 10
11.5229099506579
 20
35.18615265213816
 30
0.0
  0
SPLINE
  5
E0
330
1F
100
AcDbEntity
  8
0
  6
Continuous
 62
     7
370
    15
100
AcDbSpline
210
0.0
220
0.0
230
1.0
 70
     8
 71
     3
 72
     9
 73
     5
 74
     0
 42
0.00000001
 43
0.00000001
 12
1.0
 22
0.0
 32
0.0
 13
1.0
 23
0.0
 33
0.0
 40
0.0
 40
0.0
 40
0.0
 40
0.0
 40
0.4997430771432019
 40
1.0
 40
1.0
 40
1.0
 40
1.0
 10
11.35019099506579
 20
33.22675205592107
 30
0.0
 10
11.44281159939991
 20
33.44878487093658
 30
0.0
 10
11.62814804240495
 20
33.89307879949836
 30
0.0
 10
11.81511662412039
 20
34.33668835986699
 30
0.0
 10
11.90864895148026
 20
34.55860711348684
 30
0.0
  0
SPLINE
  5
E1
330
1F
100
AcDbEntity
  8
0
  6
Continuous
 62
     7
370
    15
100
AcDbSpline
210
0.0
220
0.0
230
1.0
 70
     8
 71
     3
 72
    11
 73
     7
 74
     0
 42
0.00000001
 43
0.00000001
 12
1.0
 22
0.0
 32
0.0
 13
1.0
 23
0.0
 33
0.0
 40
0.0
 40
0.0
 40
0.0
 40
0.0
 40
0.1980112302337189
 40
0.4303395623580256
 40
0.6976832156797451
 40
1.0
 40
1.0
 40
1.0
 40
1.0
 10
10.95293739720395
 20
31.85459590871711
 30
0.0
 10
10.96576522113749
 20
31.94836310473448
 30
0.0
 10
10.99364404463173
 20
32.15214818323749
 30
0.0
 10
11.08215198296011
 20
32.47400915428723
 30
0.0
 10
11.19790909750582
 20
32.83907111502272
 30
0.0
 10
11.29739446274707
 20
33.09234205937219
 30
0.0
 10
11.35019099506579
 20
33.22675205592106
 30
0.0
  0
SPLINE
  5
E4
330
1F
100
AcDbEntity
  8
0
  6
Continuous
 62
     7
370
    15
100
AcDbSpline
210
0.0
220
0.0
230
1.0
 70
     8
 71
     3
 72
    11
 73
     7
 74
     0
 42
0.00000001
 43
0.00000001
 12
1.0
 22
0.0
 32
0.0
 13
1.0
 23
0.0
 33
0.0
 40
0.0
 40
0.0
 40
0.0
 40
0.0
 40
0.3015536850218486
 40
0.568055489885547
 40
0.8024406969336517
 40
1.0
 40
1.0
 40
1.0
 40
1.0
 10
12.06793421052631
 20
31.84116221217106
 30
0.0
 10
11.9862029509282
 20
31.81004302029141
 30
0.0
 10
11.83224067815211
 20
31.75142185707547
 30
0.0
 10
11.61249154617808
 20
31.67483282674501
 30
0.0
 10
11.42031377312672
 20
31.61070138973431
 30
0.0
 10
11.29977265054538
 20
31.57657989761331
 30
0.0
 10
11.24464052220395
 20
31.56097368421053
 30
0.0
  0
SPLINE
  5
E5
330
1F
100
AcDbEntity
  8
0
  6
Continuous
 62
     7
370
    15
100
AcDbSpline
210
0.0
220
0.0
230
1.0
 70
     8
 71
     3
 72
    15
 73
    11
 74
     0
 42
0.00000001
 43
0.00000001
 12
1.0
 22
0.0
 32
0.0
 13
1.0
 23
0.0
 33
0.0
 40
0.0
 40
0.0
 40
0.0
 40
0.0
 40
0.0650434029683456
 40
0.1454481351054139
 40
0.2409911535915836
 40
0.3564608594340692
 40
0.4898842694040407
 40
0.6404108615586491
 40
0.8103675231072719
 40
0.9999999999999999
 40
0.9999999999999999
 40
0.9999999999999999
 40
0.9999999999999999
 10
12.78375832648027
 20
32.26912140213816
 30
0.0
 10
12.77330869868735
 20
32.25405628731881
 30
0.0
 10
12.7499415498965
 20
32.22036812286822
 30
0.0
 10
12.70065449979019
 20
32.17330026290416
 30
0.0
 10
12.63634003674115
 20
32.12231388109504
 30
0.0
 10
12.55306410259778
 20
32.07246387654902
 30
0.0
 10
12.45574692761686
 20
32.01637137794861
 30
0.0
 10
12.34165327805844
 20
31.95889116026018
 30
0.0
 10
12.21102420832688
 20
31.89944317388938
 30
0.0
 10
12.11733960525935
 20
31.86128516949423
 30
0.0
 10
12.06793421052631
 20
31.84116221217106
 30
0.0
  0
SPLINE
  5
E6
330
1F
100
AcDbEntity
  8
0
  6
Continuous
 62
     7
370
    15
100
AcDbSpline
210
0.0
220
0.0
230
1.0
 70
     8
 71
     3
 72
     9
 73
     5
 74
     0
 42
0.00000001
 43
0.00000001
 12
1.0
 22
0.0
 32
0.0
 13
1.0
 23
0.0
 33
0.0
 40
0.0
 40
0.0
 40
0.0
 40
0.0
 40
0.5679902610427062
 40
1.0
 40
1.0
 40
1.0
 40
1.0
 10
12.77032462993421
 20
32.56274362664474
 30
0.0
 10
12.77077309747612
 20
32.50704874377865
 30
0.0
 10
12.77156266654563
 20
32.4089926912614
 30
0.0
 10
12.78007913092632
 20
32.31131787431142
 30
0.0
 10
12.78375832648027
 20
32.26912140213816
 30
0.0
  0
SPLINE
  5
E7
330
1F
100
AcDbEntity
  8
0
  6
Continuous
 62
     7
370
    15
100
AcDbSpline
210
0.0
220
0.0
230
1.0
 70
     8
 71
     3
 72
    15
 73
    11
 74
     0
 42
0.00000001
 43
0.00000001
 12
1.0
 22
0.0
 32
0.0
 13
1.0
 23
0.0
 33
0.0
 40
0.0
 40
0.0
 40
0.0
 40
0.0
 40
0.1760698502952587
 40
0.3377067326612562
 40
0.484815707106926
 40
0.6164898719324944
 40
0.7342182477047771
 40
0.8376012702904934
 40
0.9264540088196074
 40
1.0
 40
1.0
 40
1.0
 40
1.0
 10
27.27104050164474
 20
34.85222933799342
 30
0.0
 10
27.22846917263348
 20
34.76091131352131
 30
0.0
 10
27.14681621273528
 20
34.58576087393244
 30
0.0
 10
27.03515777161225
 20
34.33179283243472
 30
0.0
 10
26.93029551748576
 20
34.10261401167061
 30
0.0
 10
26.84049064982258
 20
33.89425445473576
 30
0.0
 10
26.76054810068147
 20
33.70885223850162
 30
0.0
 10
26.69695278365424
 20
33.54326636080576
 30
0.0
 10
26.63964948325084
 20
33.4023488594124
 30
0.0
 10
26.60927380034082
 20
33.31450957782766
 30
0.0
 10
26.59551747532895
 20
33.27472954358554
 30
0.0
  0
SPLINE
  5
E8
330
1F
100
AcDbEntity
  8
0
  6
Continuous
 62
     7
370
    15
100
AcDbSpline
210
0.0
220
0.0
230
1.0
 70
     8
 71
     3
 72
    23
 73
    19
 74
     0
 42
0.00000001
 43
0.00000001
 12
1.0
 22
0.0
 32
0.0
 13
1.0
 23
0.0
 33
0.0
 40
0.0
 40
0.0
 40
0.0
 40
0.0
 40
0.0429052328543246
 40
0.090635511502523
 40
0.142371571655148
 40
0.198424185400364
 40
0.2603047577365656
 40
0.3274619501976088
 40
0.3995304153687183
 40
0.4771727961557174
 40
0.5559735919697032
 40
0.6302140933122038
 40
0.7010435698274944
 40
0.7679707055720456
 40
0.8316251006750239
 40
0.8909690068374597
 40
0.9472704331220049
 40
1.0
 40
1.0
 40
1.0
 40
1.0
 10
30.44139288651316
 20
35.86551387746712
 30
0.0
 10
30.40693146267359
 20
35.83142619905802
 30
0.0
 10
30.33413314486912
 20
35.75941740285756
 30
0.0
 10
30.20459601353657
 20
35.66361799692199
 30
0.0
 10
30.05645648474845
 20
35.5693824745833
 30
0.0
 10
29.88748525987494
 20
35.47895821230529
 30
0.0
 10
29.69788448646371
 20
35.39107621936814
 30
0.0
 10
29.48679409924163
 20
35.30746916721621
 30
0.0
 10
29.2557413066474
 20
35.22656918756199
 30
0.0
 10
29.00877189183459
 20
35.15215083888258
 30
0.0
 10
28.75778342407015
 20
35.08301086899336
 30
0.0
 10
28.51290312480396
 20
35.02075288362081
 30
0.0
 10
28.27926817079229
 20
34.96908321332562
 30
0.0
 10
28.05598361218274
 20
34.92642185037761
 30
0.0
 10
27.84409513207546
 20
34.89364348475114
 30
0.0
 10
27.64301490208152
 20
34.87113513053416
 30
0.0
 10
27.4536600693766
 20
34.85368689339538
 30
0.0
 10
27.33056954078466
 20
34.85270446162694
 30
0.0
 10
27.27104050164474
 20
34.85222933799343
 30
0.0
  0
SPLINE
  5
E9
330
1F
100
AcDbEntity
  8
0
  6
Continuous
 62
     7
370
    15
100
AcDbSpline
210
0.0
220
0.0
230
1.0
 70
     8
 71
     3
 72
    11
 73
     7
 74
     0
 42
0.00000001
 43
0.00000001
 12
1.0
 22
0.0
 32
0.0
 13
1.0
 23
0.0
 33
0.0
 40
0.0
 40
0.0
 40
0.0
 40
0.0
 40
0.171856512564992
 40
0.4475915668597674
 40
0.753731035852272
 40
1.0
 40
1.0
 40
1.0
 40
1.0
 10
30.21685824424342
 20
36.11499681332237
 30
0.0
 10
30.23756446861847
 20
36.11229232616152
 30
0.0
 10
30.29149277935545
 20
36.1052486265786
 30
0.0
 10
30.35230390753993
 20
36.0326161396757
 30
0.0
 10
30.41547579430954
 20
35.95767867578456
 30
0.0
 10
30.43340145533909
 20
35.89393252245392
 30
0.0
 10
30.44139288651316
 20
35.86551387746711
 30
0.0
  0
SPLINE
  5
EB
330
1F
100
AcDbEntity
  8
0
  6
Continuous
 62
     7
370
    15
100
AcDbSpline
210
0.0
220
0.0
230
1.0
 70
     8
 71
     3
 72
    19
 73
    15
 74
     0
 42
0.00000001
 43
0.00000001
 12
1.0
 22
0.0
 32
0.0
 13
1.0
 23
0.0
 33
0.0
 40
0.0
 40
0.0
 40
0.0
 40
0.0
 40
0.1009177796147323
 40
0.1975816375749265
 40
0.2913641039716134
 40
0.3837300377934563
 40
0.4330675409195622
 40
0.489894064317713
 40
0.5550427632948821
 40
0.6275064736842085
 40
0.7082721384079724
 40
0.7970129127734839
 40
0.8947103195478215
 40
1.0
 40
1.0
 40
1.0
 40
1.0
 10
31.45083922697368
 20
38.49276110197368
 30
0.0
 10
31.44784289927886
 20
38.3960053096057
 30
0.0
 10
31.44197654614547
 20
38.20657220897754
 30
0.0
 10
31.39735371208182
 20
37.92995654613941
 30
0.0
 10
31.3219609544577
 20
37.66909655431548
 30
0.0
 10
31.23386034482536
 20
37.46024979262552
 30
0.0
 10
31.13712779023975
 20
37.2962236141504
 30
0.0
 10
31.04744282302603
 20
37.15848250329067
 30
0.0
 10
30.93057896833831
 20
37.0130868008316
 30
0.0
 10
30.7966784776989
 20
36.85216861962925
 30
0.0
 10
30.63768979765723
 20
36.68319533355572
 30
0.0
 10
30.46190180732507
 20
36.49689956336053
 30
0.0
 10
30.25994453089651
 20
36.30338094034651
 30
0.0
 10
30.11784599437228
 20
36.17049252171743
 30
0.0
 10
30.04413928865132
 20
36.10156311677632
 30
0.0
  0
SPLINE
  5
EC
330
1F
100
AcDbEntity
  8
0
  6
Continuous
 62
     7
370
    15
100
AcDbSpline
210
0.0
220
0.0
230
1.0
 70
     8
 71
     3
 72
    11
 73
     7
 74
     0
 42
0.00000001
 43
0.00000001
 12
1.0
 22
0.0
 32
0.0
 13
1.0
 23
0.0
 33
0.0
 40
0.0
 40
0.0
 40
0.0
 40
0.0
 40
0.1954186545215431
 40
0.4247093422399463
 40
0.6933206686173055
 40
1.0
 40
1.0
 40
1.0
 40
1.0
 10
31.34336965460528
 20
39.31413569078948
 30
0.0
 10
31.36082286249457
 20
39.26268726029215
 30
0.0
 10
31.39875445331832
 20
39.15087281182358
 30
0.0
 10
31.42688688211746
 20
38.95984487891462
 30
0.0
 10
31.44947914129516
 20
38.73769035630188
 30
0.0
 10
31.45036629686082
 20
38.57792810411448
 30
0.0
 10
31.45083922697368
 20
38.49276110197368
 30
0.0
  0
SPLINE
  5
ED
330
1F
100
AcDbEntity
  8
0
  6
Continuous
 62
     7
370
    15
100
AcDbSpline
210
0.0
220
0.0
230
1.0
 70
     8
 71
     3
 72
    15
 73
    11
 74
     0
 42
0.00000001
 43
0.00000001
 12
1.0
 22
0.0
 32
0.0
 13
1.0
 23
0.0
 33
0.0
 40
0.0
 40
0.0
 40
0.0
 40
0.0
 40
0.1343875432845754
 40
0.2592939563741446
 40
0.378942871974403
 40
0.4948518311597832
 40
0.6107607903451583
 40
0.7319667024826146
 40
0.8612752091145176
 40
1.0
 40
1.0
 40
1.0
 40
1.0
 10
30.74652970805922
 20
39.73825668174343
 30
0.0
 10
30.78186233425476
 20
39.7376444834585
 30
0.0
 10
30.85003484646394
 20
39.73646327788315
 30
0.0
 10
30.94723080190601
 20
39.71340597068498
 30
0.0
 10
31.03661252152246
 20
39.68188572528437
 30
0.0
 10
31.11667215290038
 20
39.63499358706239
 30
0.0
 10
31.18688128708972
 20
39.57396038483604
 30
0.0
 10
31.24848037330905
 20
39.49986207275666
 30
0.0
 10
31.30314457844971
 20
39.4131037390767
 30
0.0
 10
31.32965089783772
 20
39.34788873023584
 30
0.0
 10
31.34336965460527
 20
39.31413569078948
 30
0.0
  0
SPLINE
  5
EE
330
1F
100
AcDbEntity
  8
0
  6
Continuous
 62
     7
370
    15
100
AcDbSpline
210
0.0
220
0.0
230
1.0
 70
     8
 71
     3
 72
    15
 73
    11
 74
     0
 42
0.00000001
 43
0.00000001
 12
1.0
 22
0.0
 32
0.0
 13
1.0
 23
0.0
 33
0.0
 40
0.0
 40
0.0
 40
0.0
 40
0.0
 40
0.1569288155410486
 40
0.3031372321052325
 40
0.4386720346816846
 40
0.5649508602630295
 40
0.6829433740609762
 40
0.7938368241646807
 40
0.8988548997202134
 40
1.0
 40
1.0
 40
1.0
 40
1.0
 10
29.08842773437501
 20
38.86314730674342
 30
0.0
 10
29.16116051633087
 20
38.93251085519788
 30
0.0
 10
29.30165742972055
 20
39.0664994666265
 30
0.0
 10
29.51846061481741
 20
39.24556222525074
 30
0.0
 10
29.73219734809252
 20
39.39623955023848
 30
0.0
 10
29.9417444736724
 20
39.52025379874028
 30
0.0
 10
30.14785992682785
 20
39.61728852845409
 30
0.0
 10
30.35013568999031
 20
39.68768883090619
 30
0.0
 10
30.54965639767752
 20
39.7300116496964
 30
0.0
 10
30.68173232943765
 20
39.73554297483078
 30
0.0
 10
30.74652970805921
 20
39.73825668174342
 30
0.0
  0
SPLINE
  5
EF
330
1F
100
AcDbEntity
  8
0
  6
Continuous
 62
     7
370
    15
100
AcDbSpline
210
0.0
220
0.0
230
1.0
 70
     8
 71
     3
 72
    11
 73
     7
 74
     0
 42
0.00000001
 43
0.00000001
 12
1.0
 22
0.0
 32
0.0
 13
1.0
 23
0.0
 33
0.0
 40
0.0
 40
0.0
 40
0.0
 40
0.0
 40
0.2813125902319585
 40
0.5422550367285665
 40
0.781297164548332
 40
0.9999999999999999
 40
0.9999999999999999
 40
0.9999999999999999
 40
0.9999999999999999
 10
27.88131414473684
 20
37.33746319901316
 30
0.0
 10
27.98288588451952
 20
37.48943180037207
 30
0.0
 10
28.17867444642151
 20
37.78236479510051
 30
0.0
 10
28.48357746218535
 20
38.18837970989512
 30
0.0
 10
28.78147167701001
 20
38.54844982592621
 30
0.0
 10
28.98918554564808
 20
38.76140223270498
 30
0.0
 10
29.08842773437501
 20
38.86314730674343
 30
0.0
  0
SPLINE
  5
F0
330
1F
100
AcDbEntity
  8
0
  6
Continuous
 62
     7
370
    15
100
AcDbSpline
210
0.0
220
0.0
230
1.0
 70
     8
 71
     3
 72
    15
 73
    11
 74
     0
 42
0.00000001
 43
0.00000001
 12
1.0
 22
0.0
 32
0.0
 13
1.0
 23
0.0
 33
0.0
 40
0.0
 40
0.0
 40
0.0
 40
0.0
 40
0.0754172840119643
 40
0.1642183520488258
 40
0.2681806065224314
 40
0.3855283264998232
 40
0.5185036796625639
 40
0.66486351211908
 40
0.825074670057667
 40
1.0
 40
1.0
 40
1.0
 40
1.0
 10
28.31886883223684
 20
38.62517896792764
 30
0.0
 10
28.30863176040489
 20
38.59255507605899
 30
0.0
 10
28.28634091437305
 20
38.52151775576461
 30
0.0
 10
28.24998187054215
 20
38.40549002735602
 30
0.0
 10
28.20538317629484
 20
38.27215083491615
 30
0.0
 10
28.15626583150436
 20
38.1192066716205
 30
0.0
 10
28.09573297802925
 20
37.94983450999491
 30
0.0
 10
28.03141570139362
 20
37.76121616688657
 30
0.0
 10
27.95738009409527
 20
37.55584648495199
 30
0.0
 10
27.90740090681929
 20
37.41235758830457
 30
0.0
 10
27.88131414473684
 20
37.33746319901316
 30
0.0
  0
SPLINE
  5
F1
330
1F
100
AcDbEntity
  8
0
  6
Continuous
 62
     7
370
    15
100
AcDbSpline
210
0.0
220
0.0
230
1.0
 70
     8
 71
     3
 72
    15
 73
    11
 74
     0
 42
0.00000001
 43
0.00000001
 12
1.0
 22
0.0
 32
0.0
 13
1.0
 23
0.0
 33
0.0
 40
0.0
 40
0.0
 40
0.0
 40
0.0
 40
0.0900890296451295
 40
0.1905044017890521
 40
0.3002603814384922
 40
0.4191559515873062
 40
0.549226879864483
 40
0.6886003297866601
 40
0.8394063680961849
 40
1.0
 40
1.0
 40
1.0
 40
1.0
 10
28.57218996710527
 20
39.93976212993422
 30
0.0
 10
28.57131820147163
 20
39.89944485567062
 30
0.0
 10
28.56947474515747
 20
39.81418898993861
 30
0.0
 10
28.55795033001057
 20
39.6801565610369
 30
0.0
 10
28.53522621237466
 20
39.53460827820432
 30
0.0
 10
28.509567121904
 20
39.37607633852971
 30
0.0
 10
28.47148381558309
 20
39.20643239164595
 30
0.0
 10
28.43027588252501
 20
39.02290327028598
 30
0.0
 10
28.37785762582786
 20
38.82802305021201
 30
0.0
 10
28.3389395081594
 20
38.69419576909436
 30
0.0
 10
28.31886883223685
 20
38.62517896792765
 30
0.0
  0
SPLINE
  5
F2
330
1F
100
AcDbEntity
  8
0
  6
Continuous
 62
     7
370
    15
100
AcDbSpline
210
0.0
220
0.0
230
1.0
 70
     8
 71
     3
 72
    15
 73
    11
 74
     0
 42
0.00000001
 43
0.00000001
 12
1.0
 22
0.0
 32
0.0
 13
1.0
 23
0.0
 33
0.0
 40
0.0
 40
0.0
 40
0.0
 40
0.0
 40
0.1310599498006978
 40
0.2519401176242491
 40
0.3676133047862222
 40
0.4845486560166804
 40
0.6058607640330625
 40
0.7303714430469401
 40
0.8600855599134729
 40
1.0
 40
1.0
 40
1.0
 40
1.0
 10
27.97535002055921
 20
40.64982894736843
 30
0.0
 10
28.02095497108481
 20
40.64704342739697
 30
0.0
 10
28.10862261186399
 20
40.6416887463497
 30
0.0
 10
28.23352810087145
 20
40.60649973533909
 30
0.0
 10
28.33768008751549
 20
40.53793251839064
 30
0.0
 10
28.42296855367
 20
40.4477817047845
 30
0.0
 10
28.4898334050469
 20
40.33962805410727
 30
0.0
 10
28.53764221205109
 20
40.21733398487908
 30
0.0
 10
28.56731896776413
 20
40.08253856705375
 30
0.0
 10
28.57052586064904
 20
39.98853963413166
 30
0.0
 10
28.57218996710527
 20
39.93976212993422
 30
0.0
  0
SPLINE
  5
F3
330
1F
100
AcDbEntity
  8
0
  6
Continuous
 62
     7
370
    15
100
AcDbSpline
210
0.0
220
0.0
230
1.0
 70
     8
 71
     3
 72
    23
 73
    19
 74
     0
 42
0.00000001
 43
0.00000001
 12
1.0
 22
0.0
 32
0.0
 13
1.0
 23
0.0
 33
0.0
 40
0.0
 40
0.0
 40
0.0
 40
0.0
 40
0.0409877667606777
 40
0.0861480243732171
 40
0.1370020193392003
 40
0.193957032189508
 40
0.2579151455429208
 40
0.3290021662097105
 40
0.4077187714760355
 40
0.4936960054401812
 40
0.5799525791531598
 40
0.6592389587919611
 40
0.7309654900355652
 40
0.7959293057245714
 40
0.8546536812731547
 40
0.9078999793781585
 40
0.9557960481980974
 40
1.0
 40
1.0
 40
1.0
 40
1.0
 10
24.75126284950658
 20
37.48139566200658
 30
0.0
 10
24.75545250810029
 20
37.54634647959747
 30
0.0
 10
24.76425832601065
 20
37.68286000690308
 30
0.0
 10
24.82478385631207
 20
37.89276907053048
 30
0.0
 10
24.92001236343972
 20
38.11592324363311
 30
0.0
 10
25.05507924652585
 20
38.35275203202034
 30
0.0
 10
25.22744757634508
 20
38.60356462379598
 30
0.0
 10
25.43568033715106
 20
38.87082373469151
 30
0.0
 10
25.68196977500113
 20
39.15180392550187
 30
0.0
 10
25.9566664416342
 20
39.43929108848515
 30
0.0
 10
26.24379993523921
 20
39.715633962021
 30
0.0
 10
26.526071751042
 20
39.96413921857
 30
0.0
 10
26.79794950488481
 20
40.17214063678438
 30
0.0
 10
27.05471618389689
 20
40.34558230609539
 30
0.0
 10
27.30162852159472
 20
40.47924023905012
 30
0.0
 10
27.53545925350598
 20
40.57742895002662
 30
0.0
 10
27.75939091521084
 20
40.63698373942462
 30
0.0
 10
27.90531357397405
 20
40.6456631923817
 30
0.0
 10
27.97535002055921
 20
40.64982894736843
 30
0.0
  0
SPLINE
  5
F5
330
1F
100
AcDbEntity
  8
0
  6
Continuous
 62
     7
370
    15
100
AcDbSpline
210
0.0
220
0.0
230
1.0
 70
     8
 71
     3
 72
    19
 73
    15
 74
     0
 42
0.00000001
 43
0.00000001
 12
1.0
 22
0.0
 32
0.0
 13
1.0
 23
0.0
 33
0.0
 40
0.0
 40
0.0
 40
0.0
 40
0.0
 40
0.1684587864334167
 40
0.3151599774618224
 40
0.4411953548019297
 40
0.5447770734025907
 40
0.6293575483367374
 40
0.6905247120765446
 40
0.7310228287452532
 40
0.7507780561703622
 40
0.7934668193771452
 40
0.8569371218139439
 40
0.9290096427750307
 40
1.0
 40
1.0
 40
1.0
 40
1.0
 10
26.03897861842105
 20
38.23752086759868
 30
0.0
 10
25.98420262835981
 20
38.17270568291698
 30
0.0
 10
25.88172533905573
 20
38.05144663448176
 30
0.0
 10
25.73476513258065
 20
37.88471569588649
 30
0.0
 10
25.61038357249288
 20
37.74166399980297
 30
0.0
 10
25.50826419891173
 20
37.62072376340551
 30
0.0
 10
25.42522660928899
 20
37.52651759323858
 30
0.0
 10
25.36229336752195
 20
37.45685791503989
 30
0.0
 10
25.32281550421275
 20
37.41026862236119
 30
0.0
 10
25.28710221591806
 20
37.37229379754989
 30
0.0
 10
25.22950917145753
 20
37.34294153740733
 30
0.0
 10
25.14486624861354
 20
37.31376777878146
 30
0.0
 10
25.04375973260469
 20
37.28814242727996
 30
0.0
 10
24.97268436796281
 20
37.27621387642498
 30
0.0
 10
24.93741550164474
 20
37.2702947162829
 30
0.0
  0
SPLINE
  5
F6
330
1F
100
AcDbEntity
  8
0
  6
Continuous
 62
     7
370
    15
100
AcDbSpline
210
0.0
220
0.0
230
1.0
 70
     8
 71
     3
 72
    11
 73
     7
 74
     0
 42
0.00000001
 43
0.00000001
 12
1.0
 22
0.0
 32
0.0
 13
1.0
 23
0.0
 33
0.0
 40
0.0
 40
0.0
 40
0.0
 40
0.0
 40
0.266866319283756
 40
0.5200345986420072
 40
0.7646842476163832
 40
1.0
 40
1.0
 40
1.0
 40
1.0
 10
27.00620476973685
 20
38.9936460731908
 30
0.0
 10
26.91050891479319
 20
38.93963430791847
 30
0.0
 10
26.72402919846595
 20
38.83438315913833
 30
0.0
 10
26.46691131301619
 20
38.65210910874475
 30
0.0
 10
26.23686292036498
 20
38.45577731148923
 30
0.0
 10
26.10407930386937
 20
38.3093236531719
 30
0.0
 10
26.03897861842105
 20
38.23752086759868
 30
0.0
  0
SPLINE
  5
F7
330
1F
100
AcDbEntity
  8
0
  6
Continuous
 62
     7
370
    15
100
AcDbSpline
210
0.0
220
0.0
230
1.0
 70
     8
 71
     3
 72
    11
 73
     7
 74
     0
 42
0.00000001
 43
0.00000001
 12
1.0
 22
0.0
 32
0.0
 13
1.0
 23
0.0
 33
0.0
 40
0.0
 40
0.0
 40
0.0
 40
0.0
 40
0.2935779118484627
 40
0.5585003214269081
 40
0.7939916738337206
 40
1.0
 40
1.0
 40
1.0
 40
1.0
 10
26.66076685855263
 20
37.61381352796053
 30
0.0
 10
26.70063004054779
 20
37.74727666754641
 30
0.0
 10
26.77646544593377
 20
38.00117589956981
 30
0.0
 10
26.87128816211264
 20
38.36574539837746
 30
0.0
 10
26.95053508370781
 20
38.6914928394022
 30
0.0
 10
26.9884931449336
 20
38.89751431654391
 30
0.0
 10
27.00620476973685
 20
38.9936460731908
 30
0.0
  0
SPLINE
  5
F8
330
1F
100
AcDbEntity
  8
0
  6
Continuous
 62
     7
370
    15
100
AcDbSpline
210
0.0
220
0.0
230
1.0
 70
     8
 71
     3
 72
    15
 73
    11
 74
     0
 42
0.00000001
 43
0.00000001
 12
1.0
 22
0.0
 32
0.0
 13
1.0
 23
0.0
 33
0.0
 40
0.0
 40
0.0
 40
0.0
 40
0.0
 40
0.0599801682497868
 40
0.1372559498206785
 40
0.2325014906403729
 40
0.3474034920812263
 40
0.4822100629809624
 40
0.6357054915295657
 40
0.8075248681829038
 40
1.0
 40
1.0
 40
1.0
 40
1.0
 10
26.17139648437501
 20
36.38942804276316
 30
0.0
 10
26.18791344588261
 20
36.41017775135371
 30
0.0
 10
26.22571012611929
 20
36.4576604617929
 30
0.0
 10
26.27577831766246
 20
36.54768295045237
 30
0.0
 10
26.33170366560054
 20
36.66155883682764
 30
0.0
 10
26.39054872060173
 20
36.80216564160931
 30
0.0
 10
26.45309533098057
 20
36.9688470101968
 30
0.0
 10
26.52060001809269
 20
37.16050663341063
 30
0.0
 10
26.58886326496729
 20
37.37873060323135
 30
0.0
 10
26.63590980340446
 20
37.53254541696614
 30
0.0
 10
26.66076685855263
 20
37.61381352796053
 30
0.0
  0
SPLINE
  5
FA
330
1F
100
AcDbEntity
  8
0
  6
Continuous
 62
     7
370
    15
100
AcDbSpline
210
0.0
220
0.0
230
1.0
 70
     8
 71
     3
 72
    11
 73
     7
 74
     0
 42
0.00000001
 43
0.00000001
 12
1.0
 22
0.0
 32
0.0
 13
1.0
 23
0.0
 33
0.0
 40
0.0
 40
0.0
 40
0.0
 40
0.0
 40
0.193077556764547
 40
0.423829665539485
 40
0.6929971993331018
 40
1.0
 40
1.0
 40
1.0
 40
1.0
 10
25.33466909950659
 20
36.02288003700659
 30
0.0
 10
25.37774463573156
 20
36.05484731092079
 30
0.0
 10
25.4723008877222
 20
36.12501952170649
 30
0.0
 10
25.63693138093156
 20
36.22505560997966
 30
0.0
 10
25.83230844053951
 20
36.33485471284474
 30
0.0
 10
25.97590126271781
 20
36.40551347837732
 30
0.0
 10
26.05241231496711
 20
36.44316282894737
 30
0.0
  0
SPLINE
  5
FB
330
1F
100
AcDbEntity
  8
0
  6
Continuous
 62
     7
370
    15
100
AcDbSpline
210
0.0
220
0.0
230
1.0
 70
     8
 71
     3
 72
    11
 73
     7
 74
     0
 42
0.00000001
 43
0.00000001
 12
1.0
 22
0.0
 32
0.0
 13
1.0
 23
0.0
 33
0.0
 40
0.0
 40
0.0
 40
0.0
 40
0.0
 40
0.2067697947820151
 40
0.4307194212473455
 40
0.6923703046402058
 40
1.0
 40
1.0
 40
1.0
 40
1.0
 10
24.91054810855264
 20
35.36462890625
 30
0.0
 10
24.91616441639827
 20
35.42054672495462
 30
0.0
 10
24.92786367289444
 20
35.53702839257566
 30
0.0
 10
25.01655107985337
 20
35.70536050594621
 30
0.0
 10
25.15177257669325
 20
35.87210505853285
 30
0.0
 10
25.27050700304537
 20
35.96998652889631
 30
0.0
 10
25.33466909950658
 20
36.02288003700659
 30
0.0
  0
SPLINE
  5
FC
330
1F
100
AcDbEntity
  8
0
  6
Continuous
 62
     7
370
    15
100
AcDbSpline
210
0.0
220
0.0
230
1.0
 70
     8
 71
     3
 72
    11
 73
     7
 74
     0
 42
0.00000001
 43
0.00000001
 12
1.0
 22
0.0
 32
0.0
 13
1.0
 23
0.0
 33
0.0
 40
0.0
 40
0.0
 40
0.0
 40
0.0
 40
0.321186334311078
 40
0.5762163010959284
 40
0.790958756014095
 40
1.0
 40
1.0
 40
1.0
 40
1.0
 10
25.25598601973685
 20
35.06141118421053
 30
0.0
 10
25.20444364263495
 20
35.07557571035085
 30
0.0
 10
25.1119753315312
 20
35.10098722381655
 30
0.0
 10
24.99838092918606
 20
35.16857547784973
 30
0.0
 10
24.92203670145695
 20
35.25824475122215
 30
0.0
 10
24.91434313872543
 20
35.32948699795882
 30
0.0
 10
24.91054810855264
 20
35.36462890625
 30
0.0
  0
SPLINE
  5
FD
330
1F
100
AcDbEntity
  8
0
  6
Continuous
 62
     7
370
    15
100
AcDbSpline
210
0.0
220
0.0
230
1.0
 70
     8
 71
     3
 72
     9
 73
     5
 74
     0
 42
0.00000001
 43
0.00000001
 12
1.0
 22
0.0
 32
0.0
 13
1.0
 23
0.0
 33
0.0
 40
0.0
 40
0.0
 40
0.0
 40
0.0
 40
0.5001755389912836
 40
1.0
 40
1.0
 40
1.0
 40
1.0
 10
25.78565748355264
 20
35.0095954975329
 30
0.0
 10
25.69739441346708
 20
35.01870981551048
 30
0.0
 10
25.5209302259869
 20
35.03693205403891
 30
0.0
 10
25.34428008249487
 20
35.05325338417321
 30
0.0
 10
25.25598601973685
 20
35.06141118421053
 30
0.0
  0
SPLINE
  5
FE
330
1F
100
AcDbEntity
  8
0
  6
Continuous
 62
     7
370
    15
100
AcDbSpline
210
0.0
220
0.0
230
1.0
 70
     8
 71
     3
 72
    23
 73
    19
 74
     0
 42
0.00000001
 43
0.00000001
 12
1.0
 22
0.0
 32
0.0
 13
1.0
 23
0.0
 33
0.0
 40
0.0
 40
0.0
 40
0.0
 40
0.0
 40
0.0246741619417509
 40
0.0611729009846181
 40
0.1088108087038897
 40
0.1681670718202196
 40
0.2391431701299354
 40
0.3219068310852807
 40
0.4164777696758653
 40
0.5227047035174585
 40
0.6281719404251094
 40
0.7208890233035746
 40
0.8002620815459398
 40
0.8664224454173974
 40
0.9197013505424901
 40
0.9593050147907439
 40
0.9864898659156301
 40
1.0
 40
1.0
 40
1.0
 40
1.0
 10
24.56511019736843
 20
31.30189525082237
 30
0.0
 10
24.56777354570246
 20
31.33395221923181
 30
0.0
 10
24.57437659646909
 20
31.41342878905439
 30
0.0
 10
24.60367441344865
 20
31.55243630307136
 30
0.0
 10
24.65044842068755
 20
31.73338219289583
 30
0.0
 10
24.71687567257876
 20
31.95557748753293
 30
0.0
 10
24.7991117970944
 20
32.22072239129385
 30
0.0
 10
24.90129785619645
 20
32.52767812211395
 30
0.0
 10
25.02294976687581
 20
32.87648339573069
 30
0.0
 10
25.1548128513438
 20
33.25306227879446
 30
0.0
 10
25.29189073042747
 20
33.62520903521357
 30
0.0
 10
25.41022445157337
 20
33.96690663513078
 30
0.0
 10
25.5178899443412
 20
34.25803414950678
 30
0.0
 10
25.60258997508267
 20
34.50281288242267
 30
0.0
 10
25.67478430103927
 20
34.69703649026582
 30
0.0
 10
25.72581001503654
 20
34.84491026173561
 30
0.0
 10
25.76279007283154
 20
34.94278147200678
 30
0.0
 10
25.77995798894714
 20
34.99294270799314
 30
0.0
 10
25.78565748355264
 20
35.0095954975329
 30
0.0
  0
SPLINE
  5
101
330
1F
100
AcDbEntity
  8
0
  6
Continuous
 62
     7
370
    15
100
AcDbSpline
210
0.0
220
0.0
230
1.0
 70
     8
 71
     3
 72
    11
 73
     7
 74
     0
 42
0.00000001
 43
0.00000001
 12
1.0
 22
0.0
 32
0.0
 13
1.0
 23
0.0
 33
0.0
 40
0.0
 40
0.0
 40
0.0
 40
0.0
 40
0.2200032937726318
 40
0.4608011201262111
 40
0.7199390968568371
 40
1.0
 40
1.0
 40
1.0
 40
1.0
 10
25.7069744037829
 20
31.18291108141448
 30
0.0
 10
25.64893312433466
 20
31.16130822106489
 30
0.0
 10
25.52736455086163
 20
31.1160606155572
 30
0.0
 10
25.33390568704572
 20
31.05549979309791
 30
0.0
 10
25.12211148262092
 20
30.99746659841546
 30
0.0
 10
24.97402882194963
 20
30.96416088942745
 30
0.0
 10
24.89711441200658
 20
30.94686184210527
 30
0.0
  0
SPLINE
  5
102
330
1F
100
AcDbEntity
  8
0
  6
Continuous
 62
     7
370
    15
100
AcDbSpline
210
0.0
220
0.0
230
1.0
 70
     8
 71
     3
 72
    15
 73
    11
 74
     0
 42
0.00000001
 43
0.00000001
 12
1.0
 22
0.0
 32
0.0
 13
1.0
 23
0.0
 33
0.0
 40
0.0
 40
0.0
 40
0.0
 40
0.0
 40
0.0735246646988287
 40
0.1539815998243636
 40
0.2480316500355295
 40
0.3577938394127334
 40
0.4873775007544919
 40
0.6373689487553104
 40
0.8083818615575745
 40
1.0
 40
1.0
 40
1.0
 40
1.0
 10
26.2903806537829
 20
31.63006126644737
 30
0.0
 10
26.28824209869756
 20
31.61123065000034
 30
0.0
 10
26.28376335493582
 20
31.57179397309644
 30
0.0
 10
26.25408365615369
 20
31.51419004463245
 30
0.0
 10
26.20633160592396
 20
31.45894879500603
 30
0.0
 10
26.14178800369295
 20
31.40259197629184
 30
0.0
 10
26.05793531380132
 20
31.34840539508744
 30
0.0
 10
25.95846934514892
 20
31.28979145163763
 30
0.0
 10
25.83876213609318
 20
31.23549003872402
 30
0.0
 10
25.75253679774707
 20
31.20108897343194
 30
0.0
 10
25.7069744037829
 20
31.18291108141448
 30
0.0
  0
SPLINE
  5
103
330
1F
100
AcDbEntity
  8
0
  6
Continuous
 62
     7
370
    15
100
AcDbSpline
210
0.0
220
0.0
230
1.0
 70
     8
 71
     3
 72
    11
 73
     7
 74
     0
 42
0.00000001
 43
0.00000001
 12
1.0
 22
0.0
 32
0.0
 13
1.0
 23
0.0
 33
0.0
 40
0.0
 40
0.0
 40
0.0
 40
0.0
 40
0.2647381826240646
 40
0.5176762550168702
 40
0.7621909492587854
 40
0.9999999999999999
 40
0.9999999999999999
 40
0.9999999999999999
 40
0.9999999999999999
 10
26.59551747532895
 20
33.27472954358553
 30
0.0
 10
26.54809638342749
 20
33.13410531801936
 30
0.0
 10
26.45536788834968
 20
32.85912487608167
 30
0.0
 10
26.36346394348154
 20
32.44160512671521
 30
0.0
 10
26.30165605472104
 20
32.03364680078191
 30
0.0
 10
26.29410412313431
 20
31.76333709193793
 30
0.0
 10
26.2903806537829
 20
31.63006126644737
 30
0.0
  0
SPLINE
  5
104
330
1F
100
AcDbEntity
  8
0
  6
Continuous
 62
     7
370
    15
100
AcDbSpline
210
0.0
220
0.0
230
1.0
 70
     8
 71
     3
 72
    15
 73
    11
 74
     0
 42
0.00000001
 43
0.00000001
 12
1.0
 22
0.0
 32
0.0
 13
1.0
 23
0.0
 33
0.0
 40
0.0
 40
0.0
 40
0.0
 40
0.0
 40
0.13222782014761
 40
0.2611403965816783
 40
0.3873355557236576
 40
0.5114246553655996
 40
0.6338028144349852
 40
0.7549900317408038
 40
0.8762589409012184
 40
1.0
 40
1.0
 40
1.0
 40
1.0
 10
46.32769860197368
 20
37.4161462787829
 30
0.0
 10
46.26091565481227
 20
37.33402764576412
 30
0.0
 10
46.12902415658477
 20
37.17184927536272
 30
0.0
 10
45.91560309749872
 20
36.94651528765713
 30
0.0
 10
45.69006613751309
 20
36.74309718462238
 30
0.0
 10
45.45615064467577
 20
36.55779170604591
 30
0.0
 10
45.21074023613092
 20
36.394319485492
 30
0.0
 10
44.94940744214801
 20
36.26315418434869
 30
0.0
 10
44.67742613802943
 20
36.15218743043884
 30
0.0
 10
44.48733285946121
 20
36.10324968584946
 30
0.0
 10
44.39132719983552
 20
36.07853392269737
 30
0.0
  0
SPLINE
  5
105
330
1F
100
AcDbEntity
  8
0
  6
Continuous
 62
     7
370
    15
100
AcDbSpline
210
0.0
220
0.0
230
1.0
 70
     8
 71
     3
 72
     9
 73
     5
 74
     0
 42
0.00000001
 43
0.00000001
 12
1.0
 22
0.0
 32
0.0
 13
1.0
 23
0.0
 33
0.0
 40
0.0
 40
0.0
 40
0.0
 40
0.0
 40
0.50074502049508
 40
1.0
 40
1.0
 40
1.0
 40
1.0
 10
46.79212068256579
 20
38.40640162417763
 30
0.0
 10
46.71381433755032
 20
38.24148239367774
 30
0.0
 10
46.55743465964951
 20
37.9121346742799
 30
0.0
 10
46.40420117981028
 20
37.58131143055068
 30
0.0
 10
46.32769860197368
 20
37.4161462787829
 30
0.0
  0
SPLINE
  5
106
330
1F
100
AcDbEntity
  8
0
  6
Continuous
 62
     7
370
    15
100
AcDbSpline
210
0.0
220
0.0
230
1.0
 70
     8
 71
     3
 72
    13
 73
     9
 74
     0
 42
0.00000001
 43
0.00000001
 12
1.0
 22
0.0
 32
0.0
 13
1.0
 23
0.0
 33
0.0
 40
0.0
 40
0.0
 40
0.0
 40
0.0
 40
0.1824611187844852
 40
0.3402185420299516
 40
0.4759728282340911
 40
0.5881770861053782
 40
0.7888299315849955
 40
0.9999999999999999
 40
0.9999999999999999
 40
0.9999999999999999
 40
0.9999999999999999
 10
47.00514072779605
 20
39.28918739720395
 30
0.0
 10
47.00410370106248
 20
39.23289091148688
 30
0.0
 10
47.00217005226273
 20
39.12792000908496
 30
0.0
 10
46.99592808330018
 20
38.98110584987521
 30
0.0
 10
46.98097366109477
 20
38.85661374265063
 30
0.0
 10
46.95337862931313
 20
38.72092759951257
 30
0.0
 10
46.89957938285984
 20
38.56662115472776
 30
0.0
 10
46.82854494694313
 20
38.46070973067067
 30
0.0
 10
46.79212068256579
 20
38.40640162417763
 30
0.0
  0
SPLINE
  5
107
330
1F
100
AcDbEntity
  8
0
  6
Continuous
 62
     7
370
    15
100
AcDbSpline
210
0.0
220
0.0
230
1.0
 70
     8
 71
     3
 72
    15
 73
    11
 74
     0
 42
0.00000001
 43
0.00000001
 12
1.0
 22
0.0
 32
0.0
 13
1.0
 23
0.0
 33
0.0
 40
0.0
 40
0.0
 40
0.0
 40
0.0
 40
0.1285628096903193
 40
0.2457097202617128
 40
0.3614349632640466
 40
0.4796321077194249
 40
0.6028635494688167
 40
0.7270390263237891
 40
0.8596649054845954
 40
1.0
 40
1.0
 40
1.0
 40
1.0
 10
46.27588291529605
 20
40.15853947368421
 30
0.0
 10
46.33062167921881
 20
40.1559403985692
 30
0.0
 10
46.43523860851064
 20
40.15097303653824
 30
0.0
 10
46.58325653097767
 20
40.10306958462788
 30
0.0
 10
46.71023577300134
 20
40.02226844051359
 30
0.0
 10
46.81707927918674
 20
39.91266701264794
 30
0.0
 10
46.8995256642966
 20
39.78002536139671
 30
0.0
 10
46.96317993227315
 20
39.63094194573099
 30
0.0
 10
46.99926607676267
 20
39.46489221413137
 30
0.0
 10
47.00314598414503
 20
39.34884814403421
 30
0.0
 10
47.00514072779605
 20
39.28918739720395
 30
0.0
  0
SPLINE
  5
108
330
1F
100
AcDbEntity
  8
0
  6
Continuous
 62
     7
370
    15
100
AcDbSpline
210
0.0
220
0.0
230
1.0
 70
     8
 71
     3
 72
    23
 73
    19
 74
     0
 42
0.00000001
 43
0.00000001
 12
1.0
 22
0.0
 32
0.0
 13
1.0
 23
0.0
 33
0.0
 40
0.0
 40
0.0
 40
0.0
 40
0.0
 40
0.0515989212354711
 40
0.104788366305908
 40
0.1607134758263007
 40
0.219914129233616
 40
0.2826137336995302
 40
0.3500812456248771
 40
0.4225343730594033
 40
0.4998009571807183
 40
0.5772806986672427
 40
0.6494349590177415
 40
0.7166332772495404
 40
0.7799522694162266
 40
0.8388533481088187
 40
0.8948825026254621
 40
0.9480719476958988
 40
1.0
 40
1.0
 40
1.0
 40
1.0
 10
42.45495579769737
 20
36.32034046052632
 30
0.0
 10
42.45924285480775
 20
36.42044248146542
 30
0.0
 10
42.46794911649114
 20
36.62373214308953
 30
0.0
 10
42.53347914687783
 20
36.9296559579586
 30
0.0
 10
42.63530302749983
 20
37.24024223910338
 30
0.0
 10
42.78128933020599
 20
37.5534187598976
 30
0.0
 10
42.96774082537956
 20
37.8702549088544
 30
0.0
 10
43.19614971608947
 20
38.19034934911896
 30
0.0
 10
43.46287444152998
 20
38.51659693944364
 30
0.0
 10
43.76522832964081
 20
38.83733249254269
 30
0.0
 10
44.0829180993797
 20
39.14193859054458
 30
0.0
 10
44.40538625289756
 20
39.41231226077571
 30
0.0
 10
44.72588405689732
 20
39.64027470750702
 30
0.0
 10
45.04090294960004
 20
39.83003175302576
 30
0.0
 10
45.35499068529073
 20
39.97597955084539
 30
0.0
 10
45.66426362285325
 20
40.08052785805398
 30
0.0
 10
45.97124365034704
 20
40.1455559414655
 30
0.0
 10
46.17515211638754
 20
40.15424639093512
 30
0.0
 10
46.27588291529605
 20
40.15853947368421
 30
0.0
  0
SPLINE
  5
109
330
1F
100
AcDbEntity
  8
0
  6
Continuous
 62
     7
370
    15
100
AcDbSpline
210
0.0
220
0.0
230
1.0
 70
     8
 71
     3
 72
    15
 73
    11
 74
     0
 42
0.00000001
 43
0.00000001
 12
1.0
 22
0.0
 32
0.0
 13
1.0
 23
0.0
 33
0.0
 40
0.0
 40
0.0
 40
0.0
 40
0.0
 40
0.1015032880067612
 40
0.2052849884480095
 40
0.312660001382731
 40
0.4265640858957518
 40
0.5509476307999113
 40
0.6862768145997498
 40
0.8354520885635679
 40
1.0
 40
1.0
 40
1.0
 40
1.0
 10
42.89251048519737
 20
35.27635032894738
 30
0.0
 10
42.85774398504581
 20
35.29687671526828
 30
0.0
 10
42.78743059203025
 20
35.33839023725867
 30
0.0
 10
42.69645726501711
 20
35.42448205841861
 30
0.0
 10
42.62161689525819
 20
35.53022284444832
 30
0.0
 10
42.5595178570218
 20
35.65309751912588
 30
0.0
 10
42.51259814527246
 20
35.79416011474343
 30
0.0
 10
42.47768295922988
 20
35.95294297016469
 30
0.0
 10
42.45997230715501
 20
36.13059463174132
 30
0.0
 10
42.45668171456631
 20
36.25505890779012
 30
0.0
 10
42.45495579769737
 20
36.32034046052632
 30
0.0
  0
SPLINE
  5
10A
330
1F
100
AcDbEntity
  8
0
  6
Continuous
 62
     7
370
    15
100
AcDbSpline
210
0.0
220
0.0
230
1.0
 70
     8
 71
     3
 72
     9
 73
     5
 74
     0
 42
0.00000001
 43
0.00000001
 12
1.0
 22
0.0
 32
0.0
 13
1.0
 23
0.0
 33
0.0
 40
0.0
 40
0.0
 40
0.0
 40
0.0
 40
0.499780682128179
 40
1.0
 40
1.0
 40
1.0
 40
1.0
 10
44.03245559210526
 20
34.95586071134868
 30
0.0
 10
43.84242310910327
 20
35.00880771755212
 30
0.0
 10
43.4621913598632
 20
35.11474819924098
 30
0.0
 10
43.08245963138901
 20
35.22246720257686
 30
0.0
 10
42.89251048519736
 20
35.27635032894737
 30
0.0
  0
SPLINE
  5
10B
330
1F
100
AcDbEntity
  8
0
  6
Continuous
 62
     7
370
    15
100
AcDbSpline
210
0.0
220
0.0
230
1.0
 70
     8
 71
     3
 72
    13
 73
     9
 74
     0
 42
0.00000001
 43
0.00000001
 12
1.0
 22
0.0
 32
0.0
 13
1.0
 23
0.0
 33
0.0
 40
0.0
 40
0.0
 40
0.0
 40
0.0
 40
0.1914540748429847
 40
0.3213259024630106
 40
0.401654600803696
 40
0.5410700879403205
 40
0.7402741409064049
 40
0.9999999999999999
 40
0.9999999999999999
 40
0.9999999999999999
 40
0.9999999999999999
 10
44.89605037006579
 20
34.7543552631579
 30
0.0
 10
44.83917163461806
 20
34.75564314472006
 30
0.0
 10
44.74370951915415
 20
34.75780465371675
 30
0.0
 10
44.62380648489336
 20
34.76717412599458
 30
0.0
 10
44.52417782296366
 20
34.79805807176236
 30
0.0
 10
44.40481202560008
 20
34.83362158493212
 30
0.0
 10
44.23627107788874
 20
34.89122972378169
 30
0.0
 10
44.10611554763132
 20
34.93250274298092
 30
0.0
 10
44.03245559210526
 20
34.95586071134868
 30
0.0
  0
SPLINE
  5
10C
330
1F
100
AcDbEntity
  8
0
  6
Continuous
 62
     7
370
    15
100
AcDbSpline
210
0.0
220
0.0
230
1.0
 70
     8
 71
     3
 72
    11
 73
     7
 74
     0
 42
0.00000001
 43
0.00000001
 12
1.0
 22
0.0
 32
0.0
 13
1.0
 23
0.0
 33
0.0
 40
0.0
 40
0.0
 40
0.0
 40
0.0
 40
0.2886180955690081
 40
0.5519067993024402
 40
0.7878289555882837
 40
1.0
 40
1.0
 40
1.0
 40
1.0
 10
45.95731239720394
 20
34.96929440789474
 30
0.0
 10
45.85794355797815
 20
34.93646725875374
 30
0.0
 10
45.66792658104748
 20
34.8736939015361
 30
0.0
 10
45.39003876094235
 20
34.80729180013368
 30
0.0
 10
45.13541486779558
 20
34.76323903765289
 30
0.0
 10
44.97296838562487
 20
34.75720999855647
 30
0.0
 10
44.89605037006579
 20
34.7543552631579
 30
0.0
  0
SPLINE
  5
10D
330
1F
100
AcDbEntity
  8
0
  6
Continuous
 62
     7
370
    15
100
AcDbSpline
210
0.0
220
0.0
230
1.0
 70
     8
 71
     3
 72
    15
 73
    11
 74
     0
 42
0.00000001
 43
0.00000001
 12
1.0
 22
0.0
 32
0.0
 13
1.0
 23
0.0
 33
0.0
 40
0.0
 40
0.0
 40
0.0
 40
0.0
 40
0.0809368368689401
 40
0.1668718242317527
 40
0.2626919986128438
 40
0.3722994904937125
 40
0.5010502322492566
 40
0.647005840625753
 40
0.8130131244924016
 40
1.0
 40
1.0
 40
1.0
 40
1.0
 10
46.7268712993421
 20
35.56997255345395
 30
0.0
 10
46.72471779906059
 20
35.54204859381389
 30
0.0
 10
46.7202778118513
 20
35.48447626624127
 30
0.0
 10
46.67946775208141
 20
35.40221374856797
 30
0.0
 10
46.61907537854478
 20
35.32201475068771
 30
0.0
 10
46.53088104198344
 20
35.2476479387211
 30
0.0
 10
46.42204487693756
 20
35.17289918064225
 30
0.0
 10
46.28741670880596
 20
35.10347271176411
 30
0.0
 10
46.13216930007827
 20
35.03099575884512
 30
0.0
 10
46.01786257177917
 20
34.99066060797125
 30
0.0
 10
45.95731239720394
 20
34.96929440789474
 30
0.0
  0
SPLINE
  5
110
330
1F
100
AcDbEntity
  8
0
  6
Continuous
 62
     7
370
    15
100
AcDbSpline
210
0.0
220
0.0
230
1.0
 70
     8
 71
     3
 72
    15
 73
    11
 74
     0
 42
0.00000001
 43
0.00000001
 12
1.0
 22
0.0
 32
0.0
 13
1.0
 23
0.0
 33
0.0
 40
0.0
 40
0.0
 40
0.0
 40
0.0
 40
0.2247318579780108
 40
0.4229966742904236
 40
0.5901082578758098
 40
0.7317259838132486
 40
0.8412599685615371
 40
0.9224760847010469
 40
0.9753804101453174
 40
1.0
 40
1.0
 40
1.0
 40
1.0
 10
45.84984282483552
 20
35.61027364309211
 30
0.0
 10
45.89517912137094
 20
35.62650684895655
 30
0.0
 10
45.98051238400519
 20
35.65706144925002
 30
0.0
 10
46.10077955686842
 20
35.69611806474412
 30
0.0
 10
46.20351106972677
 20
35.73142802190331
 30
0.0
 10
46.28843693727506
 20
35.76006096173842
 30
0.0
 10
46.35643236125938
 20
35.78125377245271
 30
0.0
 10
46.40634396252308
 20
35.79653113052353
 30
0.0
 10
46.43884656203633
 20
35.80661044524188
 30
0.0
 10
46.45498979483662
 20
35.81053329552287
 30
0.0
 10
46.46011646792763
 20
35.8117790912829
 30
0.0
  0
SPLINE
  5
111
330
1F
100
AcDbEntity
  8
0
  6
Continuous
 62
     7
370
    15
100
AcDbSpline
210
0.0
220
0.0
230
1.0
 70
     8
 71
     3
 72
     9
 73
     5
 74
     0
 42
0.00000001
 43
0.00000001
 12
1.0
 22
0.0
 32
0.0
 13
1.0
 23
0.0
 33
0.0
 40
0.0
 40
0.0
 40
0.0
 40
0.0
 40
0.474867091809649
 40
1.0
 40
1.0
 40
1.0
 40
1.0
 10
45.47945662006578
 20
35.54310516036185
 30
0.0
 10
45.53933935880742
 20
35.54665839641138
 30
0.0
 10
45.66544356727857
 20
35.55414098703687
 30
0.0
 10
45.78635057581972
 20
35.59094607841861
 30
0.0
 10
45.84984282483552
 20
35.61027364309211
 30
0.0
  0
SPLINE
  5
112
330
1F
100
AcDbEntity
  8
0
  6
Continuous
 62
     7
370
    15
100
AcDbSpline
210
0.0
220
0.0
230
1.0
 70
     8
 71
     3
 72
    15
 73
    11
 74
     0
 42
0.00000001
 43
0.00000001
 12
1.0
 22
0.0
 32
0.0
 13
1.0
 23
0.0
 33
0.0
 40
0.0
 40
0.0
 40
0.0
 40
0.0
 40
0.1375991130552412
 40
0.2688800527945723
 40
0.3951315636594474
 40
0.517877496768564
 40
0.6379564021734576
 40
0.7576830544893463
 40
0.8773018670146354
 40
1.0
 40
1.0
 40
1.0
 40
1.0
 10
44.39132719983552
 20
36.07853392269737
 30
0.0
 10
44.43032258702723
 20
36.03629663045196
 30
0.0
 10
44.50652280034285
 20
35.95376146640417
 30
0.0
 10
44.62971407164543
 20
35.84352895549399
 30
0.0
 10
44.75879617273227
 20
35.75038414813925
 30
0.0
 10
44.89403458357623
 20
35.6759046671276
 30
0.0
 10
45.03295040128805
 20
35.614870359433
 30
0.0
 10
45.17748356864885
 20
35.57312635207044
 30
0.0
 10
45.32688484273528
 20
35.5468923073099
 30
0.0
 10
45.42817032169738
 20
35.54437819231926
 30
0.0
 10
45.47945662006578
 20
35.54310516036185
 30
0.0
  0
SPLINE
  5
113
330
1F
100
AcDbEntity
  8
0
  6
Continuous
 62
     7
370
    15
100
AcDbSpline
210
0.0
220
0.0
230
1.0
 70
     8
 71
     3
 72
    11
 73
     7
 74
     0
 42
0.00000001
 43
0.00000001
 12
1.0
 22
0.0
 32
0.0
 13
1.0
 23
0.0
 33
0.0
 40
0.0
 40
0.0
 40
0.0
 40
0.0
 40
0.3074743616466957
 40
0.553926953867229
 40
0.7609922410679277
 40
0.9999999999999999
 40
0.9999999999999999
 40
0.9999999999999999
 40
0.9999999999999999
 10
46.07629656661184
 20
38.80749342105263
 30
0.0
 10
46.07497198431719
 20
38.84619928132975
 30
0.0
 10
46.07258569808605
 20
38.91592938554165
 30
0.0
 10
46.03568448218824
 20
39.00739334735075
 30
0.0
 10
45.96397031277827
 20
39.06452804539457
 30
0.0
 10
45.90715310810972
 20
39.06960753935999
 30
0.0
 10
45.87671021792763
 20
39.07232915296053
 30
0.0
  0
SPLINE
  5
114
330
1F
100
AcDbEntity
  8
0
  6
Continuous
 62
     7
370
    15
100
AcDbSpline
210
0.0
220
0.0
230
1.0
 70
     8
 71
     3
 72
    23
 73
    19
 74
     0
 42
0.00000001
 43
0.00000001
 12
1.0
 22
0.0
 32
0.0
 13
1.0
 23
0.0
 33
0.0
 40
0.0
 40
0.0
 40
0.0
 40
0.0
 40
0.0315137816270482
 40
0.0698591465681938
 40
0.1157439052225366
 40
0.1693739464944841
 40
0.232541415721517
 40
0.304515133772521
 40
0.3859680825291119
 40
0.4765271865556092
 40
0.5684048589015995
 40
0.6517460850143357
 40
0.7271490227933347
 40
0.7954288829852734
 40
0.8565544278565802
 40
0.9099369921321244
 40
0.9574985637641381
 40
1.0
 40
1.0
 40
1.0
 40
1.0
 10
44.49687767269737
 20
36.88455571546053
 30
0.0
 10
44.52407416434222
 20
36.88705737736375
 30
0.0
 10
44.58436282529836
 20
36.89260301348032
 30
0.0
 10
44.67621181322646
 20
36.93443657293335
 30
0.0
 10
44.78061797307644
 20
36.9907521773014
 30
0.0
 10
44.89210255109297
 20
37.07656897275623
 30
0.0
 10
45.0135632649266
 20
37.1845005621373
 30
0.0
 10
45.14897249655877
 20
37.31297289308277
 30
0.0
 10
45.2917419964744
 20
37.46727749391061
 30
0.0
 10
45.44078136114373
 20
37.63886485124318
 30
0.0
 10
45.58567754524091
 20
37.81613997444945
 30
0.0
 10
45.71457990219002
 20
37.98934839118325
 30
0.0
 10
45.82492252182112
 20
38.15081227389955
 30
0.0
 10
45.91633635854034
 20
38.3018605249007
 30
0.0
 10
45.98514486729656
 20
38.44372407072712
 30
0.0
 10
46.03641526197501
 20
38.57351848043112
 30
0.0
 10
46.07030404779844
 20
38.69317568122685
 30
0.0
 10
46.07437530742381
 20
38.77084205376722
 30
0.0
 10
46.07629656661184
 20
38.80749342105263
 30
0.0
  0
SPLINE
  5
115
330
1F
100
AcDbEntity
  8
0
  6
Continuous
 62
     7
370
    15
100
AcDbSpline
210
0.0
220
0.0
230
1.0
 70
     8
 71
     3
 72
    11
 73
     7
 74
     0
 42
0.00000001
 43
0.00000001
 12
1.0
 22
0.0
 32
0.0
 13
1.0
 23
0.0
 33
0.0
 40
0.0
 40
0.0
 40
0.0
 40
0.0
 40
0.3157612057004311
 40
0.5641534854605592
 40
0.7740186738187844
 40
1.0
 40
1.0
 40
1.0
 40
1.0
 10
44.33759241365131
 20
37.10909035773027
 30
0.0
 10
44.33874145897431
 20
37.07616403030429
 30
0.0
 10
44.34079439616929
 20
37.01733634012121
 30
0.0
 10
44.37053818750002
 20
36.94058784235781
 30
0.0
 10
44.42668814750085
 20
36.8902337752209
 30
0.0
 10
44.47291143705116
 20
36.88649449076709
 30
0.0
 10
44.49687767269737
 20
36.88455571546053
 30
0.0
  0
SPLINE
  5
116
330
1F
100
AcDbEntity
  8
0
  6
Continuous
 62
     7
370
    15
100
AcDbSpline
210
0.0
220
0.0
230
1.0
 70
     8
 71
     3
 72
    23
 73
    19
 74
     0
 42
0.00000001
 43
0.00000001
 12
1.0
 22
0.0
 32
0.0
 13
1.0
 23
0.0
 33
0.0
 40
0.0
 40
0.0
 40
0.0
 40
0.0
 40
0.0438935576773679
 40
0.0901900522227881
 40
0.1406486923040913
 40
0.1967747805906052
 40
0.2593131348454499
 40
0.3282860601972969
 40
0.4046388070731445
 40
0.4887893803738258
 40
0.5729934595518881
 40
0.6515457028285775
 40
0.7232383658818429
 40
0.7889981735804382
 40
0.8494206410484559
 40
0.9042235695383567
 40
0.9540481491643628
 40
1.0
 40
1.0
 40
1.0
 40
1.0
 10
45.87671021792763
 20
39.07232915296053
 30
0.0
 10
45.83809984903401
 20
39.0699729948927
 30
0.0
 10
45.75876540062925
 20
39.06513169173964
 30
0.0
 10
45.63955666614247
 20
39.02830835255848
 30
0.0
 10
45.51974425641401
 20
38.96670004087158
 30
0.0
 10
45.39661372629922
 20
38.88293370836792
 30
0.0
 10
45.26997316561994
 20
38.77690488442738
 30
0.0
 10
45.14167578280779
 20
38.64662796673578
 30
0.0
 10
45.00860292023385
 20
38.49491284213567
 30
0.0
 10
44.87956346222077
 20
38.32268600893457
 30
0.0
 10
44.75585586888636
 20
38.14443568111571
 30
0.0
 10
44.64384103939307
 20
37.97136544556659
 30
0.0
 10
44.55202829565975
 20
37.80511039537777
 30
0.0
 10
44.47377379670862
 20
37.64975197987677
 30
0.0
 10
44.41374030460533
 20
37.50214967487948
 30
0.0
 10
44.37191186230611
 20
37.36328116578086
 30
0.0
 10
44.34154581061058
 20
37.23386412730952
 30
0.0
 10
44.33887420374786
 20
37.14954513214384
 30
0.0
 10
44.33759241365132
 20
37.10909035773027
 30
0.0
  0
SPLINE
  5
117
330
1F
100
AcDbEntity
  8
0
  6
Continuous
 62
     7
370
    15
100
AcDbSpline
210
0.0
220
0.0
230
1.0
 70
     8
 71
     3
 72
    11
 73
     7
 74
     0
 42
0.00000001
 43
0.00000001
 12
1.0
 22
0.0
 32
0.0
 13
1.0
 23
0.0
 33
0.0
 40
0.0
 40
0.0
 40
0.0
 40
0.0
 40
0.3831074364458426
 40
0.6815720697618992
 40
0.8856520662222391
 40
1.0
 40
1.0
 40
1.0
 40
1.0
 10
28.4781540912829
 20
36.10156311677632
 30
0.0
 10
28.52740316436446
 20
36.10371254887436
 30
0.0
 10
28.61502034294356
 20
36.10753652289446
 30
0.0
 10
28.72896874568615
 20
36.1096635813181
 30
0.0
 10
28.80819367752403
 20
36.11555921905342
 30
0.0
 10
28.8491762063
 20
36.11514541202816
 30
0.0
 10
28.86389309210526
 20
36.11499681332237
 30
0.0
  0
SPLINE
  5
118
330
1F
100
AcDbEntity
  8
0
  6
Continuous
 62
     7
370
    15
100
AcDbSpline
210
0.0
220
0.0
230
1.0
 70
     8
 71
     3
 72
    15
 73
    11
 74
     0
 42
0.00000001
 43
0.00000001
 12
1.0
 22
0.0
 32
0.0
 13
1.0
 23
0.0
 33
0.0
 40
0.0
 40
0.0
 40
0.0
 40
0.0
 40
0.0734278182887099
 40
0.1490263842047201
 40
0.2346571994417028
 40
0.3395844983978027
 40
0.4664681083438385
 40
0.6220588657778571
 40
0.7963784240446572
 40
0.9999999999999999
 40
0.9999999999999999
 40
0.9999999999999999
 40
0.9999999999999999
 10
27.96191632401316
 20
36.26084837582237
 30
0.0
 10
27.96326704884941
 20
36.24641488804515
 30
0.0
 10
27.9660084300193
 20
36.21712121508806
 30
0.0
 10
27.99383166521774
 20
36.17800198744175
 30
0.0
 10
28.03964750076789
 20
36.15233416590973
 30
0.0
 10
28.09788311548017
 20
36.13081816950196
 30
0.0
 10
28.17286037734004
 20
36.11990692771329
 30
0.0
 10
28.26091141178635
 20
36.10735094326524
 30
0.0
 10
28.36489136360778
 20
36.10267419842261
 30
0.0
 10
28.43849760247677
 20
36.10195213792893
 30
0.0
 10
28.4781540912829
 20
36.10156311677632
 30
0.0
  0
SPLINE
  5
119
330
1F
100
AcDbEntity
  8
0
  6
Continuous
 62
     7
370
    15
100
AcDbSpline
210
0.0
220
0.0
230
1.0
 70
     8
 71
     3
 72
    23
 73
    19
 74
     0
 42
0.00000001
 43
0.00000001
 12
1.0
 22
0.0
 32
0.0
 13
1.0
 23
0.0
 33
0.0
 40
0.0
 40
0.0
 40
0.0
 40
0.0
 40
0.0351853160529157
 40
0.076424056771469
 40
0.125349221850287
 40
0.1820207855468508
 40
0.2469682904234675
 40
0.3209856929100867
 40
0.4046996504234074
 40
0.4969905735776551
 40
0.5894847551206667
 40
0.6732957223385386
 40
0.7480559147296096
 40
0.8140624161303633
 40
0.8719071412516946
 40
0.921699341847549
 40
0.9642950521976086
 40
0.9999999999999999
 40
0.9999999999999999
 40
0.9999999999999999
 40
0.9999999999999999
 10
30.03070559210526
 20
38.54265768914474
 30
0.0
 10
29.99331823131327
 20
38.53895302261029
 30
0.0
 10
29.91211123634397
 20
38.5309063236657
 30
0.0
 10
29.78552779400848
 20
38.48490847385979
 30
0.0
 10
29.64788423323522
 20
38.41043999671187
 30
0.0
 10
29.498063642006
 20
38.30732264308119
 30
0.0
 10
29.33699749679175
 20
38.17510639431028
 30
0.0
 10
29.16190137205994
 20
38.01516405689415
 30
0.0
 10
28.97554837630545
 20
37.82502832157169
 30
0.0
 10
28.78173606679917
 20
37.61491330399861
 30
0.0
 10
28.59605895538117
 20
37.39738706848522
 30
0.0
 10
28.42935406761427
 20
37.18849135540155
 30
0.0
 10
28.28568604836924
 20
36.99725543662608
 30
0.0
 10
28.17023371155632
 20
36.82005577675053
 30
0.0
 10
28.07803548947351
 20
36.65948563355544
 30
0.0
 10
28.01422732489721
 20
36.51276460415141
 30
0.0
 10
27.97204811727323
 20
36.38211778610977
 30
0.0
 10
27.96508945875917
 20
36.29882824468999
 30
0.0
 10
27.96191632401316
 20
36.26084837582237
 30
0.0
  0
SPLINE
  5
11A
330
1F
100
AcDbEntity
  8
0
  6
Continuous
 62
     7
370
    15
100
AcDbSpline
210
0.0
220
0.0
230
1.0
 70
     8
 71
     3
 72
    13
 73
     9
 74
     0
 42
0.00000001
 43
0.00000001
 12
1.0
 22
0.0
 32
0.0
 13
1.0
 23
0.0
 33
0.0
 40
0.0
 40
0.0
 40
0.0
 40
0.0
 40
0.2601501414758779
 40
0.545260136645472
 40
0.6868385593835272
 40
0.8027602632105154
 40
0.9037582994211354
 40
1.0
 40
1.0
 40
1.0
 40
1.0
 10
30.27059303042763
 20
38.11661759868421
 30
0.0
 10
30.26679957327813
 20
38.16241300278812
 30
0.0
 10
30.25884869940212
 20
38.25839760674711
 30
0.0
 10
30.21623183030155
 20
38.37305108010224
 30
0.0
 10
30.1714518196762
 20
38.45757990024114
 30
0.0
 10
30.13093830842576
 20
38.50679402179181
 30
0.0
 10
30.08244907000448
 20
38.53639861563585
 30
0.0
 10
30.04767388949246
 20
38.54060514407087
 30
0.0
 10
30.03070559210526
 20
38.54265768914474
 30
0.0
  0
SPLINE
  5
11B
330
1F
100
AcDbEntity
  8
0
  6
Continuous
 62
     7
370
    15
100
AcDbSpline
210
0.0
220
0.0
230
1.0
 70
     8
 71
     3
 72
    23
 73
    19
 74
     0
 42
0.00000001
 43
0.00000001
 12
1.0
 22
0.0
 32
0.0
 13
1.0
 23
0.0
 33
0.0
 40
0.0
 40
0.0
 40
0.0
 40
0.0
 40
0.035408933738779
 40
0.0768743140355492
 40
0.1257525964037561
 40
0.1831149624391793
 40
0.2473790306682269
 40
0.3196713156827758
 40
0.4006902203007318
 40
0.4898750724917052
 40
0.5794235008016374
 40
0.6615622872550518
 40
0.735615062756119
 40
0.8031619487681462
 40
0.8620565268349982
 40
0.9152849538921503
 40
0.9605664024868151
 40
1.0
 40
1.0
 40
1.0
 40
1.0
 10
29.27458038651316
 20
36.20711358963816
 30
0.0
 10
29.2969099242003
 20
36.22041921066588
 30
0.0
 10
29.34538830835874
 20
36.2493062846701
 30
0.0
 10
29.41128023196687
 20
36.31431974473828
 30
0.0
 10
29.48558824494244
 20
36.39268268297768
 30
0.0
 10
29.56078081711422
 20
36.49259189080298
 30
0.0
 10
29.63877871241355
 20
36.61104810483923
 30
0.0
 10
29.72500746305201
 20
36.74497847373038
 30
0.0
 10
29.80875282669488
 20
36.9014802991243
 30
0.0
 10
29.90006197414326
 20
37.0681769026267
 30
0.0
 10
29.98211323158787
 20
37.24054969270032
 30
0.0
 10
30.0604754232978
 20
37.40240175840443
 30
0.0
 10
30.12331293389033
 20
37.55360841456837
 30
0.0
 10
30.17755836334392
 20
37.6899056616574
 30
0.0
 10
30.21908395017349
 20
37.81477122687728
 30
0.0
 10
30.24724014474448
 20
37.92644309949809
 30
0.0
 10
30.26664974307942
 20
38.02576096769651
 30
0.0
 10
30.26934051568697
 20
38.0877586138957
 30
0.0
 10
30.27059303042763
 20
38.11661759868421
 30
0.0
  0
SPLINE
  5
11C
330
1F
100
AcDbEntity
  8
0
  6
Continuous
 62
     7
370
    15
100
AcDbSpline
210
0.0
220
0.0
230
1.0
 70
     8
 71
     3
 72
     9
 73
     5
 74
     0
 42
0.00000001
 43
0.00000001
 12
1.0
 22
0.0
 32
0.0
 13
1.0
 23
0.0
 33
0.0
 40
0.0
 40
0.0
 40
0.0
 40
0.0
 40
0.5101320906736982
 40
1.0
 40
1.0
 40
1.0
 40
1.0
 10
28.86389309210526
 20
36.11499681332237
 30
0.0
 10
28.93648267009073
 20
36.11851424825727
 30
0.0
 10
29.07877832118296
 20
36.1254093936504
 30
0.0
 10
29.21020075407417
 20
36.18024928615115
 30
0.0
 10
29.27458038651316
 20
36.20711358963816
 30
0.0
  0
SPLINE
  5
11D
330
1F
100
AcDbEntity
  8
0
  6
Continuous
 62
     7
370
    15
100
AcDbSpline
210
0.0
220
0.0
230
1.0
 70
     8
 71
     3
 72
    11
 73
     7
 74
     0
 42
0.00000001
 43
0.00000001
 12
1.0
 22
0.0
 32
0.0
 13
1.0
 23
0.0
 33
0.0
 40
0.0
 40
0.0
 40
0.0
 40
0.0
 40
0.2545763325261576
 40
0.5025552428878161
 40
0.7490073254257258
 40
0.9999999999999999
 40
0.9999999999999999
 40
0.9999999999999999
 40
0.9999999999999999
 10
23.24476973684211
 20
37.50634395559211
 30
0.0
 10
23.14801042846615
 20
37.59720162239702
 30
0.0
 10
22.95699935826961
 20
37.77656235226637
 30
0.0
 10
22.71977071967384
 20
38.08811294284058
 30
0.0
 10
22.52758378015886
 20
38.42718362174681
 30
0.0
 10
22.43920260649837
 20
38.67102577354348
 30
0.0
 10
22.39460865542763
 20
38.79405972450658
 30
0.0
  0
SPLINE
  5
11E
330
1F
100
AcDbEntity
  8
0
  6
Continuous
 62
     7
370
    15
100
AcDbSpline
210
0.0
220
0.0
230
1.0
 70
     8
 71
     3
 72
    11
 73
     7
 74
     0
 42
0.00000001
 43
0.00000001
 12
1.0
 22
0.0
 32
0.0
 13
1.0
 23
0.0
 33
0.0
 40
0.0
 40
0.0
 40
0.0
 40
0.0
 40
0.2279892846248966
 40
0.4695148694993549
 40
0.7251571581434286
 40
1.0
 40
1.0
 40
1.0
 40
1.0
 10
22.36966036184211
 20
36.15337880345395
 30
0.0
 10
22.45421502924505
 20
36.24313157290447
 30
0.0
 10
22.62834458843275
 20
36.42796596064814
 30
0.0
 10
22.85732739112541
 20
36.74732281967051
 30
0.0
 10
23.06588039605288
 20
37.10939225371717
 30
0.0
 10
23.1837182690079
 20
37.37087202667876
 30
0.0
 10
23.24476973684211
 20
37.50634395559211
 30
0.0
  0
SPLINE
  5
11F
330
1F
100
AcDbEntity
  8
0
  6
Continuous
 62
     7
370
    15
100
AcDbSpline
210
0.0
220
0.0
230
1.0
 70
     8
 71
     3
 72
    11
 73
     7
 74
     0
 42
0.00000001
 43
0.00000001
 12
1.0
 22
0.0
 32
0.0
 13
1.0
 23
0.0
 33
0.0
 40
0.0
 40
0.0
 40
0.0
 40
0.0
 40
0.219013863177917
 40
0.4503528914617546
 40
0.7100285253917049
 40
0.9999999999999999
 40
0.9999999999999999
 40
0.9999999999999999
 40
0.9999999999999999
 10
21.5866677631579
 20
35.76955890213817
 30
0.0
 10
21.65189630483965
 20
35.77484445806705
 30
0.0
 10
21.78602417202561
 20
35.78571301844502
 30
0.0
 10
21.9851143050643
 20
35.86345604367881
 30
0.0
 10
22.18373004431372
 20
35.98594534331557
 30
0.0
 10
22.30544729006129
 20
36.09555382398155
 30
0.0
 10
22.3696603618421
 20
36.15337880345395
 30
0.0
  0
SPLINE
  5
120
330
1F
100
AcDbEntity
  8
0
  6
Continuous
 62
     7
370
    15
100
AcDbSpline
210
0.0
220
0.0
230
1.0
 70
     8
 71
     3
 72
    13
 73
     9
 74
     0
 42
0.00000001
 43
0.00000001
 12
1.0
 22
0.0
 32
0.0
 13
1.0
 23
0.0
 33
0.0
 40
0.0
 40
0.0
 40
0.0
 40
0.0
 40
0.2868414887723416
 40
0.5618014210041528
 40
0.6852068385078225
 40
0.7912225160714896
 40
0.892329343526907
 40
1.0
 40
1.0
 40
1.0
 40
1.0
 10
21.34678032483552
 20
36.23398098273027
 30
0.0
 10
21.34949488715044
 20
36.17882465696835
 30
0.0
 10
21.35481156910063
 20
36.07079669238402
 30
0.0
 10
21.38604621956017
 20
35.94103435128439
 30
0.0
 10
21.42913109991823
 20
35.85369399502463
 30
0.0
 10
21.46992937245339
 20
35.80341705611441
 30
0.0
 10
21.52564121542078
 20
35.77497560131072
 30
0.0
 10
21.56590363906223
 20
35.77140191993909
 30
0.0
 10
21.58666776315789
 20
35.76955890213817
 30
0.0
  0
SPLINE
  5
121
330
1F
100
AcDbEntity
  8
0
  6
Continuous
 62
     7
370
    15
100
AcDbSpline
210
0.0
220
0.0
230
1.0
 70
     8
 71
     3
 72
    19
 73
    15
 74
     0
 42
0.00000001
 43
0.00000001
 12
1.0
 22
0.0
 32
0.0
 13
1.0
 23
0.0
 33
0.0
 40
0.0
 40
0.0
 40
0.0
 40
0.0
 40
0.1044462716556741
 40
0.2237368558984587
 40
0.3589086182572389
 40
0.5097732068894645
 40
0.586895561764457
 40
0.6586816642281986
 40
0.7267297859736684
 40
0.789422124326291
 40
0.8485960844298183
 40
0.9030285427380272
 40
0.953354598565879
 40
1.0
 40
1.0
 40
1.0
 40
1.0
 10
22.39460865542763
 20
38.79405972450658
 30
0.0
 10
22.33553194018709
 20
38.71640528496343
 30
0.0
 10
22.20898229590394
 20
38.55005985324501
 30
0.0
 10
22.03918381111242
 20
38.260500585759
 30
0.0
 10
21.86535356405819
 20
37.92444299633476
 30
0.0
 10
21.72353100291874
 20
37.61634465642865
 30
0.0
 10
21.61619939867241
 20
37.3578763104537
 30
0.0
 10
21.54485003231894
 20
37.16831853233187
 30
0.0
 10
21.48279012161518
 20
36.98967378861057
 30
0.0
 10
21.43471555213885
 20
36.81893313160153
 30
0.0
 10
21.39683312280375
 20
36.65878353637609
 30
0.0
 10
21.36619597371792
 20
36.5087367705891
 30
0.0
 10
21.35107915408151
 20
36.36799368889196
 30
0.0
 10
21.34817654403776
 20
36.27750704598592
 30
0.0
 10
21.34678032483552
 20
36.23398098273027
 30
0.0
  0
LINE
  5
122
330
1F
100
AcDbEntity
  8
0
  6
Continuous
 62
     7
370
    15
100
AcDbLine
 10
50.259933491
 20
38.0091480263
 30
0.0
 11
49.6362261513
 21
38.0091480263
 31
0.0
  0
LINE
  5
123
330
1F
100
AcDbEntity
  8
0
  6
Continuous
 62
     7
370
    15
100
AcDbLine
 10
51.0947417763
 20
39.08384375
 30
0.0
 11
51.161910259
 21
38.8842574013
 31
0.0
  0
LINE
  5
124
330
1F
100
AcDbEntity
  8
0
  6
Continuous
 62
     7
370
    15
100
AcDbLine
 10
50.9220228207
 20
40.4905436883
 30
0.0
 11
50.259933491
 21
39.2028279194
 31
0.0
  0
LINE
  5
125
330
1F
100
AcDbEntity
  8
0
  6
Continuous
 62
     7
370
    15
100
AcDbLine
 10
48.1374094367
 20
38.049449116
 30
0.0
 11
47.8725737048
 21
38.049449116
 31
0.0
  0
LINE
  5
126
330
1F
100
AcDbEntity
  8
0
  6
Continuous
 62
     7
370
    15
100
AcDbLine
 10
51.0410069901
 20
36.2838775699
 30
0.0
 11
51.1216091694
 21
36.0977249178
 31
0.0
  0
LINE
  5
127
330
1F
100
AcDbEntity
  8
0
  6
Continuous
 62
     7
370
    15
100
AcDbLine
 10
50.8567734375
 20
36.3759943462
 30
0.0
 11
51.0410069901
 21
36.2838775699
 31
0.0
  0
LINE
  5
128
330
1F
100
AcDbEntity
  8
0
  6
Continuous
 62
     7
370
    15
100
AcDbLine
 10
32.3393822985
 20
41.2159633018
 30
0.0
 11
32.0073780839
 21
41.3483811678
 31
0.0
  0
LINE
  5
129
330
1F
100
AcDbEntity
  8
0
  6
Continuous
 62
     7
370
    15
100
AcDbLine
 10
36.7034145765
 20
35.9844980469
 30
0.0
 11
36.8089650493
 21
35.8923812706
 31
0.0
  0
LINE
  5
12A
330
1F
100
AcDbEntity
  8
0
  6
Continuous
 62
     7
370
    15
100
AcDbLine
 10
38.1216291118
 20
42.0219850946
 30
0.0
 11
38.3615165502
 21
41.7149291735
 31
0.0
  0
LINE
  5
12B
330
1F
100
AcDbEntity
  8
0
  6
Continuous
 62
     7
370
    15
100
AcDbLine
 10
33.9034483964
 20
31.6281421669
 30
0.0
 11
33.7978979235
 21
31.8545959087
 31
0.0
  0
LINE
  5
12C
330
1F
100
AcDbEntity
  8
0
  6
Continuous
 62
     7
370
    15
100
AcDbLine
 10
34.0896010485
 20
31.5609736842
 30
0.0
 11
33.9034483964
 21
31.6281421669
 31
0.0
  0
LINE
  5
12D
330
1F
100
AcDbEntity
  8
0
  6
Continuous
 62
     7
370
    15
100
AcDbLine
 10
0.0
 20
24.65
 30
0.0
 11
3.25
 21
24.65
 31
0.0
  0
LINE
  5
12E
330
1F
100
AcDbEntity
  8
0
  6
Continuous
 62
     7
370
    15
100
AcDbLine
 10
3.25
 20
35.35
 30
0.0
 11
3.25
 21
24.65
 31
0.0
  0
LINE
  5
12F
330
1F
100
AcDbEntity
  8
0
  6
Continuous
 62
     7
370
    15
100
AcDbLine
 10
0.0
 20
35.35
 30
0.0
 11
3.25
 21
35.35
 31
0.0
  0
LINE
  5
130
330
1F
100
AcDbEntity
  8
0
  6
Continuous
 62
     7
370
    15
100
AcDbLine
 10
0.0
 20
39.15
 30
0.0
 11
0.0
 21
35.35
 31
0.0
  0
LINE
  5
131
330
1F
100
AcDbEntity
  8
0
  6
Continuous
 62
     7
370
    15
100
AcDbLine
 10
0.0
 20
39.15
 30
0.0
 11
1.625
 21
39.15
 31
0.0
  0
LINE
  5
132
330
1F
100
AcDbEntity
  8
0
  6
Continuous
 62
     7
370
    15
100
AcDbLine
 10
1.625
 20
42.25
 30
0.0
 11
0.0
 21
42.25
 31
0.0
  0
LINE
  5
133
330
1F
100
AcDbEntity
  8
0
  6
Continuous
 62
     7
370
    15
100
AcDbLine
 10
0.0
 20
46.05
 30
0.0
 11
0.0
 21
42.25
 31
0.0
  0
LINE
  5
134
330
1F
100
AcDbEntity
  8
0
  6
Continuous
 62
     7
370
    15
100
AcDbLine
 10
0.0
 20
46.05
 30
0.0
 11
3.25
 21
46.05
 31
0.0
  0
LINE
  5
135
330
1F
100
AcDbEntity
  8
0
  6
Continuous
 62
     7
370
    15
100
AcDbLine
 10
3.25
 20
56.75
 30
0.0
 11
3.25
 21
46.05
 31
0.0
  0
LINE
  5
136
330
1F
100
AcDbEntity
  8
0
  6
Continuous
 62
     7
370
    15
100
AcDbLine
 10
3.25
 20
56.75
 30
0.0
 11
12.0
 21
56.75
 31
0.0
  0
LINE
  5
137
330
1F
100
AcDbEntity
  8
0
  6
Continuous
 62
     7
370
    15
100
AcDbLine
 10
12.0
 20
60.0
 30
0.0
 11
12.0
 21
56.75
 31
0.0
  0
LINE
  5
138
330
1F
100
AcDbEntity
  8
0
  6
Continuous
 62
     7
370
    15
100
AcDbLine
 10
24.0
 20
60.0
 30
0.0
 11
12.0
 21
60.0
 31
0.0
  0
LINE
  5
139
330
1F
100
AcDbEntity
  8
0
  6
Continuous
 62
     7
370
    15
100
AcDbLine
 10
24.0
 20
60.0
 30
0.0
 11
24.0
 21
56.75
 31
0.0
  0
LINE
  5
13A
330
1F
100
AcDbEntity
  8
0
  6
Continuous
 62
     7
370
    15
100
AcDbLine
 10
24.0
 20
56.75
 30
0.0
 11
36.0
 21
56.75
 31
0.0
  0
LINE
  5
13B
330
1F
100
AcDbEntity
  8
0
  6
Continuous
 62
     7
370
    15
100
AcDbLine
 10
36.0
 20
60.0
 30
0.0
 11
36.0
 21
56.75
 31
0.0
  0
LINE
  5
13C
330
1F
100
AcDbEntity
  8
0
  6
Continuous
 62
     7
370
    15
100
AcDbLine
 10
48.0
 20
60.0
 30
0.0
 11
36.0
 21
60.0
 31
0.0
  0
LINE
  5
13D
330
1F
100
AcDbEntity
  8
0
  6
Continuous
 62
     7
370
    15
100
AcDbLine
 10
48.0
 20
56.75
 30
0.0
 11
48.0
 21
60.0
 31
0.0
  0
LINE
  5
13E
330
1F
100
AcDbEntity
  8
0
  6
Continuous
 62
     7
370
    15
100
AcDbLine
 10
48.0
 20
56.75
 30
0.0
 11
56.75
 21
56.75
 31
0.0
  0
LINE
  5
13F
330
1F
100
AcDbEntity
  8
0
  6
Continuous
 62
     7
370
    15
100
AcDbLine
 10
56.75
 20
56.75
 30
0.0
 11
56.75
 21
46.05
 31
0.0
  0
LINE
  5
140
330
1F
100
AcDbEntity
  8
0
  6
Continuous
 62
     7
370
    15
100
AcDbLine
 10
56.75
 20
46.05
 30
0.0
 11
60.0
 21
46.05
 31
0.0
  0
LINE
  5
141
330
1F
100
AcDbEntity
  8
0
  6
Continuous
 62
     7
370
    15
100
AcDbLine
 10
60.0
 20
42.25
 30
0.0
 11
60.0
 21
46.05
 31
0.0
  0
LINE
  5
142
330
1F
100
AcDbEntity
  8
0
  6
Continuous
 62
     7
370
    15
100
AcDbLine
 10
60.0
 20
42.25
 30
0.0
 11
58.375
 21
42.25
 31
0.0
  0
LINE
  5
143
330
1F
100
AcDbEntity
  8
0
  6
Continuous
 62
     7
370
    15
100
AcDbLine
 10
58.375
 20
39.15
 30
0.0
 11
60.0
 21
39.15
 31
0.0
  0
LINE
  5
144
330
1F
100
AcDbEntity
  8
0
  6
Continuous
 62
     7
370
    15
100
AcDbLine
 10
60.0
 20
35.35
 30
0.0
 11
60.0
 21
39.15
 31
0.0
  0
LINE
  5
145
330
1F
100
AcDbEntity
  8
0
  6
Continuous
 62
     7
370
    15
100
AcDbLine
 10
56.75
 20
35.35
 30
0.0
 11
60.0
 21
35.35
 31
0.0
  0
LINE
  5
146
330
1F
100
AcDbEntity
  8
0
  6
Continuous
 62
     7
370
    15
100
AcDbLine
 10
56.75
 20
35.35
 30
0.0
 11
56.75
 21
24.65
 31
0.0
  0
LINE
  5
147
330
1F
100
AcDbEntity
  8
0
  6
Continuous
 62
     7
370
    15
100
AcDbLine
 10
56.75
 20
24.65
 30
0.0
 11
60.0
 21
24.65
 31
0.0
  0
LINE
  5
148
330
1F
100
AcDbEntity
  8
0
  6
Continuous
 62
     7
370
    15
100
AcDbLine
 10
60.0
 20
20.85
 30
0.0
 11
60.0
 21
24.65
 31
0.0
  0
LINE
  5
149
330
1F
100
AcDbEntity
  8
0
  6
Continuous
 62
     7
370
    15
100
AcDbLine
 10
60.0
 20
20.85
 30
0.0
 11
58.375
 21
20.85
 31
0.0
  0
LINE
  5
14A
330
1F
100
AcDbEntity
  8
0
  6
Continuous
 62
     7
370
    15
100
AcDbLine
 10
58.375
 20
17.75
 30
0.0
 11
60.0
 21
17.75
 31
0.0
  0
LINE
  5
14B
330
1F
100
AcDbEntity
  8
0
  6
Continuous
 62
     7
370
    15
100
AcDbLine
 10
60.0
 20
13.95
 30
0.0
 11
60.0
 21
17.75
 31
0.0
  0
LINE
  5
14C
330
1F
100
AcDbEntity
  8
0
  6
Continuous
 62
     7
370
    15
100
AcDbLine
 10
56.75
 20
13.95
 30
0.0
 11
60.0
 21
13.95
 31
0.0
  0
LINE
  5
14D
330
1F
100
AcDbEntity
  8
0
  6
Continuous
 62
     7
370
    15
100
AcDbLine
 10
56.75
 20
3.25
 30
0.0
 11
56.75
 21
13.95
 31
0.0
  0
LINE
  5
14E
330
1F
100
AcDbEntity
  8
0
  6
Continuous
 62
     7
370
    15
100
AcDbLine
 10
56.75
 20
3.25
 30
0.0
 11
48.0
 21
3.25
 31
0.0
  0
LINE
  5
14F
330
1F
100
AcDbEntity
  8
0
  6
Continuous
 62
     7
370
    15
100
AcDbLine
 10
48.0
 20
0.0
 30
0.0
 11
48.0
 21
3.25
 31
0.0
  0
LINE
  5
150
330
1F
100
AcDbEntity
  8
0
  6
Continuous
 62
     7
370
    15
100
AcDbLine
 10
36.0
 20
0.0
 30
0.0
 11
48.0
 21
0.0
 31
0.0
  0
LINE
  5
151
330
1F
100
AcDbEntity
  8
0
  6
Continuous
 62
     7
370
    15
100
AcDbLine
 10
36.0
 20
0.0
 30
0.0
 11
36.0
 21
3.25
 31
0.0
  0
LINE
  5
152
330
1F
100
AcDbEntity
  8
0
  6
Continuous
 62
     7
370
    15
100
AcDbLine
 10
24.0
 20
3.25
 30
0.0
 11
36.0
 21
3.25
 31
0.0
  0
LINE
  5
153
330
1F
100
AcDbEntity
  8
0
  6
Continuous
 62
     7
370
    15
100
AcDbLine
 10
24.0
 20
0.0
 30
0.0
 11
24.0
 21
3.25
 31
0.0
  0
LINE
  5
154
330
1F
100
AcDbEntity
  8
0
  6
Continuous
 62
     7
370
    15
100
AcDbLine
 10
12.0
 20
0.0
 30
0.0
 11
24.0
 21
0.0
 31
0.0
  0
LINE
  5
155
330
1F
100
AcDbEntity
  8
0
  6
Continuous
 62
     7
370
    15
100
AcDbLine
 10
12.0
 20
0.0
 30
0.0
 11
12.0
 21
3.25
 31
0.0
  0
LINE
  5
156
330
1F
100
AcDbEntity
  8
0
  6
Continuous
 62
     7
370
    15
100
AcDbLine
 10
3.25
 20
3.25
 30
0.0
 11
12.0
 21
3.25
 31
0.0
  0
LINE
  5
157
330
1F
100
AcDbEntity
  8
0
  6
Continuous
 62
     7
370
    15
100
AcDbLine
 10
3.25
 20
13.95
 30
0.0
 11
3.25
 21
3.25
 31
0.0
  0
LINE
  5
158
330
1F
100
AcDbEntity
  8
0
  6
Continuous
 62
     7
370
    15
100
AcDbLine
 10
0.0
 20
13.95
 30
0.0
 11
3.25
 21
13.95
 31
0.0
  0
LINE
  5
159
330
1F
100
AcDbEntity
  8
0
  6
Continuous
 62
     7
370
    15
100
AcDbLine
 10
0.0
 20
17.75
 30
0.0
 11
0.0
 21
13.95
 31
0.0
  0
LINE
  5
15A
330
1F
100
AcDbEntity
  8
0
  6
Continuous
 62
     7
370
    15
100
AcDbLine
 10
0.0
 20
17.75
 30
0.0
 11
1.625
 21
17.75
 31
0.0
  0
LINE
  5
15B
330
1F
100
AcDbEntity
  8
0
  6
Continuous
 62
     7
370
    15
100
AcDbLine
 10
1.625
 20
20.85
 30
0.0
 11
0.0
 21
20.85
 31
0.0
  0
LINE
  5
15C
330
1F
100
AcDbEntity
  8
0
  6
Continuous
 62
     7
370
    15
100
AcDbLine
 10
0.0
 20
24.65
 30
0.0
 11
0.0
 21
20.85
 31
0.0
  0
LINE
  5
15D
330
1F
100
AcDbEntity
  8
0
  6
Continuous
 62
     7
370
    15
100
AcDbLine
 10
33.5
 20
18.5
 30
0.0
 11
33.5
 21
26.0
 31
0.0
  0
LINE
  5
15E
330
1F
100
AcDbEntity
  8
0
  6
Continuous
 62
     7
370
    15
100
AcDbLine
 10
33.5
 20
26.0
 30
0.0
 11
23.0
 21
26.0
 31
0.0
  0
LINE
  5
15F
330
1F
100
AcDbEntity
  8
0
  6
Continuous
 62
     7
370
    15
100
AcDbLine
 10
23.0
 20
26.0
 30
0.0
 11
23.0
 21
18.5
 31
0.0
  0
LINE
  5
160
330
1F
100
AcDbEntity
  8
0
  6
Continuous
 62
     7
370
    15
100
AcDbLine
 10
23.0
 20
18.5
 30
0.0
 11
33.5
 21
18.5
 31
0.0
  0
LINE
  5
161
330
1F
100
AcDbEntity
  8
0
  6
Continuous
 62
     7
370
    15
100
AcDbLine
 10
47.0
 20
25.0
 30
0.0
 11
47.0
 21
28.0
 31
0.0
  0
LINE
  5
162
330
1F
100
AcDbEntity
  8
0
  6
Continuous
 62
     7
370
    15
100
AcDbLine
 10
47.0
 20
28.0
 30
0.0
 11
39.5
 21
28.0
 31
0.0
  0
LINE
  5
163
330
1F
100
AcDbEntity
  8
0
  6
Continuous
 62
     7
370
    15
100
AcDbLine
 10
39.5
 20
28.0
 30
0.0
 11
39.5
 21
25.0
 31
0.0
  0
LINE
  5
164
330
1F
100
AcDbEntity
  8
0
  6
Continuous
 62
     7
370
    15
100
AcDbLine
 10
39.5
 20
25.0
 30
0.0
 11
47.0
 21
25.0
 31
0.0
  0
LINE
  5
165
330
1F
100
AcDbEntity
  8
0
  6
Continuous
 62
     7
370
    15
100
AcDbLine
 10
9.4944217722
 20
41.2159633018
 30
0.0
 11
9.1624175576
 21
41.3483811678
 31
0.0
  0
LINE
  5
166
330
1F
100
AcDbEntity
  8
0
  6
Continuous
 62
     7
370
    15
100
AcDbLine
 10
13.8584540502
 20
35.9844980469
 30
0.0
 11
13.964004523
 21
35.8923812706
 31
0.0
  0
LINE
  5
167
330
1F
100
AcDbEntity
  8
0
  6
Continuous
 62
     7
370
    15
100
AcDbLine
 10
15.2766685855
 20
42.0219850946
 30
0.0
 11
15.5165560238
 21
41.7149291735
 31
0.0
  0
LINE
  5
168
330
1F
100
AcDbEntity
  8
0
  6
Continuous
 62
     7
370
    15
100
AcDbLine
 10
11.0584878701
 20
31.6281421669
 30
0.0
 11
10.9529373972
 21
31.8545959087
 31
0.0
  0
LINE
  5
169
330
1F
100
AcDbEntity
  8
0
  6
Continuous
 62
     7
370
    15
100
AcDbLine
 10
11.2446405222
 20
31.5609736842
 30
0.0
 11
11.0584878701
 21
31.6281421669
 31
0.0
  0
LINE
  5
16A
330
1F
100
AcDbEntity
  8
0
  6
Continuous
 62
     7
370
    15
100
AcDbLine
 10
30.0441392887
 20
36.1015631168
 30
0.0
 11
30.2168582442
 21
36.1149968133
 31
0.0
  0
LINE
  5
16B
330
1F
100
AcDbEntity
  8
0
  6
Continuous
 62
     7
370
    15
100
AcDbLine
 10
24.9374155016
 20
37.2702947163
 30
0.0
 11
24.7512628495
 21
37.481395662
 31
0.0
  0
LINE
  5
16C
330
1F
100
AcDbEntity
  8
0
  6
Continuous
 62
     7
370
    15
100
AcDbLine
 10
26.052412315
 20
36.4431628289
 30
0.0
 11
26.1713964844
 21
36.3894280428
 31
0.0
  0
LINE
  5
16D
330
1F
100
AcDbEntity
  8
0
  6
Continuous
 62
     7
370
    15
100
AcDbLine
 10
24.605411287
 20
31.1310953947
 30
0.0
 11
24.5651101974
 21
31.3018952508
 31
0.0
  0
LINE
  5
16E
330
1F
100
AcDbEntity
  8
0
  6
Continuous
 62
     7
370
    15
100
AcDbLine
 10
24.897114412
 20
30.9468618421
 30
0.0
 11
24.605411287
 21
31.1310953947
 31
0.0
  0
LINE
  5
16F
330
1F
100
AcDbEntity
  8
0
  6
Continuous
 62
     7
370
    15
100
AcDbLine
 10
46.6597028166
 20
35.7446106086
 30
0.0
 11
46.7268712993
 21
35.5699725535
 31
0.0
  0
LINE
  5
170
330
1F
100
AcDbEntity
  8
0
  6
Continuous
 62
     7
370
    15
100
AcDbLine
 10
46.4601164679
 20
35.8117790913
 30
0.0
 11
46.6597028166
 21
35.7446106086
 31
0.0
  0
ARC
  5
171
330
1F
100
AcDbEntity
  8
0
  6
Continuous
 62
     7
370
    15
100
AcDbCircle
 10
1.625
 20
40.7
 30
0.0
 40
1.550000000000004
100
AcDbArc
 50
270.0
 51
90.0
  0
ARC
  5
172
330
1F
100
AcDbEntity
  8
0
  6
Continuous
 62
     7
370
    15
100
AcDbCircle
 10
58.375
 20
40.7
 30
0.0
 40
1.550000000000004
100
AcDbArc
 50
90.0
 51
270.0
  0
ARC
  5
173
330
1F
100
AcDbEntity
  8
0
  6
Continuous
 62
     7
370
    15
100
AcDbCircle
 10
58.375
 20
19.3
 30
0.0
 40
1.550000000000001
100
AcDbArc
 50
90.0
 51
270.0
  0
ARC
  5
174
330
1F
100
AcDbEntity
  8
0
  6
Continuous
 62
     7
370
    15
100
AcDbCircle
 10
1.625
 20
19.3
 30
0.0
 40
1.550000000000001
100
AcDbArc
 50
270.0
 51
90.0
  0
MTEXT
  5
176
330
1F
100
AcDbEntity
  8
0
  6
Continuous
 62
     7
100
AcDbMText
 10
0.0
 20
-1.0195663917
 30
0.0
 40
4.83362
 41
0.0
 71
     1
 72
     1
  1
SolidWorks Student Edition.
  7
SLDTEXTSTYLE0
 73
     1
 44
1.0
  0
MTEXT
  5
177
330
1F
100
AcDbEntity
  8
0
  6
Continuous
 62
     7
100
AcDbMText
 10
0.0
 20
-8.2699963917
 30
0.0
 40
4.83362
 41
0.0
 71
     1
 72
     1
  1
For Academic Use Only.
  7
SLDTEXTSTYLE0
 73
     1
 44
1.0
  0
ENDSEC
  0
SECTION
  2
OBJECTS
  0
DICTIONARY
  5
C
330
0
100
AcDbDictionary
281
     1
  3
ACAD_GROUP
350
D
  3
ACAD_LAYOUT
350
1A
  3
ACAD_MLINESTYLE
350
17
  3
ACAD_PLOTSETTINGS
350
19
  3
ACAD_PLOTSTYLENAME
350
E
  0
DICTIONARY
  5
D
102
{ACAD_REACTORS
330
C
102
}
330
C
100
AcDbDictionary
281
     1
  0
DICTIONARY
  5
1A
102
{ACAD_REACTORS
330
C
102
}
330
C
100
AcDbDictionary
281
     1
  3
Layout1
350
1E
  3
Layout2
350
26
  3
Model
350
22
  0
DICTIONARY
  5
17
102
{ACAD_REACTORS
330
C
102
}
330
C
100
AcDbDictionary
281
     1
  3
Standard
350
18
  0
DICTIONARY
  5
19
102
{ACAD_REACTORS
330
C
102
}
330
C
100
AcDbDictionary
281
     1
  0
ACDBDICTIONARYWDFLT
  5
E
102
{ACAD_REACTORS
330
C
102
}
330
C
100
AcDbDictionary
281
     1
  3
Normal
350
F
100
AcDbDictionaryWithDefault
340
F
  0
LAYOUT
  5
1E
102
{ACAD_REACTORS
330
1A
102
}
330
1A
100
AcDbPlotSettings
  1

  2
none_device
  4

  6

 40
0.0
 41
0.0
 42
0.0
 43
0.0
 44
0.0
 45
0.0
 46
0.0
 47
0.0
 48
0.0
 49
0.0
140
0.0
141
0.0
142
1.0
143
1.0
 70
   688
 72
     0
 73
     0
 74
     5
  7

 75
    16
147
1.0
148
0.0
149
0.0
100
AcDbLayout
  1
Layout1
 70
     1
 71
     1
 10
0.0
 20
0.0
 11
420.0
 21
297.0
 12
0.0
 22
0.0
 32
0.0
 14
1.0000000000E+20
 24
1.0000000000E+20
 34
1.0000000000E+20
 15
-1.0000000000E+20
 25
-1.0000000000E+20
 35
-1.0000000000E+20
146
0.0
 13
0.0
 23
0.0
 33
0.0
 16
1.0
 26
0.0
 36
0.0
 17
0.0
 27
1.0
 37
0.0
 76
     0
330
1B
  0
LAYOUT
  5
26
102
{ACAD_REACTORS
330
1A
102
}
330
1A
100
AcDbPlotSettings
  1

  2
none_device
  4

  6

 40
0.0
 41
0.0
 42
0.0
 43
0.0
 44
0.0
 45
0.0
 46
0.0
 47
0.0
 48
0.0
 49
0.0
140
0.0
141
0.0
142
1.0
143
1.0
 70
   688
 72
     0
 73
     0
 74
     5
  7

 75
    16
147
1.0
148
0.0
149
0.0
100
AcDbLayout
  1
Layout2
 70
     1
 71
     2
 10
0.0
 20
0.0
 11
0.0
 21
0.0
 12
0.0
 22
0.0
 32
0.0
 14
0.0
 24
0.0
 34
0.0
 15
0.0
 25
0.0
 35
0.0
146
0.0
 13
0.0
 23
0.0
 33
0.0
 16
1.0
 26
0.0
 36
0.0
 17
0.0
 27
1.0
 37
0.0
 76
     0
330
23
  0
LAYOUT
  5
22
102
{ACAD_REACTORS
330
1A
102
}
330
1A
100
AcDbPlotSettings
  1

  2
none_device
  4
ANSI_A_(11.00_x_8.50_Inches)
  6

 40
6.35
 41
19.05
 42
6.35000508
 43
19.05000254
 44
279.4
 45
215.9
 46
26.47949746
 47
-17.97050127
 48
0.0
 49
0.0
140
0.0
141
0.0
142
0.14025
143
1.0
 70
  1696
 72
     0
 73
     0
 74
     0
  7

 75
     0
147
0.0179189148
148
0.0
149
0.0
100
AcDbLayout
  1
Model
 70
     1
 71
     0
 10
0.0
 20
0.0
 11
420.0
 21
297.0
 12
0.0
 22
0.0
 32
0.0
 14
0.0
 24
0.0
 34
0.0
 15
60.0
 25
60.0
 35
0.0
146
0.0
 13
0.0
 23
0.0
 33
0.0
 16
1.0
 26
0.0
 36
0.0
 17
0.0
 27
1.0
 37
0.0
 76
     0
330
1F
331
29
  0
MLINESTYLE
  5
18
102
{ACAD_REACTORS
330
17
102
}
330
17
100
AcDbMlineStyle
  2
Standard
 70
     0
  3

 62
   256
 51
90.0
 52
90.0
 71
     2
 49
0.5
 62
   256
  6
BYLAYER
 49
-0.5
 62
   256
  6
BYLAYER
  0
ACDBPLACEHOLDER
  5
F
102
{ACAD_REACTORS
330
E
102
}
330
E
  0
ENDSEC
  0
EOF
