  0
SECTION
  2
HEADER
  9
$ACADVER
  1
AC1014
  9
$HANDSEED
  5
FFFF
  9
$MEASUREMENT
 70
     1
  0
ENDSEC
  0
SECTION
  2
TABLES
  0
TABLE
  2
VPORT
  5
8
330
0
100
AcDbSymbolTable
 70
     4
  0
VPORT
  5
2E
330
8
100
AcDbSymbolTableRecord
100
AcDbViewportTableRecord
  2
*ACTIVE
 70
     0
 10
0.0
 20
0.0
 11
1.0
 21
1.0
 12
210.0
 22
148.5
 13
0.0
 23
0.0
 14
10.0
 24
10.0
 15
10.0
 25
10.0
 16
0.0
 26
0.0
 36
1.0
 17
0.0
 27
0.0
 37
0.0
 40
341.0
 41
1.24
 42
50.0
 43
0.0
 44
0.0
 50
0.0
 51
0.0
 71
     0
 72
   100
 73
     1
 74
     3
 75
     0
 76
     0
 77
     0
 78
     0
  0
ENDTAB
  0
TABLE
  2
LTYPE
  5
5
330
0
100
AcDbSymbolTable
 70
     1
  0
LTYPE
  5
14
330
5
100
AcDbSymbolTableRecord
100
AcDbLinetypeTableRecord
  2
BYBLOCK
 70
     0
  3

 72
    65
 73
     0
 40
0.0
  0
LTYPE
  5
15
330
5
100
AcDbSymbolTableRecord
100
AcDbLinetypeTableRecord
  2
BYLAYER
 70
     0
  3

 72
    65
 73
     0
 40
0.0
  0
LTYPE
  5
16
330
5
100
AcDbSymbolTableRecord
100
AcDbLinetypeTableRecord
  2
CONTINUOUS
 70
     0
  3
Solid line
 72
    65
 73
     0
 40
0.0
  0
ENDTAB
  0
TABLE
  2
LAYER
  5
2
100
AcDbSymbolTable
 70
2
  0
LAYER
  5
50
100
AcDbSymbolTableRecord
100
AcDbLayerTableRecord
  2
0
 70
0
  6
CONTINUOUS
  0
LAYER
  5
51
100
AcDbSymbolTableRecord
100
AcDbLayerTableRecord
  2
Layer_1
 70
0
  6
CONTINUOUS
  0
ENDTAB
  0
TABLE
  2
STYLE
  5
3
330
0
100
AcDbSymbolTable
 70
     1
  0
STYLE
  5
11
330
3
100
AcDbSymbolTableRecord
100
AcDbTextStyleTableRecord
  2
STANDARD
 70
     0
 40
0.0
 41
1.0
 50
0.0
 71
     0
 42
2.5
  3
txt
  4

  0
ENDTAB
  0
TABLE
  2
VIEW
  5
6
330
0
100
AcDbSymbolTable
 70
     0
  0
ENDTAB
  0
TABLE
  2
UCS
  5
7
330
0
100
AcDbSymbolTable
 70
     0
  0
ENDTAB
  0
TABLE
  2
APPID
  5
9
330
0
100
AcDbSymbolTable
 70
     2
  0
APPID
  5
12
330
9
100
AcDbSymbolTableRecord
100
AcDbRegAppTableRecord
  2
ACAD
 70
     0
  0
ENDTAB
  0
TABLE
  2
DIMSTYLE
  5
A
330
0
100
AcDbSymbolTable
 70
     1
  0
DIMSTYLE
105
27
330
A
100
AcDbSymbolTableRecord
100
AcDbDimStyleTableRecord
  2
ISO-25
 70
     0
  3

  4

  5

  6

  7

 40
1.0
 41
2.5
 42
0.625
 43
3.75
 44
1.25
 45
0.0
 46
0.0
 47
0.0
 48
0.0
140
2.5
141
2.5
142
0.0
143
0.03937007874016
144
1.0
145
0.0
146
1.0
147
0.625
 71
     0
 72
     0
 73
     0
 74
     0
 75
     0
 76
     0
 77
     1
 78
     8
170
     0
171
     3
172
     1
173
     0
174
     0
175
     0
176
     0
177
     0
178
     0
270
     2
271
     2
272
     2
273
     2
274
     3
340
11
275
     0
280
     0
281
     0
282
     0
283
     0
284
     8
285
     0
286
     0
287
     3
288
     0
  0
ENDTAB
  0
TABLE
  2
BLOCK_RECORD
  5
1
330
0
100
AcDbSymbolTable
 70
     1
  0
BLOCK_RECORD
  5
1F
330
1
100
AcDbSymbolTableRecord
100
AcDbBlockTableRecord
  2
*MODEL_SPACE
  0
BLOCK_RECORD
  5
1B
330
1
100
AcDbSymbolTableRecord
100
AcDbBlockTableRecord
  2
*PAPER_SPACE
  0
ENDTAB
  0
ENDSEC
  0
SECTION
  2
BLOCKS
  0
BLOCK
  5
20
330
1F
100
AcDbEntity
  8
0
100
AcDbBlockBegin
  2
*MODEL_SPACE
 70
     0
 10
0.0
 20
0.0
 30
0.0
  3
*MODEL_SPACE
  1

  0
ENDBLK
  5
21
330
1F
100
AcDbEntity
  8
0
100
AcDbBlockEnd
  0
BLOCK
  5
1C
330
1B
100
AcDbEntity
 67
     1
  8
0
100
AcDbBlockBegin
  2
*PAPER_SPACE
  1

  0
ENDBLK
  5
1D
330
1B
100
AcDbEntity
 67
     1
  8
0
100
AcDbBlockEnd
  0
ENDSEC
  0
SECTION
  2
ENTITIES
  0
SPLINE
  5
100
100
AcDbEntity
  8
Layer_1
 62
7
100
AcDbSpline
 70
8
 71
3
 72
8
 73
4
 74
0
 40
0
 40
0
 40
0
 40
0
 40
1
 40
1
 40
1
 40
1
 10
123.873822
 20
205.128175
 30
0.0
 10
123.873822
 20
205.503303
 30
0.0
 10
124.073951
 20
205.849937
 30
0.0
 10
124.398822
 20
206.037501
 30
0.0
  0
SPLINE
  5
101
100
AcDbEntity
  8
Layer_1
 62
7
100
AcDbSpline
 70
8
 71
3
 72
8
 73
4
 74
0
 40
0
 40
0
 40
0
 40
0
 40
1
 40
1
 40
1
 40
1
 10
124.398822
 20
206.037501
 30
0.0
 10
124.723693
 20
206.225066
 30
0.0
 10
125.123951
 20
206.225066
 30
0.0
 10
125.448822
 20
206.037501
 30
0.0
  0
SPLINE
  5
102
100
AcDbEntity
  8
Layer_1
 62
7
100
AcDbSpline
 70
8
 71
3
 72
8
 73
4
 74
0
 40
0
 40
0
 40
0
 40
0
 40
1
 40
1
 40
1
 40
1
 10
125.448822
 20
206.037501
 30
0.0
 10
125.773693
 20
205.849937
 30
0.0
 10
125.973822
 20
205.503303
 30
0.0
 10
125.973822
 20
205.128175
 30
0.0
  0
SPLINE
  5
103
100
AcDbEntity
  8
Layer_1
 62
7
100
AcDbSpline
 70
8
 71
3
 72
8
 73
4
 74
0
 40
0
 40
0
 40
0
 40
0
 40
1
 40
1
 40
1
 40
1
 10
125.973822
 20
205.128175
 30
0.0
 10
125.973822
 20
204.753046
 30
0.0
 10
125.773693
 20
204.406412
 30
0.0
 10
125.448822
 20
204.218848
 30
0.0
  0
SPLINE
  5
104
100
AcDbEntity
  8
Layer_1
 62
7
100
AcDbSpline
 70
8
 71
3
 72
8
 73
4
 74
0
 40
0
 40
0
 40
0
 40
0
 40
1
 40
1
 40
1
 40
1
 10
125.448822
 20
204.218848
 30
0.0
 10
125.123951
 20
204.031284
 30
0.0
 10
124.723693
 20
204.031284
 30
0.0
 10
124.398822
 20
204.218848
 30
0.0
  0
SPLINE
  5
105
100
AcDbEntity
  8
Layer_1
 62
7
100
AcDbSpline
 70
8
 71
3
 72
8
 73
4
 74
0
 40
0
 40
0
 40
0
 40
0
 40
1
 40
1
 40
1
 40
1
 10
124.398822
 20
204.218848
 30
0.0
 10
124.073951
 20
204.406412
 30
0.0
 10
123.873822
 20
204.753046
 30
0.0
 10
123.873822
 20
205.128175
 30
0.0
  0
SPLINE
  5
106
100
AcDbEntity
  8
Layer_1
 62
7
100
AcDbSpline
 70
8
 71
3
 72
8
 73
4
 74
0
 40
0
 40
0
 40
0
 40
0
 40
1
 40
1
 40
1
 40
1
 10
64.659535
 20
233.828168
 30
0.0
 10
64.659535
 20
234.381930
 30
0.0
 10
64.954964
 20
234.893627
 30
0.0
 10
65.434536
 20
235.170508
 30
0.0
  0
SPLINE
  5
107
100
AcDbEntity
  8
Layer_1
 62
7
100
AcDbSpline
 70
8
 71
3
 72
8
 73
4
 74
0
 40
0
 40
0
 40
0
 40
0
 40
1
 40
1
 40
1
 40
1
 10
65.434536
 20
235.170508
 30
0.0
 10
65.914108
 20
235.447389
 30
0.0
 10
66.504965
 20
235.447389
 30
0.0
 10
66.984537
 20
235.170508
 30
0.0
  0
SPLINE
  5
108
100
AcDbEntity
  8
Layer_1
 62
7
100
AcDbSpline
 70
8
 71
3
 72
8
 73
4
 74
0
 40
0
 40
0
 40
0
 40
0
 40
1
 40
1
 40
1
 40
1
 10
66.984537
 20
235.170508
 30
0.0
 10
67.464109
 20
234.893627
 30
0.0
 10
67.759538
 20
234.381930
 30
0.0
 10
67.759538
 20
233.828168
 30
0.0
  0
SPLINE
  5
109
100
AcDbEntity
  8
Layer_1
 62
7
100
AcDbSpline
 70
8
 71
3
 72
8
 73
4
 74
0
 40
0
 40
0
 40
0
 40
0
 40
1
 40
1
 40
1
 40
1
 10
67.759538
 20
233.828168
 30
0.0
 10
67.759538
 20
233.274406
 30
0.0
 10
67.464109
 20
232.762709
 30
0.0
 10
66.984537
 20
232.485828
 30
0.0
  0
SPLINE
  5
10a
100
AcDbEntity
  8
Layer_1
 62
7
100
AcDbSpline
 70
8
 71
3
 72
8
 73
4
 74
0
 40
0
 40
0
 40
0
 40
0
 40
1
 40
1
 40
1
 40
1
 10
66.984537
 20
232.485828
 30
0.0
 10
66.504965
 20
232.208947
 30
0.0
 10
65.914108
 20
232.208947
 30
0.0
 10
65.434536
 20
232.485828
 30
0.0
  0
SPLINE
  5
10b
100
AcDbEntity
  8
Layer_1
 62
7
100
AcDbSpline
 70
8
 71
3
 72
8
 73
4
 74
0
 40
0
 40
0
 40
0
 40
0
 40
1
 40
1
 40
1
 40
1
 10
65.434536
 20
232.485828
 30
0.0
 10
64.954964
 20
232.762709
 30
0.0
 10
64.659535
 20
233.274406
 30
0.0
 10
64.659535
 20
233.828168
 30
0.0
  0
LWPOLYLINE
  5
10c
100
AcDbEntity
  8
Layer_1
 62
7
100
AcDbPolyline
 90
2
 70
0
 10
123.873822
 20
205.128175
 30
0.0
 10
123.873822
 20
205.128175
 30
0.0
  0
SPLINE
  5
10d
100
AcDbEntity
  8
Layer_1
 62
7
100
AcDbSpline
 70
8
 71
3
 72
8
 73
4
 74
0
 40
0
 40
0
 40
0
 40
0
 40
1
 40
1
 40
1
 40
1
 10
90.373824
 20
233.828168
 30
0.0
 10
90.373489
 20
234.382152
 30
0.0
 10
90.668845
 20
234.894198
 30
0.0
 10
91.148553
 20
235.171287
 30
0.0
  0
SPLINE
  5
10e
100
AcDbEntity
  8
Layer_1
 62
7
100
AcDbSpline
 70
8
 71
3
 72
8
 73
4
 74
0
 40
0
 40
0
 40
0
 40
0
 40
1
 40
1
 40
1
 40
1
 10
91.148553
 20
235.171287
 30
0.0
 10
91.628262
 20
235.448376
 30
0.0
 10
92.219385
 20
235.448376
 30
0.0
 10
92.699093
 20
235.171287
 30
0.0
  0
SPLINE
  5
10f
100
AcDbEntity
  8
Layer_1
 62
7
100
AcDbSpline
 70
8
 71
3
 72
8
 73
4
 74
0
 40
0
 40
0
 40
0
 40
0
 40
1
 40
1
 40
1
 40
1
 10
92.699093
 20
235.171287
 30
0.0
 10
93.178802
 20
234.894198
 30
0.0
 10
93.474157
 20
234.382152
 30
0.0
 10
93.473823
 20
233.828168
 30
0.0
  0
SPLINE
  5
110
100
AcDbEntity
  8
Layer_1
 62
7
100
AcDbSpline
 70
8
 71
3
 72
8
 73
4
 74
0
 40
0
 40
0
 40
0
 40
0
 40
1
 40
1
 40
1
 40
1
 10
93.473823
 20
233.828168
 30
0.0
 10
93.474157
 20
233.274184
 30
0.0
 10
93.178802
 20
232.762138
 30
0.0
 10
92.699093
 20
232.485049
 30
0.0
  0
SPLINE
  5
111
100
AcDbEntity
  8
Layer_1
 62
7
100
AcDbSpline
 70
8
 71
3
 72
8
 73
4
 74
0
 40
0
 40
0
 40
0
 40
0
 40
1
 40
1
 40
1
 40
1
 10
92.699093
 20
232.485049
 30
0.0
 10
92.219385
 20
232.207960
 30
0.0
 10
91.628262
 20
232.207960
 30
0.0
 10
91.148553
 20
232.485049
 30
0.0
  0
SPLINE
  5
112
100
AcDbEntity
  8
Layer_1
 62
7
100
AcDbSpline
 70
8
 71
3
 72
8
 73
4
 74
0
 40
0
 40
0
 40
0
 40
0
 40
1
 40
1
 40
1
 40
1
 10
91.148553
 20
232.485049
 30
0.0
 10
90.668845
 20
232.762138
 30
0.0
 10
90.373489
 20
233.274184
 30
0.0
 10
90.373824
 20
233.828168
 30
0.0
  0
LWPOLYLINE
  5
113
100
AcDbEntity
  8
Layer_1
 62
7
100
AcDbPolyline
 90
2
 70
0
 10
64.659535
 20
233.828168
 30
0.0
 10
64.659535
 20
233.828168
 30
0.0
  0
SPLINE
  5
114
100
AcDbEntity
  8
Layer_1
 62
7
100
AcDbSpline
 70
8
 71
3
 72
8
 73
4
 74
0
 40
0
 40
0
 40
0
 40
0
 40
1
 40
1
 40
1
 40
1
 10
116.088108
 20
233.828168
 30
0.0
 10
116.088108
 20
234.381930
 30
0.0
 10
116.383536
 20
234.893627
 30
0.0
 10
116.863108
 20
235.170507
 30
0.0
  0
SPLINE
  5
115
100
AcDbEntity
  8
Layer_1
 62
7
100
AcDbSpline
 70
8
 71
3
 72
8
 73
4
 74
0
 40
0
 40
0
 40
0
 40
0
 40
1
 40
1
 40
1
 40
1
 10
116.863108
 20
235.170507
 30
0.0
 10
117.342680
 20
235.447388
 30
0.0
 10
117.933536
 20
235.447388
 30
0.0
 10
118.413108
 20
235.170507
 30
0.0
  0
SPLINE
  5
116
100
AcDbEntity
  8
Layer_1
 62
7
100
AcDbSpline
 70
8
 71
3
 72
8
 73
4
 74
0
 40
0
 40
0
 40
0
 40
0
 40
1
 40
1
 40
1
 40
1
 10
118.413108
 20
235.170507
 30
0.0
 10
118.892680
 20
234.893627
 30
0.0
 10
119.188108
 20
234.381930
 30
0.0
 10
119.188108
 20
233.828168
 30
0.0
  0
SPLINE
  5
117
100
AcDbEntity
  8
Layer_1
 62
7
100
AcDbSpline
 70
8
 71
3
 72
8
 73
4
 74
0
 40
0
 40
0
 40
0
 40
0
 40
1
 40
1
 40
1
 40
1
 10
119.188108
 20
233.828168
 30
0.0
 10
119.188108
 20
233.274406
 30
0.0
 10
118.892680
 20
232.762709
 30
0.0
 10
118.413108
 20
232.485829
 30
0.0
  0
SPLINE
  5
118
100
AcDbEntity
  8
Layer_1
 62
7
100
AcDbSpline
 70
8
 71
3
 72
8
 73
4
 74
0
 40
0
 40
0
 40
0
 40
0
 40
1
 40
1
 40
1
 40
1
 10
118.413108
 20
232.485829
 30
0.0
 10
117.933536
 20
232.208948
 30
0.0
 10
117.342680
 20
232.208948
 30
0.0
 10
116.863108
 20
232.485829
 30
0.0
  0
SPLINE
  5
119
100
AcDbEntity
  8
Layer_1
 62
7
100
AcDbSpline
 70
8
 71
3
 72
8
 73
4
 74
0
 40
0
 40
0
 40
0
 40
0
 40
1
 40
1
 40
1
 40
1
 10
116.863108
 20
232.485829
 30
0.0
 10
116.383536
 20
232.762709
 30
0.0
 10
116.088108
 20
233.274406
 30
0.0
 10
116.088108
 20
233.828168
 30
0.0
  0
LWPOLYLINE
  5
11a
100
AcDbEntity
  8
Layer_1
 62
7
100
AcDbPolyline
 90
2
 70
0
 10
90.373824
 20
233.828168
 30
0.0
 10
90.373824
 20
233.828168
 30
0.0
  0
LWPOLYLINE
  5
11b
100
AcDbEntity
  8
Layer_1
 62
7
100
AcDbPolyline
 90
2
 70
0
 10
116.088108
 20
233.828168
 30
0.0
 10
116.088108
 20
233.828168
 30
0.0
  0
LWPOLYLINE
  5
11c
100
AcDbEntity
  8
Layer_1
 62
7
100
AcDbPolyline
 90
2
 70
0
 10
50.173822
 20
207.078161
 30
0.0
 10
46.923822
 20
207.078161
 30
0.0
  0
LWPOLYLINE
  5
11d
100
AcDbEntity
  8
Layer_1
 62
7
100
AcDbPolyline
 90
13
 70
0
 10
46.923822
 20
196.378157
 30
0.0
 10
51.802394
 20
196.378157
 30
0.0
 10
51.802394
 20
199.378179
 30
0.0
 10
50.552392
 20
199.378179
 30
0.0
 10
50.552392
 20
201.578158
 30
0.0
 10
51.802394
 20
201.578158
 30
0.0
 10
51.802394
 20
203.378171
 30
0.0
 10
54.902394
 20
203.378171
 30
0.0
 10
54.902394
 20
201.578158
 30
0.0
 10
56.152395
 20
201.578158
 30
0.0
 10
56.152395
 20
199.378179
 30
0.0
 10
54.902394
 20
199.378179
 30
0.0
 10
54.902394
 20
196.378157
 30
0.0
  0
LWPOLYLINE
  5
11e
100
AcDbEntity
  8
Layer_1
 62
7
100
AcDbPolyline
 90
2
 70
0
 10
59.780966
 20
196.378157
 30
0.0
 10
59.780966
 20
193.128170
 30
0.0
  0
LWPOLYLINE
  5
11f
100
AcDbEntity
  8
Layer_1
 62
7
100
AcDbPolyline
 90
4
 70
0
 10
72.638107
 20
193.128170
 30
0.0
 10
72.638107
 20
196.378157
 30
0.0
 10
85.495251
 20
196.378157
 30
0.0
 10
85.495251
 20
193.128170
 30
0.0
  0
LWPOLYLINE
  5
120
100
AcDbEntity
  8
Layer_1
 62
7
100
AcDbPolyline
 90
4
 70
0
 10
98.352393
 20
193.128170
 30
0.0
 10
98.352393
 20
196.378157
 30
0.0
 10
111.209537
 20
196.378157
 30
0.0
 10
111.209537
 20
193.128170
 30
0.0
  0
LWPOLYLINE
  5
121
100
AcDbEntity
  8
Layer_1
 62
7
100
AcDbPolyline
 90
14
 70
0
 10
124.066680
 20
193.128170
 30
0.0
 10
124.066680
 20
196.378157
 30
0.0
 10
128.945251
 20
196.378157
 30
0.0
 10
128.945251
 20
199.378179
 30
0.0
 10
127.695251
 20
199.378179
 30
0.0
 10
127.695251
 20
201.578158
 30
0.0
 10
128.945251
 20
201.578158
 30
0.0
 10
128.945251
 20
203.378171
 30
0.0
 10
132.045251
 20
203.378171
 30
0.0
 10
132.045251
 20
201.578158
 30
0.0
 10
133.295251
 20
201.578158
 30
0.0
 10
133.295251
 20
199.378179
 30
0.0
 10
132.045251
 20
199.378179
 30
0.0
 10
132.045251
 20
196.378157
 30
0.0
  0
LWPOLYLINE
  5
122
100
AcDbEntity
  8
Layer_1
 62
7
100
AcDbPolyline
 90
14
 70
0
 10
136.923822
 20
207.078161
 30
0.0
 10
133.673822
 20
207.078161
 30
0.0
 10
133.673822
 20
210.878170
 30
0.0
 10
130.673822
 20
210.878170
 30
0.0
 10
130.673822
 20
209.628168
 30
0.0
 10
128.473822
 20
209.628168
 30
0.0
 10
128.473822
 20
210.878170
 30
0.0
 10
126.673822
 20
210.878170
 30
0.0
 10
126.673822
 20
213.978170
 30
0.0
 10
128.473822
 20
213.978170
 30
0.0
 10
128.473822
 20
215.228169
 30
0.0
 10
130.673822
 20
215.228169
 30
0.0
 10
130.673822
 20
213.978170
 30
0.0
 10
133.673822
 20
213.978170
 30
0.0
  0
LWPOLYLINE
  5
123
100
AcDbEntity
  8
Layer_1
 62
7
100
AcDbPolyline
 90
2
 70
0
 10
133.673822
 20
217.778170
 30
0.0
 10
136.923822
 20
217.778170
 30
0.0
  0
LWPOLYLINE
  5
124
100
AcDbEntity
  8
Layer_1
 62
7
100
AcDbPolyline
 90
14
 70
0
 10
136.923822
 20
228.478169
 30
0.0
 10
133.673822
 20
228.478169
 30
0.0
 10
133.673822
 20
232.278170
 30
0.0
 10
130.673822
 20
232.278170
 30
0.0
 10
130.673822
 20
231.028168
 30
0.0
 10
128.473822
 20
231.028168
 30
0.0
 10
128.473822
 20
232.278170
 30
0.0
 10
126.673822
 20
232.278170
 30
0.0
 10
126.673822
 20
235.378169
 30
0.0
 10
128.473822
 20
235.378169
 30
0.0
 10
128.473822
 20
236.628168
 30
0.0
 10
130.673822
 20
236.628168
 30
0.0
 10
130.673822
 20
235.378169
 30
0.0
 10
133.673822
 20
235.378169
 30
0.0
  0
LWPOLYLINE
  5
125
100
AcDbEntity
  8
Layer_1
 62
7
100
AcDbPolyline
 90
2
 70
0
 10
133.673822
 20
239.178170
 30
0.0
 10
136.923822
 20
239.178170
 30
0.0
  0
LWPOLYLINE
  5
126
100
AcDbEntity
  8
Layer_1
 62
7
100
AcDbPolyline
 90
13
 70
0
 10
136.923822
 20
249.878168
 30
0.0
 10
132.045251
 20
249.878168
 30
0.0
 10
132.045251
 20
246.878169
 30
0.0
 10
133.295251
 20
246.878169
 30
0.0
 10
133.295251
 20
244.678170
 30
0.0
 10
132.045251
 20
244.678170
 30
0.0
 10
132.045251
 20
242.878168
 30
0.0
 10
128.945251
 20
242.878168
 30
0.0
 10
128.945251
 20
244.678170
 30
0.0
 10
127.695251
 20
244.678170
 30
0.0
 10
127.695251
 20
246.878169
 30
0.0
 10
128.945251
 20
246.878169
 30
0.0
 10
128.945251
 20
249.878168
 30
0.0
  0
LWPOLYLINE
  5
127
100
AcDbEntity
  8
Layer_1
 62
7
100
AcDbPolyline
 90
2
 70
0
 10
124.066680
 20
249.878168
 30
0.0
 10
124.066680
 20
253.128169
 30
0.0
  0
LWPOLYLINE
  5
128
100
AcDbEntity
  8
Layer_1
 62
7
100
AcDbPolyline
 90
4
 70
0
 10
111.209537
 20
253.128169
 30
0.0
 10
111.209537
 20
249.878168
 30
0.0
 10
98.352393
 20
249.878168
 30
0.0
 10
98.352393
 20
253.128169
 30
0.0
  0
LWPOLYLINE
  5
129
100
AcDbEntity
  8
Layer_1
 62
7
100
AcDbPolyline
 90
4
 70
0
 10
85.495251
 20
253.128169
 30
0.0
 10
85.495251
 20
249.878168
 30
0.0
 10
72.638107
 20
249.878168
 30
0.0
 10
72.638107
 20
253.128169
 30
0.0
  0
LWPOLYLINE
  5
12a
100
AcDbEntity
  8
Layer_1
 62
7
100
AcDbPolyline
 90
14
 70
0
 10
59.780966
 20
253.128169
 30
0.0
 10
59.780966
 20
249.878168
 30
0.0
 10
54.902394
 20
249.878168
 30
0.0
 10
54.902394
 20
246.878169
 30
0.0
 10
56.152395
 20
246.878169
 30
0.0
 10
56.152395
 20
244.678170
 30
0.0
 10
54.902394
 20
244.678170
 30
0.0
 10
54.902394
 20
242.878168
 30
0.0
 10
51.802394
 20
242.878168
 30
0.0
 10
51.802394
 20
244.678170
 30
0.0
 10
50.552392
 20
244.678170
 30
0.0
 10
50.552392
 20
246.878169
 30
0.0
 10
51.802394
 20
246.878169
 30
0.0
 10
51.802394
 20
249.878168
 30
0.0
  0
LWPOLYLINE
  5
12b
100
AcDbEntity
  8
Layer_1
 62
7
100
AcDbPolyline
 90
14
 70
0
 10
46.923822
 20
239.178170
 30
0.0
 10
50.173822
 20
239.178170
 30
0.0
 10
50.173822
 20
235.378169
 30
0.0
 10
53.173822
 20
235.378169
 30
0.0
 10
53.173822
 20
236.628168
 30
0.0
 10
55.373823
 20
236.628168
 30
0.0
 10
55.373823
 20
235.378169
 30
0.0
 10
57.173822
 20
235.378169
 30
0.0
 10
57.173822
 20
232.278170
 30
0.0
 10
55.373823
 20
232.278170
 30
0.0
 10
55.373823
 20
231.028168
 30
0.0
 10
53.173822
 20
231.028168
 30
0.0
 10
53.173822
 20
232.278170
 30
0.0
 10
50.173822
 20
232.278170
 30
0.0
  0
LWPOLYLINE
  5
12c
100
AcDbEntity
  8
Layer_1
 62
7
100
AcDbPolyline
 90
2
 70
0
 10
50.173822
 20
228.478169
 30
0.0
 10
46.923822
 20
228.478169
 30
0.0
  0
LWPOLYLINE
  5
12d
100
AcDbEntity
  8
Layer_1
 62
7
100
AcDbPolyline
 90
14
 70
0
 10
46.923822
 20
217.778170
 30
0.0
 10
50.173822
 20
217.778170
 30
0.0
 10
50.173822
 20
213.978170
 30
0.0
 10
53.173822
 20
213.978170
 30
0.0
 10
53.173822
 20
215.228169
 30
0.0
 10
55.373823
 20
215.228169
 30
0.0
 10
55.373823
 20
213.978170
 30
0.0
 10
57.173822
 20
213.978170
 30
0.0
 10
57.173822
 20
210.878170
 30
0.0
 10
55.373823
 20
210.878170
 30
0.0
 10
55.373823
 20
209.628168
 30
0.0
 10
53.173822
 20
209.628168
 30
0.0
 10
53.173822
 20
210.878170
 30
0.0
 10
50.173822
 20
210.878170
 30
0.0
  0
LWPOLYLINE
  5
12e
100
AcDbEntity
  8
Layer_1
 62
7
100
AcDbPolyline
 90
5
 70
0
 10
98.923822
 20
199.128158
 30
0.0
 10
98.923822
 20
211.128168
 30
0.0
 10
122.923822
 20
211.128168
 30
0.0
 10
122.923822
 20
199.128158
 30
0.0
 10
98.923822
 20
199.128158
 30
0.0
  0
LWPOLYLINE
  5
12f
100
AcDbEntity
  8
Layer_1
 62
7
100
AcDbPolyline
 90
2
 70
0
 10
92.923823
 20
206.178182
 30
0.0
 10
96.923823
 20
206.178182
 30
0.0
  0
LWPOLYLINE
  5
130
100
AcDbEntity
  8
Layer_1
 62
7
100
AcDbPolyline
 90
2
 70
0
 10
96.923823
 20
204.078167
 30
0.0
 10
92.923823
 20
204.078167
 30
0.0
  0
LWPOLYLINE
  5
131
100
AcDbEntity
  8
Layer_1
 62
7
100
AcDbPolyline
 90
5
 70
0
 10
64.173822
 20
214.128168
 30
0.0
 10
64.173822
 20
217.378168
 30
0.0
 10
78.173823
 20
217.378168
 30
0.0
 10
78.173823
 20
214.128168
 30
0.0
 10
64.173822
 20
214.128168
 30
0.0
  0
LWPOLYLINE
  5
132
100
AcDbEntity
  8
Layer_1
 62
7
100
AcDbPolyline
 90
5
 70
0
 10
106.173823
 20
217.378168
 30
0.0
 10
106.173823
 20
214.128168
 30
0.0
 10
92.173823
 20
214.128168
 30
0.0
 10
92.173823
 20
217.378168
 30
0.0
 10
106.173823
 20
217.378168
 30
0.0
  0
LWPOLYLINE
  5
133
100
AcDbEntity
  8
Layer_1
 62
7
100
AcDbPolyline
 90
5
 70
0
 10
113.923822
 20
214.128168
 30
0.0
 10
113.923822
 20
217.378168
 30
0.0
 10
118.923822
 20
217.378168
 30
0.0
 10
118.923822
 20
214.128168
 30
0.0
 10
113.923822
 20
214.128168
 30
0.0
  0
LWPOLYLINE
  5
134
100
AcDbEntity
  8
Layer_1
 62
7
100
AcDbPolyline
 90
2
 70
0
 10
59.780966
 20
253.128169
 30
0.0
 10
72.638107
 20
253.128169
 30
0.0
  0
LWPOLYLINE
  5
135
100
AcDbEntity
  8
Layer_1
 62
7
100
AcDbPolyline
 90
2
 70
0
 10
46.923822
 20
239.178170
 30
0.0
 10
46.923822
 20
249.878168
 30
0.0
  0
LWPOLYLINE
  5
136
100
AcDbEntity
  8
Layer_1
 62
7
100
AcDbPolyline
 90
2
 70
0
 10
72.638107
 20
193.128170
 30
0.0
 10
59.780966
 20
193.128170
 30
0.0
  0
LWPOLYLINE
  5
137
100
AcDbEntity
  8
Layer_1
 62
7
100
AcDbPolyline
 90
2
 70
0
 10
136.923822
 20
207.078161
 30
0.0
 10
136.923822
 20
196.378157
 30
0.0
  0
LWPOLYLINE
  5
138
100
AcDbEntity
  8
Layer_1
 62
7
100
AcDbPolyline
 90
2
 70
0
 10
46.923822
 20
217.778170
 30
0.0
 10
46.923822
 20
228.478169
 30
0.0
  0
LWPOLYLINE
  5
139
100
AcDbEntity
  8
Layer_1
 62
7
100
AcDbPolyline
 90
2
 70
0
 10
111.209537
 20
253.128169
 30
0.0
 10
124.066680
 20
253.128169
 30
0.0
  0
LWPOLYLINE
  5
13a
100
AcDbEntity
  8
Layer_1
 62
7
100
AcDbPolyline
 90
2
 70
0
 10
85.495251
 20
253.128169
 30
0.0
 10
98.352393
 20
253.128169
 30
0.0
  0
LWPOLYLINE
  5
13b
100
AcDbEntity
  8
Layer_1
 62
7
100
AcDbPolyline
 90
2
 70
0
 10
124.066680
 20
193.128170
 30
0.0
 10
111.209537
 20
193.128170
 30
0.0
  0
LWPOLYLINE
  5
13c
100
AcDbEntity
  8
Layer_1
 62
7
100
AcDbPolyline
 90
2
 70
0
 10
98.352393
 20
193.128170
 30
0.0
 10
85.495251
 20
193.128170
 30
0.0
  0
LWPOLYLINE
  5
13d
100
AcDbEntity
  8
Layer_1
 62
7
100
AcDbPolyline
 90
2
 70
0
 10
136.923822
 20
249.878168
 30
0.0
 10
136.923822
 20
239.178170
 30
0.0
  0
LWPOLYLINE
  5
13e
100
AcDbEntity
  8
Layer_1
 62
7
100
AcDbPolyline
 90
2
 70
0
 10
46.923822
 20
196.378157
 30
0.0
 10
46.923822
 20
207.078161
 30
0.0
  0
LWPOLYLINE
  5
13f
100
AcDbEntity
  8
Layer_1
 62
7
100
AcDbPolyline
 90
2
 70
0
 10
136.923822
 20
228.478169
 30
0.0
 10
136.923822
 20
217.778170
 30
0.0
  0
LWPOLYLINE
  5
140
100
AcDbEntity
  8
Layer_1
 62
7
100
AcDbPolyline
 90
2
 70
0
 10
133.673822
 20
235.378169
 30
0.0
 10
133.673822
 20
239.178170
 30
0.0
  0
LWPOLYLINE
  5
141
100
AcDbEntity
  8
Layer_1
 62
7
100
AcDbPolyline
 90
2
 70
0
 10
50.173822
 20
232.278170
 30
0.0
 10
50.173822
 20
228.478169
 30
0.0
  0
LWPOLYLINE
  5
142
100
AcDbEntity
  8
Layer_1
 62
7
100
AcDbPolyline
 90
2
 70
0
 10
128.945251
 20
249.878168
 30
0.0
 10
124.066680
 20
249.878168
 30
0.0
  0
LWPOLYLINE
  5
143
100
AcDbEntity
  8
Layer_1
 62
7
100
AcDbPolyline
 90
2
 70
0
 10
132.045251
 20
196.378157
 30
0.0
 10
136.923822
 20
196.378157
 30
0.0
  0
LWPOLYLINE
  5
144
100
AcDbEntity
  8
Layer_1
 62
7
100
AcDbPolyline
 90
2
 70
0
 10
51.802394
 20
249.878168
 30
0.0
 10
46.923822
 20
249.878168
 30
0.0
  0
LWPOLYLINE
  5
145
100
AcDbEntity
  8
Layer_1
 62
7
100
AcDbPolyline
 90
2
 70
0
 10
54.902394
 20
196.378157
 30
0.0
 10
59.780966
 20
196.378157
 30
0.0
  0
LWPOLYLINE
  5
146
100
AcDbEntity
  8
Layer_1
 62
7
100
AcDbPolyline
 90
2
 70
0
 10
133.673822
 20
213.978170
 30
0.0
 10
133.673822
 20
217.778170
 30
0.0
  0
SPLINE
  5
147
100
AcDbEntity
  8
Layer_1
 62
7
100
AcDbSpline
 70
8
 71
3
 72
8
 73
4
 74
0
 40
0
 40
0
 40
0
 40
0
 40
1
 40
1
 40
1
 40
1
 10
92.923823
 20
204.078167
 30
0.0
 10
92.548691
 20
204.078167
 30
0.0
 10
92.202055
 20
204.278297
 30
0.0
 10
92.014489
 20
204.603171
 30
0.0
  0
SPLINE
  5
148
100
AcDbEntity
  8
Layer_1
 62
7
100
AcDbSpline
 70
8
 71
3
 72
8
 73
4
 74
0
 40
0
 40
0
 40
0
 40
0
 40
1
 40
1
 40
1
 40
1
 10
92.014489
 20
204.603171
 30
0.0
 10
91.826924
 20
204.928044
 30
0.0
 10
91.826924
 20
205.328305
 30
0.0
 10
92.014489
 20
205.653178
 30
0.0
  0
SPLINE
  5
149
100
AcDbEntity
  8
Layer_1
 62
7
100
AcDbSpline
 70
8
 71
3
 72
8
 73
4
 74
0
 40
0
 40
0
 40
0
 40
0
 40
1
 40
1
 40
1
 40
1
 10
92.014489
 20
205.653178
 30
0.0
 10
92.202055
 20
205.978052
 30
0.0
 10
92.548691
 20
206.178182
 30
0.0
 10
92.923823
 20
206.178182
 30
0.0
  0
SPLINE
  5
14a
100
AcDbEntity
  8
Layer_1
 62
7
100
AcDbSpline
 70
8
 71
3
 72
8
 73
4
 74
0
 40
0
 40
0
 40
0
 40
0
 40
1
 40
1
 40
1
 40
1
 10
96.923823
 20
206.178182
 30
0.0
 10
97.298955
 20
206.178182
 30
0.0
 10
97.645591
 20
205.978052
 30
0.0
 10
97.833157
 20
205.653178
 30
0.0
  0
SPLINE
  5
14b
100
AcDbEntity
  8
Layer_1
 62
7
100
AcDbSpline
 70
8
 71
3
 72
8
 73
4
 74
0
 40
0
 40
0
 40
0
 40
0
 40
1
 40
1
 40
1
 40
1
 10
97.833157
 20
205.653178
 30
0.0
 10
98.020723
 20
205.328305
 30
0.0
 10
98.020723
 20
204.928044
 30
0.0
 10
97.833157
 20
204.603171
 30
0.0
  0
SPLINE
  5
14c
100
AcDbEntity
  8
Layer_1
 62
7
100
AcDbSpline
 70
8
 71
3
 72
8
 73
4
 74
0
 40
0
 40
0
 40
0
 40
0
 40
1
 40
1
 40
1
 40
1
 10
97.833157
 20
204.603171
 30
0.0
 10
97.645591
 20
204.278297
 30
0.0
 10
97.298955
 20
204.078167
 30
0.0
 10
96.923823
 20
204.078167
 30
0.0
  0
LWPOLYLINE
  5
14d
100
AcDbEntity
  8
Layer_1
 62
7
100
AcDbPolyline
 90
2
 70
0
 10
50.173822
 20
210.878170
 30
0.0
 10
50.173822
 20
207.078161
 30
0.0
  0
ENDSEC
  0
SECTION
  2
OBJECTS
  0
DICTIONARY
  5
C
330
0
100
AcDbDictionary
  3
ACAD_GROUP
350
D
  3
ACAD_MLINESTYLE
350
17
  0
DICTIONARY
  5
D
330
C
100
AcDbDictionary
  0
DICTIONARY
  5
1A
330
C
100
AcDbDictionary
  0
DICTIONARY
  5
17
330
C
100
AcDbDictionary
  3
STANDARD
350
18
  0
DICTIONARY
  5
19
330
C
100
AcDbDictionary
  0
ENDSEC
  0
EOF
